<svg width="325" height="149" viewBox="0 0 325 149" fill="none" xmlns="http://www.w3.org/2000/svg">
<path d="M100.59 113.531H84.5742V144H57.3281V113.531H1.27344V89.2148L53.3242 3.27734H84.5742V91.7539H100.59V113.531ZM57.3281 91.7539V30.6211L21.8789 91.7539H57.3281ZM141.996 74.5664C141.996 90.8424 143.331 103.31 146 111.969C148.669 120.562 154.138 124.859 162.406 124.859C170.674 124.859 176.078 120.562 178.617 111.969C181.221 103.31 182.523 90.8424 182.523 74.5664C182.523 57.5091 181.221 44.8789 178.617 36.6758C176.078 28.4727 170.674 24.3711 162.406 24.3711C154.138 24.3711 148.669 28.4727 146 36.6758C143.331 44.8789 141.996 57.5091 141.996 74.5664ZM162.406 1.42188C180.44 1.42188 193.07 7.76953 200.297 20.4648C207.589 33.1602 211.234 51.194 211.234 74.5664C211.234 97.9388 207.589 115.94 200.297 128.57C193.07 141.201 180.44 147.516 162.406 147.516C144.372 147.516 131.71 141.201 124.418 128.57C117.191 115.94 113.578 97.9388 113.578 74.5664C113.578 51.194 117.191 33.1602 124.418 20.4648C131.71 7.76953 144.372 1.42188 162.406 1.42188ZM323.246 113.531H307.23V144H279.984V113.531H223.93V89.2148L275.98 3.27734H307.23V91.7539H323.246V113.531ZM279.984 91.7539V30.6211L244.535 91.7539H279.984Z" fill="#1670E4" fill-opacity="0.3"/>
<path d="M100.59 113.531V114.531H101.59V113.531H100.59ZM84.5742 113.531V112.531H83.5742V113.531H84.5742ZM84.5742 144V145H85.5742V144H84.5742ZM57.3281 144H56.3281V145H57.3281V144ZM57.3281 113.531H58.3281V112.531H57.3281V113.531ZM1.27344 113.531H0.273438V114.531H1.27344V113.531ZM1.27344 89.2148L0.418096 88.6968L0.273438 88.9356V89.2148H1.27344ZM53.3242 3.27734V2.27734H52.7608L52.4689 2.75928L53.3242 3.27734ZM84.5742 3.27734H85.5742V2.27734H84.5742V3.27734ZM84.5742 91.7539H83.5742V92.7539H84.5742V91.7539ZM100.59 91.7539H101.59V90.7539H100.59V91.7539ZM57.3281 91.7539V92.7539H58.3281V91.7539H57.3281ZM57.3281 30.6211H58.3281V26.9031L56.463 30.1195L57.3281 30.6211ZM21.8789 91.7539L21.0138 91.2523L20.1431 92.7539H21.8789V91.7539ZM100.59 112.531H84.5742V114.531H100.59V112.531ZM83.5742 113.531V144H85.5742V113.531H83.5742ZM84.5742 143H57.3281V145H84.5742V143ZM58.3281 144V113.531H56.3281V144H58.3281ZM57.3281 112.531H1.27344V114.531H57.3281V112.531ZM2.27344 113.531V89.2148H0.273438V113.531H2.27344ZM2.12878 89.7329L54.1796 3.79541L52.4689 2.75928L0.418096 88.6968L2.12878 89.7329ZM53.3242 4.27734H84.5742V2.27734H53.3242V4.27734ZM83.5742 3.27734V91.7539H85.5742V3.27734H83.5742ZM84.5742 92.7539H100.59V90.7539H84.5742V92.7539ZM99.5898 91.7539V113.531H101.59V91.7539H99.5898ZM58.3281 91.7539V30.6211H56.3281V91.7539H58.3281ZM56.463 30.1195L21.0138 91.2523L22.744 92.2555L58.1932 31.1227L56.463 30.1195ZM21.8789 92.7539H57.3281V90.7539H21.8789V92.7539ZM146 111.969L145.044 112.263L145.045 112.265L146 111.969ZM178.617 111.969L177.66 111.681L177.658 111.685L178.617 111.969ZM178.617 36.6758L177.662 36.9715L177.664 36.9784L178.617 36.6758ZM200.297 20.4648L199.428 20.9595L199.43 20.9629L200.297 20.4648ZM200.297 128.57L199.431 128.07L199.429 128.074L200.297 128.57ZM124.418 128.57L123.55 129.067L123.552 129.07L124.418 128.57ZM124.418 20.4648L123.551 19.9668L123.549 19.9701L124.418 20.4648ZM140.996 74.5664C140.996 90.8763 142.331 103.462 145.044 112.263L146.956 111.674C144.33 103.158 142.996 90.8086 142.996 74.5664H140.996ZM145.045 112.265C146.422 116.699 148.551 120.117 151.486 122.423C154.428 124.735 158.092 125.859 162.406 125.859V123.859C158.452 123.859 155.248 122.836 152.721 120.85C150.187 118.859 148.247 115.832 146.955 111.672L145.045 112.265ZM162.406 125.859C166.72 125.859 170.371 124.735 173.283 122.419C176.187 120.11 178.266 116.688 179.576 112.252L177.658 111.685C176.43 115.844 174.537 118.867 172.038 120.854C169.546 122.835 166.361 123.859 162.406 123.859V125.859ZM179.575 112.257C182.221 103.458 183.523 90.8753 183.523 74.5664H181.523C181.523 90.8096 180.222 103.162 177.66 111.681L179.575 112.257ZM183.523 74.5664C183.523 57.4865 182.223 44.7289 179.57 36.3732L177.664 36.9784C180.22 45.0289 181.523 57.5317 181.523 74.5664H183.523ZM179.572 36.3801C178.258 32.1324 176.172 28.8578 173.265 26.6507C170.354 24.4411 166.71 23.3711 162.406 23.3711V25.3711C166.371 25.3711 169.563 26.3518 172.056 28.2438C174.552 30.1383 176.438 33.0161 177.662 36.9715L179.572 36.3801ZM162.406 23.3711C158.102 23.3711 154.445 24.4413 151.504 26.6473C148.566 28.8505 146.431 32.1205 145.049 36.3664L146.951 36.9852C148.239 33.0279 150.172 30.1456 152.704 28.2473C155.231 26.3517 158.442 25.3711 162.406 25.3711V23.3711ZM145.049 36.3664C142.329 44.7252 140.996 57.4857 140.996 74.5664H142.996C142.996 57.5325 144.332 45.0326 146.951 36.9852L145.049 36.3664ZM162.406 2.42188C180.18 2.42188 192.423 8.65398 199.428 20.9595L201.166 19.9701C193.718 6.88509 180.701 0.421875 162.406 0.421875V2.42188ZM199.43 20.9629C206.597 33.4419 210.234 51.2747 210.234 74.5664H212.234C212.234 51.1133 208.58 32.8784 201.164 19.9668L199.43 20.9629ZM210.234 74.5664C210.234 97.8586 206.597 115.658 199.431 128.07L201.163 129.07C208.58 116.223 212.234 98.019 212.234 74.5664H210.234ZM199.429 128.074C192.425 140.314 180.182 146.516 162.406 146.516V148.516C180.698 148.516 193.715 142.087 201.165 129.067L199.429 128.074ZM162.406 146.516C144.631 146.516 132.353 140.314 125.284 128.07L123.552 129.07C131.067 142.087 144.114 148.516 162.406 148.516V146.516ZM125.286 128.074C118.183 115.66 114.578 97.8596 114.578 74.5664H112.578C112.578 98.018 116.2 116.22 123.55 129.067L125.286 128.074ZM114.578 74.5664C114.578 51.2737 118.183 33.4395 125.287 20.9595L123.549 19.9701C116.2 32.8809 112.578 51.1143 112.578 74.5664H114.578ZM125.285 20.9629C132.355 8.65409 144.633 2.42188 162.406 2.42188V0.421875C144.112 0.421875 131.064 6.88497 123.551 19.9668L125.285 20.9629ZM323.246 113.531V114.531H324.246V113.531H323.246ZM307.23 113.531V112.531H306.23V113.531H307.23ZM307.23 144V145H308.23V144H307.23ZM279.984 144H278.984V145H279.984V144ZM279.984 113.531H280.984V112.531H279.984V113.531ZM223.93 113.531H222.93V114.531H223.93V113.531ZM223.93 89.2148L223.074 88.6968L222.93 88.9356V89.2148H223.93ZM275.98 3.27734V2.27734H275.417L275.125 2.75928L275.98 3.27734ZM307.23 3.27734H308.23V2.27734H307.23V3.27734ZM307.23 91.7539H306.23V92.7539H307.23V91.7539ZM323.246 91.7539H324.246V90.7539H323.246V91.7539ZM279.984 91.7539V92.7539H280.984V91.7539H279.984ZM279.984 30.6211H280.984V26.9031L279.119 30.1195L279.984 30.6211ZM244.535 91.7539L243.67 91.2523L242.799 92.7539H244.535V91.7539ZM323.246 112.531H307.23V114.531H323.246V112.531ZM306.23 113.531V144H308.23V113.531H306.23ZM307.23 143H279.984V145H307.23V143ZM280.984 144V113.531H278.984V144H280.984ZM279.984 112.531H223.93V114.531H279.984V112.531ZM224.93 113.531V89.2148H222.93V113.531H224.93ZM224.785 89.7329L276.836 3.79541L275.125 2.75928L223.074 88.6968L224.785 89.7329ZM275.98 4.27734H307.23V2.27734H275.98V4.27734ZM306.23 3.27734V91.7539H308.23V3.27734H306.23ZM307.23 92.7539H323.246V90.7539H307.23V92.7539ZM322.246 91.7539V113.531H324.246V91.7539H322.246ZM280.984 91.7539V30.6211H278.984V91.7539H280.984ZM279.119 30.1195L243.67 91.2523L245.4 92.2555L280.849 31.1227L279.119 30.1195ZM244.535 92.7539H279.984V90.7539H244.535V92.7539Z" fill="#1670E4" fill-opacity="0.3"/>
</svg>
