<svg width="35" height="32" viewBox="0 0 35 32" fill="none" xmlns="http://www.w3.org/2000/svg">
<path d="M35 8.34483C35 8.09195 34.9715 7.83333 34.9146 7.56897C34.8576 7.3046 34.7493 6.99425 34.5898 6.63793C34.4303 6.28161 34.1569 5.95402 33.7695 5.65517C33.3822 5.35632 32.9036 5.12644 32.334 4.96552L7.62207 0C7.02962 0 6.48275 0.149425 5.98145 0.448276C5.48014 0.747126 5.08138 1.14943 4.78516 1.65517C4.48893 2.16092 4.34082 2.71264 4.34082 3.31034V7.72414H3.24707C2.3584 7.74713 1.59505 8.08046 0.957031 8.72414C0.31901 9.36782 0 10.1379 0 11.0345V28.6897C0 29.6092 0.31901 30.3908 0.957031 31.0345C1.59505 31.6782 2.36979 32 3.28125 32H31.7188C32.6302 32 33.4049 31.6782 34.043 31.0345C34.681 30.3908 35 29.6092 35 28.6897V8.34483ZM6.52832 3.31034C6.52832 3.01149 6.62516 2.75862 6.81885 2.55172C7.01253 2.34483 7.25749 2.22989 7.55371 2.2069L31.6846 7.13793L31.5991 7.2931L31.2573 7.60345L30.625 7.72414H6.52832V3.31034ZM32.8125 28.6897C32.8125 28.9885 32.7043 29.2471 32.4878 29.4655C32.2713 29.6839 32.015 29.7931 31.7188 29.7931H3.28125C2.98503 29.7931 2.72868 29.6839 2.51221 29.4655C2.29574 29.2471 2.1875 28.9885 2.1875 28.6897V11.0345C2.1875 10.7356 2.29574 10.477 2.51221 10.2586C2.72868 10.0402 2.98503 9.93103 3.28125 9.93103H30.625C31.2174 9.93103 31.7301 9.83333 32.1631 9.63793C32.596 9.44253 32.8125 9.17241 32.8125 8.82759V28.6897ZM6.54541 17.6552C5.94157 17.6552 5.42887 17.8736 5.00732 18.3103C4.58577 18.7471 4.375 19.2701 4.375 19.8793C4.375 20.4885 4.58577 21.0057 5.00732 21.431C5.42887 21.8563 5.94157 22.069 6.54541 22.069C7.14925 22.069 7.66764 21.8563 8.10059 21.431C8.53353 21.0057 8.75 20.4885 8.75 19.8793C8.75 19.2701 8.53353 18.7471 8.10059 18.3103C7.66764 17.8736 7.14925 17.6552 6.54541 17.6552Z" fill="black"/>
</svg>
