<svg width="35" height="27" viewBox="0 0 35 27" fill="none" xmlns="http://www.w3.org/2000/svg">
<path d="M31.6814 0L1.41075 5.4H15.8786L29.6966 2.9376L30.1143 5.4H32.5963L31.6802 0H31.6814ZM0 6.67059V27H34.2V6.67059H0ZM6.03141 9.21177H28.1698C28.123 9.42018 28.0972 9.63309 28.0929 9.84706C28.0929 10.6895 28.4146 11.4975 28.9872 12.0932C29.5599 12.6889 30.3366 13.0235 31.1464 13.0235C31.3577 13.0235 31.5581 12.9854 31.7571 12.9435V20.7271C31.5568 20.6784 31.3521 20.6516 31.1464 20.6471C30.3366 20.6471 29.5599 20.9817 28.9872 21.5774C28.4146 22.1731 28.0929 22.9811 28.0929 23.8235C28.0929 24.0433 28.1295 24.2517 28.1698 24.4588H6.03141C6.07172 24.2517 6.10714 24.0433 6.10714 23.8235C6.10714 23.4064 6.02816 22.9933 5.8747 22.6079C5.72125 22.2226 5.49632 21.8724 5.21277 21.5774C4.92922 21.2825 4.5926 21.0485 4.22212 20.8889C3.85165 20.7292 3.45457 20.6471 3.05357 20.6471C2.84226 20.6471 2.64195 20.6852 2.44286 20.7271V12.9448C2.64195 12.9867 2.84226 13.0235 3.05357 13.0235C3.45457 13.0235 3.85165 12.9414 4.22212 12.7817C4.5926 12.6221 4.92922 12.3881 5.21277 12.0932C5.49632 11.7982 5.72125 11.448 5.8747 11.0626C6.02816 10.6773 6.10714 10.2642 6.10714 9.84706C6.10714 9.62725 6.0705 9.41887 6.03019 9.21177H6.03141ZM17.1 10.4824C13.7411 10.4824 10.9929 13.3412 10.9929 16.8353C10.9929 20.3294 13.7411 23.1882 17.1 23.1882C20.4589 23.1882 23.2071 20.3294 23.2071 16.8353C23.2071 13.3412 20.4589 10.4824 17.1 10.4824ZM17.1 13.0235C19.1398 13.0235 20.7643 14.7134 20.7643 16.8353C20.7643 18.9572 19.1398 20.6471 17.1 20.6471C15.0602 20.6471 13.4357 18.9572 13.4357 16.8353C13.4357 14.7134 15.0602 13.0235 17.1 13.0235Z" fill="black"/>
</svg>
