<svg width="26" height="18" viewBox="0 0 26 18" fill="none" xmlns="http://www.w3.org/2000/svg">
<rect y="8" width="17" height="2" rx="1" fill="#150909"/>
<rect x="22" y="8" width="4" height="2" rx="1" fill="#150909"/>
<rect y="2" width="4" height="2" rx="1" fill="#150909"/>
<path d="M17.6242 8.02959C17.2794 7.59809 17.3498 6.96885 17.7813 6.62414C18.2128 6.27943 18.842 6.34979 19.1868 6.78129L21.6834 9.90649C22.0281 10.338 21.9577 10.9672 21.5262 11.3119C21.0947 11.6567 20.4655 11.5863 20.1208 11.1548L17.6242 8.02959Z" fill="#150909"/>
<rect x="13" y="2" width="13" height="2" rx="1" fill="#150909"/>
<path d="M4.62415 2.02959C4.27944 1.59809 4.3498 0.968848 4.7813 0.624138C5.2128 0.279427 5.84205 0.349785 6.18676 0.781286L8.68337 3.90649C9.02808 4.33799 8.95772 4.96724 8.52622 5.31195C8.09472 5.65666 7.46548 5.5863 7.12077 5.1548L4.62415 2.02959Z" fill="#150909"/>
<path d="M8.62415 2.02959C8.27944 1.59809 8.3498 0.968848 8.7813 0.624138C9.2128 0.279427 9.84205 0.349785 10.1868 0.781286L12.6834 3.90649C13.0281 4.33799 12.9577 4.96724 12.5262 5.31195C12.0947 5.65666 11.4655 5.5863 11.1208 5.1548L8.62415 2.02959Z" fill="#150909"/>
<rect y="14" width="4" height="2" rx="1" fill="#150909"/>
<rect x="13" y="14" width="13" height="2" rx="1" fill="#150909"/>
<path d="M4.62415 14.0296C4.27944 13.5981 4.3498 12.9688 4.7813 12.6241C5.2128 12.2794 5.84205 12.3498 6.18676 12.7813L8.68337 15.9065C9.02808 16.338 8.95772 16.9672 8.52622 17.3119C8.09472 17.6567 7.46548 17.5863 7.12077 17.1548L4.62415 14.0296Z" fill="#150909"/>
<path d="M8.62415 14.0296C8.27944 13.5981 8.3498 12.9688 8.7813 12.6241C9.2128 12.2794 9.84205 12.3498 10.1868 12.7813L12.6834 15.9065C13.0281 16.338 12.9577 16.9672 12.5262 17.3119C12.0947 17.6567 11.4655 17.5863 11.1208 17.1548L8.62415 14.0296Z" fill="#150909"/>
</svg>
