<svg width="82" height="55" viewBox="0 0 82 55" fill="none" xmlns="http://www.w3.org/2000/svg">
<path d="M9.35429 46.6514C9.78046 49.0061 10.9258 50.9862 12.7902 52.5917C14.6547 54.1972 16.7589 55 19.1028 55H62.8911C65.235 55 67.3392 54.1972 69.2037 52.5917C71.0681 50.9862 72.2135 49.0061 72.6396 46.6514L81.9087 4.26605C82.1218 3.30275 81.962 2.39297 81.4292 1.5367C80.8965 0.680428 80.1508 0.198777 79.1919 0.0917431C78.233 -0.122324 77.3274 0.0382263 76.4751 0.573394C75.6228 1.10856 75.1433 1.8578 75.0368 2.8211L72.32 16.3073C72.2135 16.0933 71.9737 15.8524 71.6008 15.5849C71.228 15.3173 70.935 15.0765 70.7219 14.8624C68.1649 11.8654 65.0752 10.367 61.4528 10.367C57.8304 10.367 54.7407 11.8654 52.1838 14.8624C50.6922 16.4679 49.2539 17.2706 47.8688 17.2706C46.4838 17.2706 44.9922 16.4679 43.3941 14.8624C40.8371 11.8654 37.7475 10.367 34.1251 10.367C30.3961 10.367 27.3597 11.8654 25.0158 14.8624C23.4177 16.4679 21.9261 17.2706 20.5411 17.2706C19.1561 17.2706 17.6645 16.4679 16.0664 14.8624C13.9356 12.5076 11.4318 11.0092 8.55524 10.367L6.95712 2.8211C6.74404 1.96483 6.21134 1.26911 5.35901 0.733945C4.50668 0.198777 3.65435 -0.0152905 2.80203 0.0917431C1.9497 0.198777 1.23055 0.707186 0.644573 1.61697C0.0585975 2.52676 -0.127849 3.40979 0.0852328 4.26605L9.35429 46.6514ZM11.272 19.6789C13.829 22.6758 16.9187 24.1743 20.5411 24.1743C24.1635 24.1743 27.2532 22.6758 29.8102 19.6789C31.3017 18.0734 32.74 17.2706 34.1251 17.2706C35.5101 17.2706 37.0017 18.0734 38.5998 19.6789C41.5829 22.6758 44.6726 24.1743 47.8688 24.1743C51.5978 24.1743 54.6342 22.6758 56.9781 19.6789C58.5762 18.0734 60.0678 17.2706 61.4528 17.2706C62.8378 17.2706 64.3294 18.0734 65.9275 19.6789C67.7387 21.4985 69.4434 22.7294 71.0415 23.3716L66.2472 45.367C65.9275 47.1865 64.8089 48.0963 62.8911 48.0963H19.1028C17.1851 48.0963 16.0664 47.1865 15.7468 45.367L10.3132 18.7156L11.272 19.6789Z" fill="black"/>
</svg>
