<svg width="64" height="55" viewBox="0 0 64 55" fill="none" xmlns="http://www.w3.org/2000/svg">
<path d="M29.375 27.5H42.625C43.4583 27.5 44.125 27.2418 44.625 26.7254C45.125 26.2089 45.375 25.5634 45.375 24.7887C45.375 22.8951 44.4583 21.9484 42.625 21.9484H29.375C21.2917 21.9484 14.375 24.8963 8.625 30.7923C2.875 36.6882 0 43.8537 0 52.2887C0 54.0962 0.875 55 2.625 55H61.375C62.2083 55 62.9167 54.6557 63.5 53.9671C63.8333 53.6228 64 52.8052 64 51.5141L53.375 11.7488C52.4583 8.30595 50.5625 5.48709 47.6875 3.29225C44.8125 1.09742 41.625 0 38.125 0H24C22.25 0 21.375 0.903756 21.375 2.71127C21.375 4.51878 22.25 5.42254 24 5.42254H38.125C40.4583 5.42254 42.5625 6.17566 44.4375 7.68192C46.3125 9.18818 47.5833 11.1033 48.25 13.4272L57.875 49.5775H5.625C6.29167 43.3803 8.89583 38.1514 13.4375 33.8908C17.9792 29.6303 23.2917 27.5 29.375 27.5Z" fill="black"/>
</svg>
