<svg width="244" height="27" viewBox="0 0 244 27" fill="none" xmlns="http://www.w3.org/2000/svg">
<path d="M5.5 12.84H6.8C8.24 12.84 8.96 12.2133 8.96 10.96C8.96 9.70667 8.24 9.08 6.8 9.08H5.5V12.84ZM5.5 21H1.58V5.92H7.82C9.51333 5.92 10.8067 6.36 11.7 7.24C12.6067 8.12 13.06 9.36 13.06 10.96C13.06 12.56 12.6067 13.8 11.7 14.68C10.8067 15.56 9.51333 16 7.82 16H5.5V21ZM112.703 19.08C112.703 18.76 112.763 18.46 112.883 18.18C113.003 17.8867 113.17 17.6333 113.383 17.42C113.596 17.2067 113.843 17.04 114.123 16.92C114.416 16.8 114.723 16.74 115.043 16.74C115.363 16.74 115.663 16.8 115.943 16.92C116.236 17.04 116.49 17.2067 116.703 17.42C116.916 17.6333 117.083 17.8867 117.203 18.18C117.323 18.46 117.383 18.76 117.383 19.08C117.383 19.4 117.323 19.7067 117.203 20C117.083 20.28 116.916 20.5267 116.703 20.74C116.49 20.9533 116.236 21.12 115.943 21.24C115.663 21.36 115.363 21.42 115.043 21.42C114.723 21.42 114.416 21.36 114.123 21.24C113.843 21.12 113.596 20.9533 113.383 20.74C113.17 20.5267 113.003 20.28 112.883 20C112.763 19.7067 112.703 19.4 112.703 19.08ZM129.1 9.78C128.673 9.43333 128.247 9.18 127.82 9.02C127.393 8.84667 126.98 8.76 126.58 8.76C126.073 8.76 125.66 8.88 125.34 9.12C125.02 9.36 124.86 9.67333 124.86 10.06C124.86 10.3267 124.94 10.5467 125.1 10.72C125.26 10.8933 125.467 11.0467 125.72 11.18C125.987 11.3 126.28 11.4067 126.6 11.5C126.933 11.5933 127.26 11.6933 127.58 11.8C128.86 12.2267 129.793 12.8 130.38 13.52C130.98 14.2267 131.28 15.1533 131.28 16.3C131.28 17.0733 131.147 17.7733 130.88 18.4C130.627 19.0267 130.247 19.5667 129.74 20.02C129.247 20.46 128.633 20.8 127.9 21.04C127.18 21.2933 126.36 21.42 125.44 21.42C123.533 21.42 121.767 20.8533 120.14 19.72L121.82 16.56C122.407 17.08 122.987 17.4667 123.56 17.72C124.133 17.9733 124.7 18.1 125.26 18.1C125.9 18.1 126.373 17.9533 126.68 17.66C127 17.3667 127.16 17.0333 127.16 16.66C127.16 16.4333 127.12 16.24 127.04 16.08C126.96 15.9067 126.827 15.7533 126.64 15.62C126.453 15.4733 126.207 15.34 125.9 15.22C125.607 15.1 125.247 14.9667 124.82 14.82C124.313 14.66 123.813 14.4867 123.32 14.3C122.84 14.1 122.407 13.84 122.02 13.52C121.647 13.2 121.34 12.8 121.1 12.32C120.873 11.8267 120.76 11.2067 120.76 10.46C120.76 9.71333 120.88 9.04 121.12 8.44C121.373 7.82667 121.72 7.30667 122.16 6.88C122.613 6.44 123.16 6.1 123.8 5.86C124.453 5.62 125.18 5.5 125.98 5.5C126.727 5.5 127.507 5.60667 128.32 5.82C129.133 6.02 129.913 6.32 130.66 6.72L129.1 9.78ZM138.47 11.74H144.13V5.92H148.05V21H144.13V14.78H138.47V21H134.55V5.92H138.47V11.74ZM155.43 13.46C155.43 14.06 155.543 14.6133 155.77 15.12C155.996 15.6267 156.303 16.0667 156.69 16.44C157.076 16.8133 157.523 17.1067 158.03 17.32C158.55 17.52 159.096 17.62 159.67 17.62C160.243 17.62 160.783 17.52 161.29 17.32C161.81 17.1067 162.263 16.8133 162.65 16.44C163.05 16.0667 163.363 15.6267 163.59 15.12C163.816 14.6133 163.93 14.06 163.93 13.46C163.93 12.86 163.816 12.3067 163.59 11.8C163.363 11.2933 163.05 10.8533 162.65 10.48C162.263 10.1067 161.81 9.82 161.29 9.62C160.783 9.40667 160.243 9.3 159.67 9.3C159.096 9.3 158.55 9.40667 158.03 9.62C157.523 9.82 157.076 10.1067 156.69 10.48C156.303 10.8533 155.996 11.2933 155.77 11.8C155.543 12.3067 155.43 12.86 155.43 13.46ZM151.33 13.46C151.33 12.34 151.536 11.3 151.95 10.34C152.363 9.36667 152.936 8.52 153.67 7.8C154.403 7.08 155.276 6.52 156.29 6.12C157.316 5.70667 158.443 5.5 159.67 5.5C160.883 5.5 162.003 5.70667 163.03 6.12C164.056 6.52 164.936 7.08 165.67 7.8C166.416 8.52 166.996 9.36667 167.41 10.34C167.823 11.3 168.03 12.34 168.03 13.46C168.03 14.58 167.823 15.6267 167.41 16.6C166.996 17.56 166.416 18.4 165.67 19.12C164.936 19.84 164.056 20.4067 163.03 20.82C162.003 21.22 160.883 21.42 159.67 21.42C158.443 21.42 157.316 21.22 156.29 20.82C155.276 20.4067 154.403 19.84 153.67 19.12C152.936 18.4 152.363 17.56 151.95 16.6C151.536 15.6267 151.33 14.58 151.33 13.46ZM175.226 12.84H176.526C177.966 12.84 178.686 12.2133 178.686 10.96C178.686 9.70667 177.966 9.08 176.526 9.08H175.226V12.84ZM175.226 21H171.306V5.92H177.546C179.239 5.92 180.532 6.36 181.426 7.24C182.332 8.12 182.786 9.36 182.786 10.96C182.786 12.56 182.332 13.8 181.426 14.68C180.532 15.56 179.239 16 177.546 16H175.226V21ZM189.58 12.84H190.88C192.32 12.84 193.04 12.2133 193.04 10.96C193.04 9.70667 192.32 9.08 190.88 9.08H189.58V12.84ZM189.58 21H185.66V5.92H191.9C193.594 5.92 194.887 6.36 195.78 7.24C196.687 8.12 197.14 9.36 197.14 10.96C197.14 12.56 196.687 13.8 195.78 14.68C194.887 15.56 193.594 16 191.9 16H189.58V21ZM203.935 5.92V21H200.015V5.92H203.935ZM207.885 21V5.92H211.805L219.045 15.14V5.92H222.945V21H219.045L211.805 11.78V21H207.885ZM234.522 12.56H242.302C242.302 13.36 242.268 14.0867 242.202 14.74C242.135 15.3933 242.002 16 241.802 16.56C241.522 17.3467 241.142 18.0467 240.662 18.66C240.182 19.26 239.615 19.7667 238.962 20.18C238.322 20.58 237.615 20.8867 236.842 21.1C236.068 21.3133 235.255 21.42 234.402 21.42C233.228 21.42 232.155 21.2267 231.182 20.84C230.222 20.4533 229.395 19.9133 228.702 19.22C228.008 18.5133 227.468 17.6733 227.082 16.7C226.695 15.7133 226.502 14.6267 226.502 13.44C226.502 12.2667 226.688 11.1933 227.062 10.22C227.448 9.23333 227.988 8.39333 228.682 7.7C229.388 7.00667 230.235 6.46667 231.222 6.08C232.208 5.69333 233.308 5.5 234.522 5.5C236.095 5.5 237.475 5.84 238.662 6.52C239.848 7.2 240.788 8.25333 241.482 9.68L237.762 11.22C237.415 10.3933 236.962 9.8 236.402 9.44C235.855 9.08 235.228 8.9 234.522 8.9C233.935 8.9 233.402 9.01333 232.922 9.24C232.442 9.45333 232.028 9.76667 231.682 10.18C231.348 10.58 231.082 11.0667 230.882 11.64C230.695 12.2133 230.602 12.8533 230.602 13.56C230.602 14.2 230.682 14.7933 230.842 15.34C231.015 15.8867 231.268 16.36 231.602 16.76C231.935 17.16 232.348 17.4733 232.842 17.7C233.335 17.9133 233.908 18.02 234.562 18.02C234.948 18.02 235.322 17.98 235.682 17.9C236.042 17.8067 236.362 17.6667 236.642 17.48C236.935 17.28 237.175 17.0267 237.362 16.72C237.548 16.4133 237.675 16.04 237.742 15.6H234.522V12.56Z" fill="#FF0000"/>
<path d="M24.5147 9.24H19.8547V11.76H24.2547V15.08H19.8547V17.68H24.5147V21H15.9347V5.92H24.5147V9.24ZM51.7606 9.24H47.0406V11.76H51.3406V15.08H47.0406V21H43.1206V5.92H51.7606V9.24ZM77.9634 10.96C77.0568 9.85333 75.9368 9.3 74.6034 9.3C74.0168 9.3 73.4701 9.40667 72.9634 9.62C72.4701 9.83333 72.0434 10.1267 71.6834 10.5C71.3234 10.86 71.0368 11.2933 70.8234 11.8C70.6234 12.3067 70.5234 12.8533 70.5234 13.44C70.5234 14.04 70.6234 14.5933 70.8234 15.1C71.0368 15.6067 71.3234 16.0467 71.6834 16.42C72.0568 16.7933 72.4901 17.0867 72.9834 17.3C73.4768 17.5133 74.0101 17.62 74.5834 17.62C75.8368 17.62 76.9634 17.0867 77.9634 16.02V20.66L77.5634 20.8C76.9634 21.0133 76.4034 21.1667 75.8834 21.26C75.3634 21.3667 74.8501 21.42 74.3434 21.42C73.3034 21.42 72.3034 21.2267 71.3434 20.84C70.3968 20.44 69.5568 19.8867 68.8234 19.18C68.1034 18.46 67.5234 17.6133 67.0834 16.64C66.6434 15.6533 66.4234 14.58 66.4234 13.42C66.4234 12.26 66.6368 11.2 67.0634 10.24C67.5034 9.26667 68.0834 8.43333 68.8034 7.74C69.5368 7.03333 70.3834 6.48667 71.3434 6.1C72.3034 5.7 73.3101 5.5 74.3634 5.5C74.9634 5.5 75.5501 5.56667 76.1234 5.7C76.7101 5.82 77.3234 6.01333 77.9634 6.28V10.96Z" fill="white"/>
<path d="M32.0609 12.66H32.8009C33.5743 12.66 34.1676 12.5 34.5809 12.18C34.9943 11.86 35.2009 11.4 35.2009 10.8C35.2009 10.2 34.9943 9.74 34.5809 9.42C34.1676 9.1 33.5743 8.94 32.8009 8.94H32.0609V12.66ZM40.6809 21H35.8009L32.0609 15.2V21H28.1409V5.92H34.2409C35.0809 5.92 35.8143 6.04667 36.4409 6.3C37.0676 6.54 37.5809 6.87333 37.9809 7.3C38.3943 7.72667 38.7009 8.22 38.9009 8.78C39.1143 9.34 39.2209 9.94 39.2209 10.58C39.2209 11.7267 38.9409 12.66 38.3809 13.38C37.8343 14.0867 37.0209 14.5667 35.9409 14.82L40.6809 21Z" fill="#FFF600"/>
<path d="M63.4772 9.24H58.8172V11.76H63.2172V15.08H58.8172V17.68H63.4772V21H54.8972V5.92H63.4772V9.24Z" fill="#00FF29"/>
<path d="M87.5633 9.24V21H83.6433V9.24H80.4233V5.92H90.7833V9.24H87.5633Z" fill="#009BFD"/>
<path d="M97.3469 13.46C97.3469 14.06 97.4602 14.6133 97.6869 15.12C97.9135 15.6267 98.2202 16.0667 98.6069 16.44C98.9935 16.8133 99.4402 17.1067 99.9469 17.32C100.467 17.52 101.014 17.62 101.587 17.62C102.16 17.62 102.7 17.52 103.207 17.32C103.727 17.1067 104.18 16.8133 104.567 16.44C104.967 16.0667 105.28 15.6267 105.507 15.12C105.734 14.6133 105.847 14.06 105.847 13.46C105.847 12.86 105.734 12.3067 105.507 11.8C105.28 11.2933 104.967 10.8533 104.567 10.48C104.18 10.1067 103.727 9.82 103.207 9.62C102.7 9.40667 102.16 9.3 101.587 9.3C101.014 9.3 100.467 9.40667 99.9469 9.62C99.4402 9.82 98.9935 10.1067 98.6069 10.48C98.2202 10.8533 97.9135 11.2933 97.6869 11.8C97.4602 12.3067 97.3469 12.86 97.3469 13.46ZM93.2469 13.46C93.2469 12.34 93.4535 11.3 93.8669 10.34C94.2802 9.36667 94.8535 8.52 95.5869 7.8C96.3202 7.08 97.1935 6.52 98.2069 6.12C99.2335 5.70667 100.36 5.5 101.587 5.5C102.8 5.5 103.92 5.70667 104.947 6.12C105.974 6.52 106.854 7.08 107.587 7.8C108.334 8.52 108.914 9.36667 109.327 10.34C109.74 11.3 109.947 12.34 109.947 13.46C109.947 14.58 109.74 15.6267 109.327 16.6C108.914 17.56 108.334 18.4 107.587 19.12C106.854 19.84 105.974 20.4067 104.947 20.82C103.92 21.22 102.8 21.42 101.587 21.42C100.36 21.42 99.2335 21.22 98.2069 20.82C97.1935 20.4067 96.3202 19.84 95.5869 19.12C94.8535 18.4 94.2802 17.56 93.8669 16.6C93.4535 15.6267 93.2469 14.58 93.2469 13.46Z" fill="#F000FF"/>
<path d="M5.5 12.84H5.1V13.24H5.5V12.84ZM5.5 9.08V8.68H5.1V9.08H5.5ZM5.5 21V21.4H5.9V21H5.5ZM1.58 21H1.18V21.4H1.58V21ZM1.58 5.92V5.52H1.18V5.92H1.58ZM11.7 7.24L11.4193 7.52497L11.4214 7.52703L11.7 7.24ZM11.7 14.68L11.4214 14.393L11.4193 14.395L11.7 14.68ZM5.5 16V15.6H5.1V16H5.5ZM5.5 13.24H6.8V12.44H5.5V13.24ZM6.8 13.24C7.56908 13.24 8.22059 13.0738 8.68261 12.6717C9.15524 12.2604 9.36 11.6639 9.36 10.96H8.56C8.56 11.5094 8.40476 11.853 8.15739 12.0683C7.89941 12.2928 7.47092 12.44 6.8 12.44V13.24ZM9.36 10.96C9.36 10.2561 9.15524 9.65964 8.68261 9.24828C8.22059 8.84615 7.56908 8.68 6.8 8.68V9.48C7.47092 9.48 7.89941 9.62718 8.15739 9.85172C8.40476 10.067 8.56 10.4106 8.56 10.96H9.36ZM6.8 8.68H5.5V9.48H6.8V8.68ZM5.1 9.08V12.84H5.9V9.08H5.1ZM5.5 20.6H1.58V21.4H5.5V20.6ZM1.98 21V5.92H1.18V21H1.98ZM1.58 6.32H7.82V5.52H1.58V6.32ZM7.82 6.32C9.44605 6.32 10.624 6.74151 11.4193 7.52496L11.9807 6.95504C10.9894 5.97849 9.58061 5.52 7.82 5.52V6.32ZM11.4214 7.52703C12.231 8.31286 12.66 9.43772 12.66 10.96H13.46C13.46 9.28228 12.9823 7.92714 11.9786 6.95297L11.4214 7.52703ZM12.66 10.96C12.66 12.4823 12.231 13.6071 11.4214 14.393L11.9786 14.967C12.9823 13.9929 13.46 12.6377 13.46 10.96H12.66ZM11.4193 14.395C10.624 15.1785 9.44605 15.6 7.82 15.6V16.4C9.58061 16.4 10.9894 15.9415 11.9807 14.965L11.4193 14.395ZM7.82 15.6H5.5V16.4H7.82V15.6ZM5.1 16V21H5.9V16H5.1ZM24.5147 9.24V9.64H24.9147V9.24H24.5147ZM19.8547 9.24V8.84H19.4547V9.24H19.8547ZM19.8547 11.76H19.4547V12.16H19.8547V11.76ZM24.2547 11.76H24.6547V11.36H24.2547V11.76ZM24.2547 15.08V15.48H24.6547V15.08H24.2547ZM19.8547 15.08V14.68H19.4547V15.08H19.8547ZM19.8547 17.68H19.4547V18.08H19.8547V17.68ZM24.5147 17.68H24.9147V17.28H24.5147V17.68ZM24.5147 21V21.4H24.9147V21H24.5147ZM15.9347 21H15.5347V21.4H15.9347V21ZM15.9347 5.92V5.52H15.5347V5.92H15.9347ZM24.5147 5.92H24.9147V5.52H24.5147V5.92ZM24.5147 8.84H19.8547V9.64H24.5147V8.84ZM19.4547 9.24V11.76H20.2547V9.24H19.4547ZM19.8547 12.16H24.2547V11.36H19.8547V12.16ZM23.8547 11.76V15.08H24.6547V11.76H23.8547ZM24.2547 14.68H19.8547V15.48H24.2547V14.68ZM19.4547 15.08V17.68H20.2547V15.08H19.4547ZM19.8547 18.08H24.5147V17.28H19.8547V18.08ZM24.1147 17.68V21H24.9147V17.68H24.1147ZM24.5147 20.6H15.9347V21.4H24.5147V20.6ZM16.3347 21V5.92H15.5347V21H16.3347ZM15.9347 6.32H24.5147V5.52H15.9347V6.32ZM24.1147 5.92V9.24H24.9147V5.92H24.1147ZM32.0609 12.66H31.6609V13.06H32.0609V12.66ZM34.5809 12.18L34.8258 12.4963H34.8258L34.5809 12.18ZM34.5809 9.42L34.8258 9.10371H34.8258L34.5809 9.42ZM32.0609 8.94V8.54H31.6609V8.94H32.0609ZM40.6809 21V21.4H41.4918L40.9983 20.7566L40.6809 21ZM35.8009 21L35.4648 21.2168L35.5829 21.4H35.8009V21ZM32.0609 15.2L32.3971 14.9832L31.6609 13.8416V15.2H32.0609ZM32.0609 21V21.4H32.4609V21H32.0609ZM28.1409 21H27.7409V21.4H28.1409V21ZM28.1409 5.92V5.52H27.7409V5.92H28.1409ZM36.4409 6.3L36.291 6.67091L36.2979 6.67354L36.4409 6.3ZM37.9809 7.3L37.6891 7.57361L37.6936 7.57832L37.9809 7.3ZM38.9009 8.78L38.5242 8.91456L38.5271 8.9224L38.9009 8.78ZM38.3809 13.38L38.0652 13.1344L38.0646 13.1353L38.3809 13.38ZM35.9409 14.82L35.8496 14.4306L35.2466 14.572L35.6235 15.0634L35.9409 14.82ZM32.0609 13.06H32.8009V12.26H32.0609V13.06ZM32.8009 13.06C33.6222 13.06 34.3158 12.8911 34.8258 12.4963L34.3361 11.8637C34.0194 12.1089 33.5264 12.26 32.8009 12.26V13.06ZM34.8258 12.4963C35.3523 12.0887 35.6009 11.503 35.6009 10.8H34.8009C34.8009 11.297 34.6362 11.6313 34.3361 11.8637L34.8258 12.4963ZM35.6009 10.8C35.6009 10.097 35.3523 9.51131 34.8258 9.10371L34.3361 9.73629C34.6362 9.96869 34.8009 10.303 34.8009 10.8H35.6009ZM34.8258 9.10371C34.3158 8.70888 33.6222 8.54 32.8009 8.54V9.34C33.5264 9.34 34.0194 9.49111 34.3361 9.73629L34.8258 9.10371ZM32.8009 8.54H32.0609V9.34H32.8009V8.54ZM31.6609 8.94V12.66H32.4609V8.94H31.6609ZM40.6809 20.6H35.8009V21.4H40.6809V20.6ZM36.1371 20.7832L32.3971 14.9832L31.7248 15.4168L35.4648 21.2168L36.1371 20.7832ZM31.6609 15.2V21H32.4609V15.2H31.6609ZM32.0609 20.6H28.1409V21.4H32.0609V20.6ZM28.5409 21V5.92H27.7409V21H28.5409ZM28.1409 6.32H34.2409V5.52H28.1409V6.32ZM34.2409 6.32C35.0416 6.32 35.722 6.44082 36.291 6.67084L36.5909 5.92916C35.9065 5.65251 35.1203 5.52 34.2409 5.52V6.32ZM36.2979 6.67354C36.8764 6.89509 37.3362 7.19714 37.6891 7.57358L38.2728 7.02642C37.8257 6.54953 37.2588 6.1849 36.584 5.92646L36.2979 6.67354ZM37.6936 7.57832C38.0672 7.96394 38.3434 8.40824 38.5242 8.91453L39.2776 8.64547C39.0585 8.03176 38.7213 7.48939 38.2682 7.02168L37.6936 7.57832ZM38.5271 8.9224C38.722 9.43391 38.8209 9.98533 38.8209 10.58H39.6209C39.6209 9.89467 39.5065 9.24609 39.2747 8.6376L38.5271 8.9224ZM38.8209 10.58C38.8209 11.661 38.5578 12.501 38.0652 13.1344L38.6967 13.6256C39.324 12.819 39.6209 11.7923 39.6209 10.58H38.8209ZM38.0646 13.1353C37.5866 13.7531 36.8624 14.193 35.8496 14.4306L36.0323 15.2094C37.1795 14.9403 38.082 14.4202 38.6973 13.6247L38.0646 13.1353ZM35.6235 15.0634L40.3635 21.2434L40.9983 20.7566L36.2583 14.5766L35.6235 15.0634ZM51.7606 9.24V9.64H52.1606V9.24H51.7606ZM47.0406 9.24V8.84H46.6406V9.24H47.0406ZM47.0406 11.76H46.6406V12.16H47.0406V11.76ZM51.3406 11.76H51.7406V11.36H51.3406V11.76ZM51.3406 15.08V15.48H51.7406V15.08H51.3406ZM47.0406 15.08V14.68H46.6406V15.08H47.0406ZM47.0406 21V21.4H47.4406V21H47.0406ZM43.1206 21H42.7206V21.4H43.1206V21ZM43.1206 5.92V5.52H42.7206V5.92H43.1206ZM51.7606 5.92H52.1606V5.52H51.7606V5.92ZM51.7606 8.84H47.0406V9.64H51.7606V8.84ZM46.6406 9.24V11.76H47.4406V9.24H46.6406ZM47.0406 12.16H51.3406V11.36H47.0406V12.16ZM50.9406 11.76V15.08H51.7406V11.76H50.9406ZM51.3406 14.68H47.0406V15.48H51.3406V14.68ZM46.6406 15.08V21H47.4406V15.08H46.6406ZM47.0406 20.6H43.1206V21.4H47.0406V20.6ZM43.5206 21V5.92H42.7206V21H43.5206ZM43.1206 6.32H51.7606V5.52H43.1206V6.32ZM51.3606 5.92V9.24H52.1606V5.92H51.3606ZM63.4772 9.24V9.64H63.8772V9.24H63.4772ZM58.8172 9.24V8.84H58.4172V9.24H58.8172ZM58.8172 11.76H58.4172V12.16H58.8172V11.76ZM63.2172 11.76H63.6172V11.36H63.2172V11.76ZM63.2172 15.08V15.48H63.6172V15.08H63.2172ZM58.8172 15.08V14.68H58.4172V15.08H58.8172ZM58.8172 17.68H58.4172V18.08H58.8172V17.68ZM63.4772 17.68H63.8772V17.28H63.4772V17.68ZM63.4772 21V21.4H63.8772V21H63.4772ZM54.8972 21H54.4972V21.4H54.8972V21ZM54.8972 5.92V5.52H54.4972V5.92H54.8972ZM63.4772 5.92H63.8772V5.52H63.4772V5.92ZM63.4772 8.84H58.8172V9.64H63.4772V8.84ZM58.4172 9.24V11.76H59.2172V9.24H58.4172ZM58.8172 12.16H63.2172V11.36H58.8172V12.16ZM62.8172 11.76V15.08H63.6172V11.76H62.8172ZM63.2172 14.68H58.8172V15.48H63.2172V14.68ZM58.4172 15.08V17.68H59.2172V15.08H58.4172ZM58.8172 18.08H63.4772V17.28H58.8172V18.08ZM63.0772 17.68V21H63.8772V17.68H63.0772ZM63.4772 20.6H54.8972V21.4H63.4772V20.6ZM55.2972 21V5.92H54.4972V21H55.2972ZM54.8972 6.32H63.4772V5.52H54.8972V6.32ZM63.0772 5.92V9.24H63.8772V5.92H63.0772ZM77.9634 10.96L77.654 11.2135L78.3634 12.0794V10.96H77.9634ZM72.9634 9.62L72.8082 9.25133L72.8047 9.25286L72.9634 9.62ZM71.6834 10.5L71.9663 10.7829L71.9714 10.7777L71.6834 10.5ZM70.8234 11.8L70.4547 11.6447L70.4514 11.6531L70.8234 11.8ZM70.8234 15.1L70.4513 15.2469L70.4548 15.2552L70.8234 15.1ZM71.6834 16.42L71.3955 16.6977L71.4006 16.7028L71.6834 16.42ZM72.9834 17.3L72.8247 17.6671L72.9834 17.3ZM77.9634 16.02H78.3634V15.0085L77.6716 15.7464L77.9634 16.02ZM77.9634 20.66L78.0956 21.0375L78.3634 20.9438V20.66H77.9634ZM77.5634 20.8L77.4313 20.4225L77.4294 20.4231L77.5634 20.8ZM75.8834 21.26L75.8128 20.8662L75.8031 20.8682L75.8834 21.26ZM71.3434 20.84L71.1877 21.2085L71.194 21.211L71.3434 20.84ZM68.8234 19.18L68.5405 19.4629L68.5459 19.468L68.8234 19.18ZM67.0834 16.64L66.7181 16.8029L66.7189 16.8048L67.0834 16.64ZM67.0634 10.24L66.6989 10.0752L66.6979 10.0775L67.0634 10.24ZM68.8034 7.74L69.0809 8.02813L69.081 8.02803L68.8034 7.74ZM71.3434 6.1L71.4929 6.47106L71.4973 6.46923L71.3434 6.1ZM76.1234 5.7L76.0328 6.08974L76.0433 6.09189L76.1234 5.7ZM77.9634 6.28H78.3634V6.01333L78.1173 5.91077L77.9634 6.28ZM78.2729 10.7065C77.2966 9.51484 76.0663 8.9 74.6034 8.9V9.7C75.8072 9.7 76.817 10.1918 77.654 11.2135L78.2729 10.7065ZM74.6034 8.9C73.9671 8.9 73.3673 9.01596 72.8082 9.25135L73.1187 9.98865C73.573 9.79737 74.0665 9.7 74.6034 9.7V8.9ZM72.8047 9.25286C72.2646 9.48641 71.7936 9.80955 71.3955 10.2223L71.9714 10.7777C72.2933 10.4438 72.6756 10.1803 73.1222 9.98714L72.8047 9.25286ZM71.4006 10.2172C71.0012 10.6166 70.6866 11.0943 70.4548 11.6448L71.1921 11.9552C71.387 11.4924 71.6457 11.1034 71.9663 10.7828L71.4006 10.2172ZM70.4514 11.6531C70.2315 12.2101 70.1234 12.807 70.1234 13.44H70.9234C70.9234 12.8997 71.0153 12.4033 71.1955 11.9469L70.4514 11.6531ZM70.1234 13.44C70.1234 14.0852 70.2311 14.6889 70.4514 15.2469L71.1955 14.9531C71.0157 14.4978 70.9234 13.9948 70.9234 13.44H70.1234ZM70.4548 15.2552C70.6861 15.8046 70.9993 16.2867 71.3955 16.6977L71.9714 16.1423C71.6476 15.8066 71.3875 15.4088 71.1921 14.9448L70.4548 15.2552ZM71.4006 16.7028C71.8102 17.1125 72.2859 17.4342 72.8247 17.6671L73.1422 16.9329C72.6943 16.7392 72.3033 16.4742 71.9663 16.1372L71.4006 16.7028ZM72.8247 17.6671C73.3714 17.9036 73.9592 18.02 74.5834 18.02V17.22C74.061 17.22 73.5821 17.1231 73.1422 16.9329L72.8247 17.6671ZM74.5834 18.02C75.9659 18.02 77.1934 17.4262 78.2553 16.2936L77.6716 15.7464C76.7335 16.7471 75.7076 17.22 74.5834 17.22V18.02ZM77.5634 16.02V20.66H78.3634V16.02H77.5634ZM77.8313 20.2825L77.4313 20.4225L77.6956 21.1775L78.0956 21.0375L77.8313 20.2825ZM77.4294 20.4231C76.846 20.6306 76.3074 20.7775 75.8128 20.8663L75.9541 21.6537C76.4995 21.5558 77.0809 21.3961 77.6974 21.1769L77.4294 20.4231ZM75.8031 20.8682C75.3083 20.9697 74.8219 21.02 74.3434 21.02V21.82C74.8784 21.82 75.4186 21.7637 75.9638 21.6518L75.8031 20.8682ZM74.3434 21.02C73.3544 21.02 72.4051 20.8364 71.4929 20.469L71.194 21.211C72.2017 21.6169 73.2525 21.82 74.3434 21.82V21.02ZM71.4991 20.4715C70.5973 20.0905 69.7987 19.5643 69.101 18.892L68.5459 19.468C69.3149 20.2091 70.1963 20.7895 71.1878 21.2085L71.4991 20.4715ZM69.1063 18.8972C68.422 18.2129 67.869 17.4068 67.4479 16.4752L66.7189 16.8048C67.1778 17.8199 67.7848 18.7071 68.5406 19.4628L69.1063 18.8972ZM67.4488 16.4771C67.0333 15.5454 66.8234 14.5281 66.8234 13.42H66.0234C66.0234 14.6319 66.2536 15.7613 66.7181 16.8029L67.4488 16.4771ZM66.8234 13.42C66.8234 12.3101 67.0273 11.3062 67.429 10.4025L66.6979 10.0775C66.2462 11.0938 66.0234 12.2099 66.0234 13.42H66.8234ZM67.4279 10.4048C67.8485 9.4745 68.3999 8.68388 69.0809 8.02813L68.526 7.45187C67.767 8.18279 67.1584 9.05883 66.699 10.0752L67.4279 10.4048ZM69.081 8.02803C69.7767 7.35759 70.5797 6.83883 71.4929 6.47103L71.194 5.72896C70.1871 6.1345 69.2968 6.70908 68.5259 7.45197L69.081 8.02803ZM71.4973 6.46923C72.4079 6.08981 73.3622 5.9 74.3634 5.9V5.1C73.258 5.1 72.199 5.31019 71.1896 5.73077L71.4973 6.46923ZM74.3634 5.9C74.9335 5.9 75.4898 5.96331 76.0328 6.0896L76.214 5.3104C75.6104 5.17002 74.9933 5.1 74.3634 5.1V5.9ZM76.0433 6.09189C76.6011 6.20599 77.1897 6.39096 77.8096 6.64923L78.1173 5.91077C77.4571 5.63571 76.8191 5.43401 76.2036 5.30811L76.0433 6.09189ZM77.5634 6.28V10.96H78.3634V6.28H77.5634ZM87.5633 9.24V8.84H87.1633V9.24H87.5633ZM87.5633 21V21.4H87.9633V21H87.5633ZM83.6433 21H83.2433V21.4H83.6433V21ZM83.6433 9.24H84.0433V8.84H83.6433V9.24ZM80.4233 9.24H80.0233V9.64H80.4233V9.24ZM80.4233 5.92V5.52H80.0233V5.92H80.4233ZM90.7833 5.92H91.1833V5.52H90.7833V5.92ZM90.7833 9.24V9.64H91.1833V9.24H90.7833ZM87.1633 9.24V21H87.9633V9.24H87.1633ZM87.5633 20.6H83.6433V21.4H87.5633V20.6ZM84.0433 21V9.24H83.2433V21H84.0433ZM83.6433 8.84H80.4233V9.64H83.6433V8.84ZM80.8233 9.24V5.92H80.0233V9.24H80.8233ZM80.4233 6.32H90.7833V5.52H80.4233V6.32ZM90.3833 5.92V9.24H91.1833V5.92H90.3833ZM90.7833 8.84H87.5633V9.64H90.7833V8.84ZM97.6869 15.12L98.052 14.9567L97.6869 15.12ZM98.6069 16.44L98.8847 16.1522L98.6069 16.44ZM99.9469 17.32L99.7916 17.6888L99.8033 17.6933L99.9469 17.32ZM103.207 17.32L103.354 17.6921L103.359 17.6901L103.207 17.32ZM104.567 16.44L104.294 16.1475L104.289 16.1522L104.567 16.44ZM105.507 15.12L105.872 15.2833L105.507 15.12ZM105.507 11.8L105.872 11.6367V11.6367L105.507 11.8ZM104.567 10.48L104.289 10.7678L104.294 10.7724L104.567 10.48ZM103.207 9.62L103.052 9.98884L103.063 9.99334L103.207 9.62ZM99.9469 9.62L100.094 9.99209L100.099 9.99007L99.9469 9.62ZM98.6069 10.48L98.8847 10.7678L98.6069 10.48ZM97.6869 11.8L98.052 11.9633H98.052L97.6869 11.8ZM93.8669 10.34L94.2343 10.4982L94.2351 10.4963L93.8669 10.34ZM95.5869 7.8L95.3066 7.51457L95.5869 7.8ZM98.2069 6.12L98.3537 6.49207L98.3563 6.49106L98.2069 6.12ZM104.947 6.12L104.797 6.49108L104.802 6.49271L104.947 6.12ZM107.587 7.8L107.307 8.08544L107.309 8.08794L107.587 7.8ZM109.327 10.34L108.959 10.4964L108.959 10.4982L109.327 10.34ZM109.327 16.6L109.694 16.7582L109.695 16.7563L109.327 16.6ZM107.587 19.12L107.309 18.8321L107.307 18.8346L107.587 19.12ZM104.947 20.82L105.092 21.1927L105.096 21.1911L104.947 20.82ZM98.2069 20.82L98.0558 21.1904L98.0617 21.1927L98.2069 20.82ZM95.5869 19.12L95.3066 19.4054L95.5869 19.12ZM93.8669 16.6L93.4987 16.7564L93.4995 16.7582L93.8669 16.6ZM96.9469 13.46C96.9469 14.1117 97.0703 14.7212 97.3218 15.2833L98.052 14.9567C97.8501 14.5054 97.7469 14.0083 97.7469 13.46H96.9469ZM97.3218 15.2833C97.5686 15.8351 97.9044 16.3178 98.329 16.7278L98.8847 16.1522C98.536 15.8156 98.2585 15.4182 98.052 14.9567L97.3218 15.2833ZM98.329 16.7278C98.7521 17.1362 99.2405 17.4566 99.7917 17.6887L100.102 16.9513C99.6399 16.7567 99.235 16.4905 98.8847 16.1522L98.329 16.7278ZM99.8033 17.6933C100.37 17.9115 100.966 18.02 101.587 18.02V17.22C101.061 17.22 100.563 17.1285 100.09 16.9467L99.8033 17.6933ZM101.587 18.02C102.208 18.02 102.798 17.9115 103.354 17.6921L103.06 16.9479C102.603 17.1285 102.113 17.22 101.587 17.22V18.02ZM103.359 17.6901C103.923 17.4584 104.42 17.1379 104.845 16.7278L104.289 16.1522C103.94 16.4888 103.53 16.7549 103.055 16.9499L103.359 17.6901ZM104.84 16.7324C105.279 16.3221 105.624 15.838 105.872 15.2833L105.142 14.9567C104.937 15.4153 104.654 15.8112 104.294 16.1476L104.84 16.7324ZM105.872 15.2833C106.123 14.7212 106.247 14.1117 106.247 13.46H105.447C105.447 14.0083 105.344 14.5054 105.142 14.9567L105.872 15.2833ZM106.247 13.46C106.247 12.8083 106.123 12.1988 105.872 11.6367L105.142 11.9633C105.344 12.4146 105.447 12.9117 105.447 13.46H106.247ZM105.872 11.6367C105.624 11.082 105.279 10.5979 104.84 10.1876L104.294 10.7724C104.654 11.1088 104.937 11.5047 105.142 11.9633L105.872 11.6367ZM104.845 10.1922C104.418 9.78031 103.919 9.46519 103.35 9.24666L103.063 9.99334C103.535 10.1748 103.942 10.433 104.289 10.7678L104.845 10.1922ZM103.362 9.25135C102.804 9.01644 102.211 8.9 101.587 8.9V9.7C102.109 9.7 102.596 9.7969 103.052 9.98865L103.362 9.25135ZM101.587 8.9C100.963 8.9 100.364 9.01643 99.7951 9.24993L100.099 9.99007C100.57 9.7969 101.065 9.7 101.587 9.7V8.9ZM99.8 9.24794C99.2453 9.46692 98.7539 9.782 98.329 10.1922L98.8847 10.7678C99.2332 10.4313 99.6352 10.1731 100.094 9.99206L99.8 9.24794ZM98.329 10.1922C97.9044 10.6022 97.5686 11.0849 97.3218 11.6367L98.052 11.9633C98.2585 11.5018 98.536 11.1044 98.8847 10.7678L98.329 10.1922ZM97.3218 11.6367C97.0703 12.1988 96.9469 12.8083 96.9469 13.46H97.7469C97.7469 12.9117 97.8501 12.4146 98.052 11.9633L97.3218 11.6367ZM93.6469 13.46C93.6469 12.3905 93.844 11.4047 94.2343 10.4982L93.4995 10.1818C93.0631 11.1953 92.8469 12.2895 92.8469 13.46H93.6469ZM94.2351 10.4963C94.6284 9.56997 95.1724 8.76752 95.8671 8.08543L95.3066 7.51457C94.5347 8.27248 93.932 9.16336 93.4987 10.1836L94.2351 10.4963ZM95.8671 8.08543C96.56 7.40516 97.3872 6.8736 98.3537 6.49206L98.06 5.74794C96.9999 6.1664 96.0804 6.75484 95.3066 7.51457L95.8671 8.08543ZM98.3563 6.49106C99.3306 6.09881 100.406 5.9 101.587 5.9V5.1C100.315 5.1 99.1365 5.31452 98.0575 5.74894L98.3563 6.49106ZM101.587 5.9C102.754 5.9 103.823 6.09861 104.797 6.49106L105.096 5.74894C104.018 5.31473 102.846 5.1 101.587 5.1V5.9ZM104.802 6.49271C105.782 6.87449 106.615 7.40604 107.307 8.08543L107.867 7.51457C107.092 6.75396 106.166 6.16551 105.092 5.74729L104.802 6.49271ZM107.309 8.08794C108.016 8.76987 108.566 9.57153 108.959 10.4963L109.695 10.1836C109.261 9.1618 108.651 8.27013 107.865 7.51206L107.309 8.08794ZM108.959 10.4982C109.35 11.4047 109.547 12.3905 109.547 13.46H110.347C110.347 12.2895 110.131 11.1953 109.694 10.1818L108.959 10.4982ZM109.547 13.46C109.547 14.5295 109.35 15.5227 108.959 16.4436L109.695 16.7563C110.131 15.7307 110.347 14.6305 110.347 13.46H109.547ZM108.959 16.4418C108.567 17.3534 108.017 18.1492 107.309 18.8321L107.865 19.4079C108.65 18.6508 109.26 17.7666 109.694 16.7582L108.959 16.4418ZM107.307 18.8346C106.614 19.5149 105.779 20.0537 104.797 20.4489L105.096 21.1911C106.168 20.7596 107.093 20.1651 107.867 19.4054L107.307 18.8346ZM104.802 20.4473C103.826 20.8275 102.756 21.02 101.587 21.02V21.82C102.845 21.82 104.015 21.6125 105.092 21.1927L104.802 20.4473ZM101.587 21.02C100.404 21.02 99.3275 20.8273 98.3521 20.4473L98.0617 21.1927C99.1396 21.6127 100.316 21.82 101.587 21.82V21.02ZM98.3579 20.4496C97.3896 20.0546 96.561 19.5158 95.8671 18.8346L95.3066 19.4054C96.0795 20.1642 96.9975 20.7587 98.0558 21.1904L98.3579 20.4496ZM95.8671 18.8346C95.1715 18.1516 94.6274 17.355 94.2343 16.4418L93.4995 16.7582C93.933 17.765 94.5356 18.6484 95.3066 19.4054L95.8671 18.8346ZM94.2351 16.4437C93.8439 15.5227 93.6469 14.5295 93.6469 13.46H92.8469C92.8469 14.6305 93.0631 15.7307 93.4987 16.7563L94.2351 16.4437ZM112.883 18.18L113.251 18.3376L113.253 18.3315L112.883 18.18ZM114.123 16.92L113.971 16.5497L113.965 16.5523L114.123 16.92ZM115.943 16.92L115.785 17.2877L115.792 17.2902L115.943 16.92ZM117.203 18.18L116.833 18.3315L116.835 18.3376L117.203 18.18ZM117.203 20L117.571 20.1576L117.573 20.1515L117.203 20ZM116.703 20.74L116.986 21.0228L116.703 20.74ZM115.943 21.24L115.791 20.8697L115.785 20.8723L115.943 21.24ZM114.123 21.24L113.965 21.6077L113.972 21.6102L114.123 21.24ZM113.383 20.74L113.1 21.0228L113.383 20.74ZM112.883 20L112.513 20.1515L112.515 20.1576L112.883 20ZM113.103 19.08C113.103 18.8114 113.153 18.5653 113.251 18.3376L112.515 18.0224C112.373 18.3547 112.303 18.7086 112.303 19.08H113.103ZM113.253 18.3315C113.354 18.0848 113.492 17.8767 113.666 17.7028L113.1 17.1372C112.847 17.3899 112.652 17.6886 112.513 18.0285L113.253 18.3315ZM113.666 17.7028C113.843 17.5258 114.047 17.3878 114.281 17.2877L113.965 16.5523C113.639 16.6922 113.35 16.8875 113.1 17.1372L113.666 17.7028ZM114.274 17.2902C114.519 17.1901 114.774 17.14 115.043 17.14V16.34C114.672 16.34 114.313 16.4099 113.972 16.5498L114.274 17.2902ZM115.043 17.14C115.312 17.14 115.558 17.1901 115.785 17.2877L116.101 16.5523C115.768 16.4099 115.414 16.34 115.043 16.34V17.14ZM115.792 17.2902C116.038 17.3911 116.246 17.529 116.42 17.7028L116.986 17.1372C116.733 16.8844 116.434 16.6889 116.094 16.5498L115.792 17.2902ZM116.42 17.7028C116.594 17.8767 116.732 18.0848 116.833 18.3315L117.573 18.0285C117.434 17.6886 117.239 17.3899 116.986 17.1372L116.42 17.7028ZM116.835 18.3376C116.933 18.5653 116.983 18.8114 116.983 19.08H117.783C117.783 18.7086 117.713 18.3547 117.571 18.0224L116.835 18.3376ZM116.983 19.08C116.983 19.3486 116.933 19.6038 116.833 19.8485L117.573 20.1515C117.713 19.8096 117.783 19.4514 117.783 19.08H116.983ZM116.835 19.8424C116.735 20.0761 116.597 20.2802 116.42 20.4572L116.986 21.0228C117.235 20.7732 117.431 20.4839 117.571 20.1576L116.835 19.8424ZM116.42 20.4572C116.246 20.631 116.038 20.7689 115.792 20.8698L116.094 21.6102C116.434 21.4711 116.733 21.2756 116.986 21.0228L116.42 20.4572ZM115.785 20.8723C115.558 20.9699 115.312 21.02 115.043 21.02V21.82C115.414 21.82 115.768 21.7501 116.101 21.6077L115.785 20.8723ZM115.043 21.02C114.774 21.02 114.519 20.9699 114.274 20.8698L113.972 21.6102C114.313 21.7501 114.672 21.82 115.043 21.82V21.02ZM114.281 20.8723C114.047 20.7722 113.843 20.6342 113.666 20.4572L113.1 21.0228C113.35 21.2725 113.639 21.4678 113.965 21.6077L114.281 20.8723ZM113.666 20.4572C113.489 20.2802 113.351 20.0761 113.251 19.8424L112.515 20.1576C112.655 20.4839 112.85 20.7732 113.1 21.0228L113.666 20.4572ZM113.253 19.8485C113.153 19.6038 113.103 19.3486 113.103 19.08H112.303C112.303 19.4514 112.373 19.8096 112.513 20.1515L113.253 19.8485ZM129.1 9.78L128.848 10.0904L129.232 10.4024L129.456 9.96167L129.1 9.78ZM127.82 9.02L127.669 9.39072L127.679 9.39453L127.82 9.02ZM125.34 9.12L125.1 8.8L125.34 9.12ZM125.1 10.72L124.806 10.9913V10.9913L125.1 10.72ZM125.72 11.18L125.534 11.534L125.544 11.5397L125.556 11.5448L125.72 11.18ZM126.6 11.5L126.488 11.884L126.492 11.8852L126.6 11.5ZM127.58 11.8L127.453 12.1795L127.58 11.8ZM130.38 13.52L130.07 13.7727L130.075 13.7789L130.38 13.52ZM130.88 18.4L130.512 18.2434L130.509 18.2501L130.88 18.4ZM129.74 20.02L130.006 20.3185L130.007 20.3181L129.74 20.02ZM127.9 21.04L127.775 20.6597L127.767 20.6627L127.9 21.04ZM120.14 19.72L119.787 19.5322L119.62 19.8454L119.911 20.0482L120.14 19.72ZM121.82 16.56L122.085 16.2607L121.705 15.9238L121.467 16.3722L121.82 16.56ZM123.56 17.72L123.398 18.0859L123.56 17.72ZM126.68 17.66L126.409 17.3651L126.403 17.3709L126.68 17.66ZM127.04 16.08L126.676 16.2477L126.682 16.2589L127.04 16.08ZM126.64 15.62L126.393 15.9345L126.4 15.9402L126.407 15.9455L126.64 15.62ZM125.9 15.22L125.748 15.5903L125.754 15.5925L125.9 15.22ZM124.82 14.82L124.95 14.4416L124.94 14.4386L124.82 14.82ZM123.32 14.3L123.166 14.6694L123.178 14.6741L123.32 14.3ZM122.02 13.52L121.759 13.8237L121.765 13.8282L122.02 13.52ZM121.1 12.32L120.736 12.4871L120.742 12.4989L121.1 12.32ZM121.12 8.44L120.75 8.28729L120.748 8.29144L121.12 8.44ZM122.16 6.88L122.438 7.16716L122.438 7.16703L122.16 6.88ZM123.8 5.86L123.662 5.48452L123.659 5.48547L123.8 5.86ZM128.32 5.82L128.218 6.20696L128.224 6.20843L128.32 5.82ZM130.66 6.72L131.016 6.90167L131.194 6.55249L130.849 6.36741L130.66 6.72ZM129.352 9.46955C128.899 9.10107 128.435 8.82341 127.96 8.64547L127.679 9.39453C128.058 9.53659 128.448 9.7656 128.848 10.0904L129.352 9.46955ZM127.97 8.64941C127.503 8.45956 127.039 8.36 126.58 8.36V9.16C126.921 9.16 127.283 9.23377 127.669 9.39059L127.97 8.64941ZM126.58 8.36C126.01 8.36 125.506 8.49563 125.1 8.8L125.58 9.44C125.814 9.26437 126.136 9.16 126.58 9.16V8.36ZM125.1 8.8C124.683 9.11248 124.46 9.54242 124.46 10.06H125.26C125.26 9.80425 125.356 9.60752 125.58 9.44L125.1 8.8ZM124.46 10.06C124.46 10.4131 124.569 10.7343 124.806 10.9913L125.394 10.4487C125.311 10.359 125.26 10.2402 125.26 10.06H124.46ZM124.806 10.9913C125.003 11.2044 125.248 11.3838 125.534 11.534L125.906 10.826C125.685 10.7095 125.517 10.5823 125.394 10.4487L124.806 10.9913ZM125.556 11.5448C125.841 11.6733 126.152 11.7862 126.488 11.884L126.712 11.116C126.407 11.0272 126.132 10.9267 125.884 10.8152L125.556 11.5448ZM126.492 11.8852C126.819 11.9768 127.14 12.0749 127.453 12.1795L127.706 11.4205C127.38 11.3118 127.047 11.2099 126.708 11.1148L126.492 11.8852ZM127.453 12.1795C128.692 12.5924 129.548 13.1324 130.07 13.7727L130.69 13.2673C130.038 12.4676 129.028 11.8609 127.706 11.4205L127.453 12.1795ZM130.075 13.7789C130.6 14.3973 130.88 15.2249 130.88 16.3H131.68C131.68 15.0817 131.36 14.056 130.685 13.2611L130.075 13.7789ZM130.88 16.3C130.88 17.0268 130.755 17.6725 130.512 18.2434L131.248 18.5566C131.538 17.8742 131.68 17.1199 131.68 16.3H130.88ZM130.509 18.2501C130.279 18.8197 129.934 19.3091 129.473 19.7219L130.007 20.3181C130.559 19.8242 130.974 19.2336 131.251 18.5499L130.509 18.2501ZM129.474 19.7215C129.028 20.1192 128.465 20.4342 127.775 20.6598L128.024 21.4202C128.801 21.1658 129.465 20.8008 130.006 20.3185L129.474 19.7215ZM127.767 20.6627C127.097 20.8983 126.324 21.02 125.44 21.02V21.82C126.396 21.82 127.262 21.6884 128.033 21.4173L127.767 20.6627ZM125.44 21.02C123.618 21.02 121.931 20.4804 120.369 19.3918L119.911 20.0482C121.602 21.2263 123.448 21.82 125.44 21.82V21.02ZM120.493 19.9078L122.173 16.7478L121.467 16.3722L119.787 19.5322L120.493 19.9078ZM121.555 16.8593C122.165 17.4002 122.779 17.8123 123.398 18.0859L123.722 17.3541C123.194 17.1211 122.648 16.7598 122.085 16.2607L121.555 16.8593ZM123.398 18.0859C124.016 18.359 124.638 18.5 125.26 18.5V17.7C124.762 17.7 124.25 17.5876 123.722 17.3541L123.398 18.0859ZM125.26 18.5C125.952 18.5 126.545 18.3425 126.956 17.9491L126.403 17.3709C126.201 17.5641 125.848 17.7 125.26 17.7V18.5ZM126.95 17.9549C127.338 17.5993 127.56 17.164 127.56 16.66H126.76C126.76 16.9027 126.662 17.1341 126.41 17.3651L126.95 17.9549ZM127.56 16.66C127.56 16.3874 127.512 16.1295 127.398 15.9011L126.682 16.2589C126.728 16.3505 126.76 16.4793 126.76 16.66H127.56ZM127.403 15.9124C127.289 15.6644 127.104 15.4601 126.872 15.2945L126.407 15.9455C126.549 16.0466 126.631 16.149 126.677 16.2476L127.403 15.9124ZM126.887 15.3055C126.66 15.1273 126.376 14.9767 126.046 14.8475L125.754 15.5925C126.037 15.7033 126.246 15.8194 126.393 15.9345L126.887 15.3055ZM126.051 14.8498C125.749 14.726 125.381 14.5899 124.95 14.4417L124.69 15.1983C125.112 15.3434 125.464 15.474 125.748 15.5902L126.051 14.8498ZM124.94 14.4386C124.441 14.2808 123.948 14.1099 123.461 13.9259L123.178 14.6741C123.679 14.8634 124.186 15.0392 124.699 15.2014L124.94 14.4386ZM123.474 13.9308C123.029 13.7455 122.63 13.5057 122.275 13.2118L121.765 13.8282C122.183 14.1743 122.651 14.4545 123.166 14.6692L123.474 13.9308ZM122.28 13.2163C121.951 12.934 121.676 12.5778 121.458 12.1411L120.742 12.4989C121.004 13.0222 121.342 13.466 121.76 13.8237L122.28 13.2163ZM121.463 12.153C121.268 11.7278 121.16 11.1694 121.16 10.46H120.36C120.36 11.244 120.478 11.9255 120.736 12.487L121.463 12.153ZM121.16 10.46C121.16 9.75641 121.273 9.13456 121.491 8.58856L120.748 8.29144C120.487 8.94544 120.36 9.67026 120.36 10.46H121.16ZM121.49 8.5927C121.724 8.02573 122.041 7.55266 122.438 7.16716L121.881 6.59284C121.399 7.06067 121.023 7.6276 120.75 8.2873L121.49 8.5927ZM122.438 7.16703C122.849 6.76846 123.348 6.45679 123.94 6.23453L123.659 5.48547C122.972 5.74321 122.377 6.11154 121.881 6.59297L122.438 7.16703ZM123.938 6.23547C124.541 6.01392 125.22 5.9 125.98 5.9V5.1C125.14 5.1 124.365 5.22608 123.662 5.48453L123.938 6.23547ZM125.98 5.9C126.688 5.9 127.434 6.00119 128.218 6.20691L128.421 5.43309C127.579 5.21214 126.765 5.1 125.98 5.1V5.9ZM128.224 6.20843C129.005 6.40034 129.753 6.68822 130.471 7.07259L130.849 6.36741C130.073 5.95178 129.262 5.63965 128.415 5.43157L128.224 6.20843ZM130.303 6.53832L128.743 9.59832L129.456 9.96167L131.016 6.90167L130.303 6.53832ZM138.47 11.74H138.07V12.14H138.47V11.74ZM144.13 11.74V12.14H144.53V11.74H144.13ZM144.13 5.92V5.52H143.73V5.92H144.13ZM148.05 5.92H148.45V5.52H148.05V5.92ZM148.05 21V21.4H148.45V21H148.05ZM144.13 21H143.73V21.4H144.13V21ZM144.13 14.78H144.53V14.38H144.13V14.78ZM138.47 14.78V14.38H138.07V14.78H138.47ZM138.47 21V21.4H138.87V21H138.47ZM134.55 21H134.15V21.4H134.55V21ZM134.55 5.92V5.52H134.15V5.92H134.55ZM138.47 5.92H138.87V5.52H138.47V5.92ZM138.47 12.14H144.13V11.34H138.47V12.14ZM144.53 11.74V5.92H143.73V11.74H144.53ZM144.13 6.32H148.05V5.52H144.13V6.32ZM147.65 5.92V21H148.45V5.92H147.65ZM148.05 20.6H144.13V21.4H148.05V20.6ZM144.53 21V14.78H143.73V21H144.53ZM144.13 14.38H138.47V15.18H144.13V14.38ZM138.07 14.78V21H138.87V14.78H138.07ZM138.47 20.6H134.55V21.4H138.47V20.6ZM134.95 21V5.92H134.15V21H134.95ZM134.55 6.32H138.47V5.52H134.55V6.32ZM138.07 5.92V11.74H138.87V5.92H138.07ZM155.77 15.12L156.135 14.9567L155.77 15.12ZM156.69 16.44L156.968 16.1522L156.69 16.44ZM158.03 17.32L157.874 17.6888L157.886 17.6933L158.03 17.32ZM161.29 17.32L161.437 17.6921L161.442 17.6901L161.29 17.32ZM162.65 16.44L162.377 16.1475L162.372 16.1522L162.65 16.44ZM163.59 15.12L163.955 15.2833L163.59 15.12ZM163.59 11.8L163.955 11.6367V11.6367L163.59 11.8ZM162.65 10.48L162.372 10.7678L162.377 10.7724L162.65 10.48ZM161.29 9.62L161.134 9.98884L161.146 9.99334L161.29 9.62ZM158.03 9.62L158.177 9.99209L158.182 9.99007L158.03 9.62ZM156.69 10.48L156.968 10.7678L156.69 10.48ZM155.77 11.8L156.135 11.9633L155.77 11.8ZM151.95 10.34L152.317 10.4982L152.318 10.4963L151.95 10.34ZM153.67 7.8L153.389 7.51457L153.67 7.8ZM156.29 6.12L156.437 6.49207L156.439 6.49106L156.29 6.12ZM163.03 6.12L162.88 6.49108L162.884 6.49271L163.03 6.12ZM165.67 7.8L165.389 8.08544L165.392 8.08794L165.67 7.8ZM167.41 10.34L167.042 10.4964L167.042 10.4982L167.41 10.34ZM167.41 16.6L167.777 16.7582L167.778 16.7563L167.41 16.6ZM165.67 19.12L165.392 18.8321L165.389 18.8346L165.67 19.12ZM163.03 20.82L163.175 21.1927L163.179 21.1911L163.03 20.82ZM156.29 20.82L156.139 21.1904L156.144 21.1927L156.29 20.82ZM153.67 19.12L153.389 19.4054L153.67 19.12ZM151.95 16.6L151.582 16.7564L151.582 16.7582L151.95 16.6ZM155.03 13.46C155.03 14.1117 155.153 14.7212 155.405 15.2833L156.135 14.9567C155.933 14.5054 155.83 14.0083 155.83 13.46H155.03ZM155.405 15.2833C155.651 15.8351 155.987 16.3178 156.412 16.7278L156.968 16.1522C156.619 15.8156 156.341 15.4182 156.135 14.9567L155.405 15.2833ZM156.412 16.7278C156.835 17.1362 157.323 17.4566 157.874 17.6887L158.185 16.9513C157.723 16.7567 157.318 16.4905 156.968 16.1522L156.412 16.7278ZM157.886 17.6933C158.453 17.9115 159.049 18.02 159.67 18.02V17.22C159.144 17.22 158.646 17.1285 158.173 16.9467L157.886 17.6933ZM159.67 18.02C160.291 18.02 160.881 17.9115 161.437 17.6921L161.143 16.9479C160.685 17.1285 160.195 17.22 159.67 17.22V18.02ZM161.442 17.6901C162.006 17.4584 162.503 17.1379 162.928 16.7278L162.372 16.1522C162.023 16.4888 161.613 16.7549 161.138 16.9499L161.442 17.6901ZM162.923 16.7324C163.362 16.3221 163.707 15.838 163.955 15.2833L163.225 14.9567C163.019 15.4153 162.737 15.8112 162.377 16.1476L162.923 16.7324ZM163.955 15.2833C164.206 14.7212 164.33 14.1117 164.33 13.46H163.53C163.53 14.0083 163.426 14.5054 163.225 14.9567L163.955 15.2833ZM164.33 13.46C164.33 12.8083 164.206 12.1988 163.955 11.6367L163.225 11.9633C163.426 12.4146 163.53 12.9117 163.53 13.46H164.33ZM163.955 11.6367C163.707 11.082 163.362 10.5979 162.923 10.1876L162.377 10.7724C162.737 11.1088 163.019 11.5047 163.225 11.9633L163.955 11.6367ZM162.928 10.1922C162.501 9.78031 162.001 9.46519 161.433 9.24666L161.146 9.99334C161.618 10.1748 162.025 10.433 162.372 10.7678L162.928 10.1922ZM161.445 9.25135C160.887 9.01644 160.294 8.9 159.67 8.9V9.7C160.192 9.7 160.679 9.7969 161.134 9.98865L161.445 9.25135ZM159.67 8.9C159.045 8.9 158.447 9.01643 157.878 9.24993L158.182 9.99007C158.652 9.7969 159.147 9.7 159.67 9.7V8.9ZM157.883 9.24794C157.328 9.46692 156.837 9.782 156.412 10.1922L156.968 10.7678C157.316 10.4313 157.718 10.1731 158.177 9.99206L157.883 9.24794ZM156.412 10.1922C155.987 10.6022 155.651 11.0849 155.405 11.6367L156.135 11.9633C156.341 11.5018 156.619 11.1044 156.968 10.7678L156.412 10.1922ZM155.405 11.6367C155.153 12.1988 155.03 12.8083 155.03 13.46H155.83C155.83 12.9117 155.933 12.4146 156.135 11.9633L155.405 11.6367ZM151.73 13.46C151.73 12.3905 151.927 11.4047 152.317 10.4982L151.582 10.1818C151.146 11.1953 150.93 12.2895 150.93 13.46H151.73ZM152.318 10.4963C152.711 9.56997 153.255 8.76752 153.95 8.08543L153.389 7.51457C152.618 8.27248 152.015 9.16336 151.582 10.1836L152.318 10.4963ZM153.95 8.08543C154.643 7.40516 155.47 6.8736 156.437 6.49206L156.143 5.74794C155.083 6.1664 154.163 6.75484 153.389 7.51457L153.95 8.08543ZM156.439 6.49106C157.413 6.09881 158.489 5.9 159.67 5.9V5.1C158.397 5.1 157.219 5.31452 156.14 5.74894L156.439 6.49106ZM159.67 5.9C160.837 5.9 161.906 6.09861 162.88 6.49106L163.179 5.74894C162.101 5.31473 160.929 5.1 159.67 5.1V5.9ZM162.884 6.49271C163.864 6.87449 164.697 7.40604 165.389 8.08543L165.95 7.51457C165.175 6.75396 164.248 6.16551 163.175 5.74729L162.884 6.49271ZM165.392 8.08794C166.099 8.76987 166.649 9.57153 167.042 10.4963L167.778 10.1836C167.344 9.1618 166.733 8.27013 165.947 7.51206L165.392 8.08794ZM167.042 10.4982C167.433 11.4047 167.63 12.3905 167.63 13.46H168.43C168.43 12.2895 168.213 11.1953 167.777 10.1818L167.042 10.4982ZM167.63 13.46C167.63 14.5295 167.433 15.5227 167.042 16.4436L167.778 16.7563C168.213 15.7307 168.43 14.6305 168.43 13.46H167.63ZM167.042 16.4418C166.65 17.3534 166.1 18.1492 165.392 18.8321L165.947 19.4079C166.733 18.6508 167.343 17.7666 167.777 16.7582L167.042 16.4418ZM165.389 18.8346C164.696 19.5149 163.862 20.0537 162.88 20.4489L163.179 21.1911C164.251 20.7596 165.176 20.1651 165.95 19.4054L165.389 18.8346ZM162.884 20.4473C161.909 20.8275 160.838 21.02 159.67 21.02V21.82C160.928 21.82 162.097 21.6125 163.175 21.1927L162.884 20.4473ZM159.67 21.02C158.487 21.02 157.41 20.8273 156.435 20.4473L156.144 21.1927C157.222 21.6127 158.399 21.82 159.67 21.82V21.02ZM156.441 20.4496C155.472 20.0546 154.644 19.5158 153.95 18.8346L153.389 19.4054C154.162 20.1642 155.08 20.7587 156.139 21.1904L156.441 20.4496ZM153.95 18.8346C153.254 18.1516 152.71 17.355 152.317 16.4418L151.582 16.7582C152.016 17.765 152.618 18.6484 153.389 19.4054L153.95 18.8346ZM152.318 16.4437C151.927 15.5227 151.73 14.5295 151.73 13.46H150.93C150.93 14.6305 151.146 15.7307 151.582 16.7563L152.318 16.4437ZM175.226 12.84H174.826V13.24H175.226V12.84ZM175.226 9.08V8.68H174.826V9.08H175.226ZM175.226 21V21.4H175.626V21H175.226ZM171.306 21H170.906V21.4H171.306V21ZM171.306 5.92V5.52H170.906V5.92H171.306ZM181.426 7.24L181.145 7.52497L181.147 7.52703L181.426 7.24ZM181.426 14.68L181.147 14.393L181.145 14.395L181.426 14.68ZM175.226 16V15.6H174.826V16H175.226ZM175.226 13.24H176.526V12.44H175.226V13.24ZM176.526 13.24C177.295 13.24 177.946 13.0738 178.408 12.6717C178.881 12.2604 179.086 11.6639 179.086 10.96H178.286C178.286 11.5094 178.131 11.853 177.883 12.0683C177.625 12.2928 177.197 12.44 176.526 12.44V13.24ZM179.086 10.96C179.086 10.2561 178.881 9.65964 178.408 9.24828C177.946 8.84615 177.295 8.68 176.526 8.68V9.48C177.197 9.48 177.625 9.62718 177.883 9.85172C178.131 10.067 178.286 10.4106 178.286 10.96H179.086ZM176.526 8.68H175.226V9.48H176.526V8.68ZM174.826 9.08V12.84H175.626V9.08H174.826ZM175.226 20.6H171.306V21.4H175.226V20.6ZM171.706 21V5.92H170.906V21H171.706ZM171.306 6.32H177.546V5.52H171.306V6.32ZM177.546 6.32C179.172 6.32 180.35 6.74151 181.145 7.52496L181.706 6.95504C180.715 5.97849 179.306 5.52 177.546 5.52V6.32ZM181.147 7.52703C181.957 8.31286 182.386 9.43772 182.386 10.96H183.186C183.186 9.28228 182.708 7.92714 181.704 6.95297L181.147 7.52703ZM182.386 10.96C182.386 12.4823 181.957 13.6071 181.147 14.393L181.704 14.967C182.708 13.9929 183.186 12.6377 183.186 10.96H182.386ZM181.145 14.395C180.35 15.1785 179.172 15.6 177.546 15.6V16.4C179.306 16.4 180.715 15.9415 181.706 14.965L181.145 14.395ZM177.546 15.6H175.226V16.4H177.546V15.6ZM174.826 16V21H175.626V16H174.826ZM189.58 12.84H189.18V13.24H189.58V12.84ZM189.58 9.08V8.68H189.18V9.08H189.58ZM189.58 21V21.4H189.98V21H189.58ZM185.66 21H185.26V21.4H185.66V21ZM185.66 5.92V5.52H185.26V5.92H185.66ZM195.78 7.24L195.5 7.52497L195.502 7.52703L195.78 7.24ZM195.78 14.68L195.502 14.393L195.5 14.395L195.78 14.68ZM189.58 16V15.6H189.18V16H189.58ZM189.58 13.24H190.88V12.44H189.58V13.24ZM190.88 13.24C191.65 13.24 192.301 13.0738 192.763 12.6717C193.236 12.2604 193.44 11.6639 193.44 10.96H192.64C192.64 11.5094 192.485 11.853 192.238 12.0683C191.98 12.2928 191.551 12.44 190.88 12.44V13.24ZM193.44 10.96C193.44 10.2561 193.236 9.65964 192.763 9.24828C192.301 8.84615 191.65 8.68 190.88 8.68V9.48C191.551 9.48 191.98 9.62718 192.238 9.85172C192.485 10.067 192.64 10.4106 192.64 10.96H193.44ZM190.88 8.68H189.58V9.48H190.88V8.68ZM189.18 9.08V12.84H189.98V9.08H189.18ZM189.58 20.6H185.66V21.4H189.58V20.6ZM186.06 21V5.92H185.26V21H186.06ZM185.66 6.32H191.9V5.52H185.66V6.32ZM191.9 6.32C193.527 6.32 194.704 6.74151 195.5 7.52496L196.061 6.95504C195.07 5.97849 193.661 5.52 191.9 5.52V6.32ZM195.502 7.52703C196.312 8.31286 196.74 9.43772 196.74 10.96H197.54C197.54 9.28228 197.063 7.92714 196.059 6.95297L195.502 7.52703ZM196.74 10.96C196.74 12.4823 196.312 13.6071 195.502 14.393L196.059 14.967C197.063 13.9929 197.54 12.6377 197.54 10.96H196.74ZM195.5 14.395C194.704 15.1785 193.527 15.6 191.9 15.6V16.4C193.661 16.4 195.07 15.9415 196.061 14.965L195.5 14.395ZM191.9 15.6H189.58V16.4H191.9V15.6ZM189.18 16V21H189.98V16H189.18ZM203.935 5.92H204.335V5.52H203.935V5.92ZM203.935 21V21.4H204.335V21H203.935ZM200.015 21H199.615V21.4H200.015V21ZM200.015 5.92V5.52H199.615V5.92H200.015ZM203.535 5.92V21H204.335V5.92H203.535ZM203.935 20.6H200.015V21.4H203.935V20.6ZM200.415 21V5.92H199.615V21H200.415ZM200.015 6.32H203.935V5.52H200.015V6.32ZM207.885 21H207.485V21.4H207.885V21ZM207.885 5.92V5.52H207.485V5.92H207.885ZM211.805 5.92L212.12 5.67296L212 5.52H211.805V5.92ZM219.045 15.14L218.731 15.387L219.445 16.2971V15.14H219.045ZM219.045 5.92V5.52H218.645V5.92H219.045ZM222.945 5.92H223.345V5.52H222.945V5.92ZM222.945 21V21.4H223.345V21H222.945ZM219.045 21L218.731 21.247L218.851 21.4H219.045V21ZM211.805 11.78L212.12 11.533L211.405 10.6229V11.78H211.805ZM211.805 21V21.4H212.205V21H211.805ZM208.285 21V5.92H207.485V21H208.285ZM207.885 6.32H211.805V5.52H207.885V6.32ZM211.491 6.16704L218.731 15.387L219.36 14.893L212.12 5.67296L211.491 6.16704ZM219.445 15.14V5.92H218.645V15.14H219.445ZM219.045 6.32H222.945V5.52H219.045V6.32ZM222.545 5.92V21H223.345V5.92H222.545ZM222.945 20.6H219.045V21.4H222.945V20.6ZM219.36 20.753L212.12 11.533L211.491 12.027L218.731 21.247L219.36 20.753ZM211.405 11.78V21H212.205V11.78H211.405ZM211.805 20.6H207.885V21.4H211.805V20.6ZM234.522 12.56V12.16H234.122V12.56H234.522ZM242.302 12.56H242.702V12.16H242.302V12.56ZM242.202 14.74L241.804 14.6994L242.202 14.74ZM241.802 16.56L241.425 16.4255L241.425 16.4259L241.802 16.56ZM240.662 18.66L240.974 18.9099L240.977 18.9065L240.662 18.66ZM238.962 20.18L239.174 20.5192L239.175 20.518L238.962 20.18ZM236.842 21.1L236.948 21.4856L236.842 21.1ZM231.182 20.84L231.032 21.211L231.034 21.2117L231.182 20.84ZM228.702 19.22L228.416 19.5001L228.419 19.5028L228.702 19.22ZM227.082 16.7L226.709 16.846L226.71 16.8477L227.082 16.7ZM227.062 10.22L226.689 10.074L226.688 10.0768L227.062 10.22ZM228.682 7.7L228.401 7.41446L228.399 7.41716L228.682 7.7ZM231.222 6.08L231.076 5.70758L231.222 6.08ZM238.662 6.52L238.86 6.17294L238.662 6.52ZM241.482 9.68L241.635 10.0496L242.027 9.88714L241.841 9.50516L241.482 9.68ZM237.762 11.22L237.393 11.3747L237.547 11.7419L237.915 11.5896L237.762 11.22ZM236.402 9.44L236.182 9.77409L236.185 9.77647L236.402 9.44ZM232.922 9.24L233.084 9.60562L233.092 9.6017L232.922 9.24ZM231.682 10.18L231.375 9.92295L231.374 9.92393L231.682 10.18ZM230.882 11.64L230.504 11.5082L230.501 11.5162L230.882 11.64ZM230.842 15.34L230.458 15.4524L230.46 15.4609L230.842 15.34ZM232.842 17.7L232.675 18.0636L232.683 18.0671L232.842 17.7ZM235.682 17.9L235.768 18.2907L235.782 18.2872L235.682 17.9ZM236.642 17.48L236.863 17.8128L236.867 17.8105L236.642 17.48ZM237.362 16.72L237.02 16.512L237.362 16.72ZM237.742 15.6L238.137 15.6599L238.207 15.2H237.742V15.6ZM234.522 15.6H234.122V16H234.522V15.6ZM234.522 12.96H242.302V12.16H234.522V12.96ZM241.902 12.56C241.902 13.3492 241.869 14.0621 241.804 14.6994L242.6 14.7806C242.668 14.1113 242.702 13.3708 242.702 12.56H241.902ZM241.804 14.6994C241.74 15.324 241.613 15.8988 241.425 16.4255L242.178 16.6945C242.39 16.1012 242.53 15.4627 242.6 14.7806L241.804 14.6994ZM241.425 16.4259C241.158 17.1749 240.798 17.8364 240.347 18.4135L240.977 18.9065C241.485 18.2569 241.885 17.5184 242.178 16.6941L241.425 16.4259ZM240.349 18.4101C239.897 18.9753 239.364 19.4522 238.748 19.842L239.175 20.518C239.866 20.0811 240.466 19.5447 240.974 18.9099L240.349 18.4101ZM238.75 19.8408C238.144 20.2191 237.474 20.5107 236.735 20.7144L236.948 21.4856C237.756 21.2626 238.499 20.9409 239.174 20.5192L238.75 19.8408ZM236.735 20.7144C235.999 20.9176 235.221 21.02 234.402 21.02V21.82C235.289 21.82 236.138 21.7091 236.948 21.4856L236.735 20.7144ZM234.402 21.02C233.273 21.02 232.25 20.8341 231.329 20.4683L231.034 21.2117C232.06 21.6192 233.184 21.82 234.402 21.82V21.02ZM231.331 20.469C230.418 20.1013 229.638 19.5903 228.984 18.9372L228.419 19.5028C229.152 20.2363 230.025 20.8054 231.032 21.211L231.331 20.469ZM228.987 18.9399C228.333 18.2733 227.821 17.4791 227.453 16.5523L226.71 16.8477C227.115 17.8676 227.683 18.7533 228.416 19.5001L228.987 18.9399ZM227.454 16.5541C227.088 15.6191 226.902 14.5827 226.902 13.44H226.102C226.102 14.6707 226.302 15.8075 226.709 16.8459L227.454 16.5541ZM226.902 13.44C226.902 12.3095 227.081 11.2855 227.435 10.3632L226.688 10.0768C226.295 11.1012 226.102 12.2238 226.102 13.44H226.902ZM227.434 10.3659C227.802 9.4264 228.313 8.63414 228.964 7.98284L228.399 7.41716C227.663 8.15253 227.094 9.04026 226.689 10.074L227.434 10.3659ZM228.962 7.98552C229.627 7.33249 230.427 6.82085 231.368 6.45242L231.076 5.70758C230.042 6.11248 229.149 6.68084 228.401 7.41448L228.962 7.98552ZM231.368 6.45242C232.301 6.08642 233.351 5.9 234.522 5.9V5.1C233.265 5.1 232.115 5.30024 231.076 5.70758L231.368 6.45242ZM234.522 5.9C236.036 5.9 237.345 6.22668 238.463 6.86706L238.86 6.17294C237.605 5.45332 236.154 5.1 234.522 5.1V5.9ZM238.463 6.86706C239.569 7.50102 240.458 8.48856 241.122 9.85484L241.841 9.50516C241.119 8.0181 240.127 6.89898 238.86 6.17294L238.463 6.86706ZM241.329 9.31042L237.609 10.8504L237.915 11.5896L241.635 10.0496L241.329 9.31042ZM238.13 11.0653C237.763 10.1894 237.266 9.52011 236.618 9.10353L236.185 9.77647C236.657 10.0799 237.067 10.5973 237.393 11.3747L238.13 11.0653ZM236.622 9.10593C236.004 8.69948 235.3 8.5 234.522 8.5V9.3C235.157 9.3 235.705 9.46052 236.182 9.77407L236.622 9.10593ZM234.522 8.5C233.882 8.5 233.29 8.62386 232.751 8.8783L233.092 9.6017C233.514 9.4028 233.988 9.3 234.522 9.3V8.5ZM232.759 8.87448C232.222 9.11322 231.76 9.46427 231.375 9.92296L231.988 10.437C232.297 10.0691 232.661 9.79345 233.084 9.60553L232.759 8.87448ZM231.374 9.92393C231.006 10.3664 230.717 10.897 230.504 11.5083L231.259 11.7717C231.446 11.2363 231.691 10.7936 231.989 10.4361L231.374 9.92393ZM230.501 11.5162C230.3 12.1357 230.202 12.8183 230.202 13.56H231.002C231.002 12.8883 231.09 12.291 231.262 11.7638L230.501 11.5162ZM230.202 13.56C230.202 14.2334 230.286 14.865 230.458 15.4524L231.225 15.2276C231.077 14.7217 231.002 14.1666 231.002 13.56H230.202ZM230.46 15.4609C230.648 16.052 230.925 16.5724 231.294 17.0161L231.909 16.5039C231.612 16.1476 231.382 15.7214 231.223 15.2191L230.46 15.4609ZM231.294 17.0161C231.667 17.4638 232.129 17.813 232.675 18.0635L233.009 17.3365C232.567 17.1337 232.202 16.8561 231.909 16.5039L231.294 17.0161ZM232.683 18.0671C233.236 18.3063 233.865 18.42 234.562 18.42V17.62C233.951 17.62 233.434 17.5204 233 17.3329L232.683 18.0671ZM234.562 18.42C234.976 18.42 235.378 18.3771 235.768 18.2905L235.595 17.5095C235.265 17.5829 234.92 17.62 234.562 17.62V18.42ZM235.782 18.2872C236.181 18.1838 236.543 18.0267 236.863 17.8128L236.42 17.1472C236.181 17.3066 235.902 17.4295 235.581 17.5128L235.782 18.2872ZM236.867 17.8105C237.208 17.578 237.487 17.2827 237.703 16.928L237.02 16.512C236.862 16.7706 236.662 16.982 236.416 17.1495L236.867 17.8105ZM237.703 16.928C237.923 16.5666 238.064 16.1402 238.137 15.6599L237.346 15.5401C237.286 15.9398 237.173 16.2601 237.02 16.512L237.703 16.928ZM237.742 15.2H234.522V16H237.742V15.2ZM234.922 15.6V12.56H234.122V15.6H234.922Z" fill="#150909"/>
<path d="M5.5 12.84H6.8C8.24 12.84 8.96 12.2133 8.96 10.96C8.96 9.70667 8.24 9.08 6.8 9.08H5.5V12.84ZM5.5 21H1.58V5.92H7.82C9.51333 5.92 10.8067 6.36 11.7 7.24C12.6067 8.12 13.06 9.36 13.06 10.96C13.06 12.56 12.6067 13.8 11.7 14.68C10.8067 15.56 9.51333 16 7.82 16H5.5V21Z" fill="#FF0000"/>
<path d="M24.5147 9.24H19.8547V11.76H24.2547V15.08H19.8547V17.68H24.5147V21H15.9347V5.92H24.5147V9.24ZM51.7606 9.24H47.0406V11.76H51.3406V15.08H47.0406V21H43.1206V5.92H51.7606V9.24ZM77.9634 10.96C77.0568 9.85333 75.9368 9.3 74.6034 9.3C74.0168 9.3 73.4701 9.40667 72.9634 9.62C72.4701 9.83333 72.0434 10.1267 71.6834 10.5C71.3234 10.86 71.0368 11.2933 70.8234 11.8C70.6234 12.3067 70.5234 12.8533 70.5234 13.44C70.5234 14.04 70.6234 14.5933 70.8234 15.1C71.0368 15.6067 71.3234 16.0467 71.6834 16.42C72.0568 16.7933 72.4901 17.0867 72.9834 17.3C73.4768 17.5133 74.0101 17.62 74.5834 17.62C75.8368 17.62 76.9634 17.0867 77.9634 16.02V20.66L77.5634 20.8C76.9634 21.0133 76.4034 21.1667 75.8834 21.26C75.3634 21.3667 74.8501 21.42 74.3434 21.42C73.3034 21.42 72.3034 21.2267 71.3434 20.84C70.3968 20.44 69.5568 19.8867 68.8234 19.18C68.1034 18.46 67.5234 17.6133 67.0834 16.64C66.6434 15.6533 66.4234 14.58 66.4234 13.42C66.4234 12.26 66.6368 11.2 67.0634 10.24C67.5034 9.26667 68.0834 8.43333 68.8034 7.74C69.5368 7.03333 70.3834 6.48667 71.3434 6.1C72.3034 5.7 73.3101 5.5 74.3634 5.5C74.9634 5.5 75.5501 5.56667 76.1234 5.7C76.7101 5.82 77.3234 6.01333 77.9634 6.28V10.96Z" fill="white"/>
<path d="M32.0609 12.66H32.8009C33.5743 12.66 34.1676 12.5 34.5809 12.18C34.9943 11.86 35.2009 11.4 35.2009 10.8C35.2009 10.2 34.9943 9.74 34.5809 9.42C34.1676 9.1 33.5743 8.94 32.8009 8.94H32.0609V12.66ZM40.6809 21H35.8009L32.0609 15.2V21H28.1409V5.92H34.2409C35.0809 5.92 35.8143 6.04667 36.4409 6.3C37.0676 6.54 37.5809 6.87333 37.9809 7.3C38.3943 7.72667 38.7009 8.22 38.9009 8.78C39.1143 9.34 39.2209 9.94 39.2209 10.58C39.2209 11.7267 38.9409 12.66 38.3809 13.38C37.8343 14.0867 37.0209 14.5667 35.9409 14.82L40.6809 21Z" fill="#FFF600"/>
<path d="M63.4772 9.24H58.8172V11.76H63.2172V15.08H58.8172V17.68H63.4772V21H54.8972V5.92H63.4772V9.24Z" fill="#00FF29"/>
<path d="M87.5633 9.24V21H83.6433V9.24H80.4233V5.92H90.7833V9.24H87.5633Z" fill="#009BFD"/>
<path d="M97.3469 13.46C97.3469 14.06 97.4602 14.6133 97.6869 15.12C97.9135 15.6267 98.2202 16.0667 98.6069 16.44C98.9935 16.8133 99.4402 17.1067 99.9469 17.32C100.467 17.52 101.014 17.62 101.587 17.62C102.16 17.62 102.7 17.52 103.207 17.32C103.727 17.1067 104.18 16.8133 104.567 16.44C104.967 16.0667 105.28 15.6267 105.507 15.12C105.734 14.6133 105.847 14.06 105.847 13.46C105.847 12.86 105.734 12.3067 105.507 11.8C105.28 11.2933 104.967 10.8533 104.567 10.48C104.18 10.1067 103.727 9.82 103.207 9.62C102.7 9.40667 102.16 9.3 101.587 9.3C101.014 9.3 100.467 9.40667 99.9469 9.62C99.4402 9.82 98.9935 10.1067 98.6069 10.48C98.2202 10.8533 97.9135 11.2933 97.6869 11.8C97.4602 12.3067 97.3469 12.86 97.3469 13.46ZM93.2469 13.46C93.2469 12.34 93.4535 11.3 93.8669 10.34C94.2802 9.36667 94.8535 8.52 95.5869 7.8C96.3202 7.08 97.1935 6.52 98.2069 6.12C99.2335 5.70667 100.36 5.5 101.587 5.5C102.8 5.5 103.92 5.70667 104.947 6.12C105.974 6.52 106.854 7.08 107.587 7.8C108.334 8.52 108.914 9.36667 109.327 10.34C109.74 11.3 109.947 12.34 109.947 13.46C109.947 14.58 109.74 15.6267 109.327 16.6C108.914 17.56 108.334 18.4 107.587 19.12C106.854 19.84 105.974 20.4067 104.947 20.82C103.92 21.22 102.8 21.42 101.587 21.42C100.36 21.42 99.2335 21.22 98.2069 20.82C97.1935 20.4067 96.3202 19.84 95.5869 19.12C94.8535 18.4 94.2802 17.56 93.8669 16.6C93.4535 15.6267 93.2469 14.58 93.2469 13.46Z" fill="#F000FF"/>
<path d="M5.5 12.84H5.1V13.24H5.5V12.84ZM5.5 9.08V8.68H5.1V9.08H5.5ZM5.5 21V21.4H5.9V21H5.5ZM1.58 21H1.18V21.4H1.58V21ZM1.58 5.92V5.52H1.18V5.92H1.58ZM11.7 7.24L11.4193 7.52497L11.4214 7.52703L11.7 7.24ZM11.7 14.68L11.4214 14.393L11.4193 14.395L11.7 14.68ZM5.5 16V15.6H5.1V16H5.5ZM5.5 13.24H6.8V12.44H5.5V13.24ZM6.8 13.24C7.56908 13.24 8.22059 13.0738 8.68261 12.6717C9.15524 12.2604 9.36 11.6639 9.36 10.96H8.56C8.56 11.5094 8.40476 11.853 8.15739 12.0683C7.89941 12.2928 7.47092 12.44 6.8 12.44V13.24ZM9.36 10.96C9.36 10.2561 9.15524 9.65964 8.68261 9.24828C8.22059 8.84615 7.56908 8.68 6.8 8.68V9.48C7.47092 9.48 7.89941 9.62718 8.15739 9.85172C8.40476 10.067 8.56 10.4106 8.56 10.96H9.36ZM6.8 8.68H5.5V9.48H6.8V8.68ZM5.1 9.08V12.84H5.9V9.08H5.1ZM5.5 20.6H1.58V21.4H5.5V20.6ZM1.98 21V5.92H1.18V21H1.98ZM1.58 6.32H7.82V5.52H1.58V6.32ZM7.82 6.32C9.44605 6.32 10.624 6.74151 11.4193 7.52496L11.9807 6.95504C10.9894 5.97849 9.58061 5.52 7.82 5.52V6.32ZM11.4214 7.52703C12.231 8.31286 12.66 9.43772 12.66 10.96H13.46C13.46 9.28228 12.9823 7.92714 11.9786 6.95297L11.4214 7.52703ZM12.66 10.96C12.66 12.4823 12.231 13.6071 11.4214 14.393L11.9786 14.967C12.9823 13.9929 13.46 12.6377 13.46 10.96H12.66ZM11.4193 14.395C10.624 15.1785 9.44605 15.6 7.82 15.6V16.4C9.58061 16.4 10.9894 15.9415 11.9807 14.965L11.4193 14.395ZM7.82 15.6H5.5V16.4H7.82V15.6ZM5.1 16V21H5.9V16H5.1ZM24.5147 9.24V9.64H24.9147V9.24H24.5147ZM19.8547 9.24V8.84H19.4547V9.24H19.8547ZM19.8547 11.76H19.4547V12.16H19.8547V11.76ZM24.2547 11.76H24.6547V11.36H24.2547V11.76ZM24.2547 15.08V15.48H24.6547V15.08H24.2547ZM19.8547 15.08V14.68H19.4547V15.08H19.8547ZM19.8547 17.68H19.4547V18.08H19.8547V17.68ZM24.5147 17.68H24.9147V17.28H24.5147V17.68ZM24.5147 21V21.4H24.9147V21H24.5147ZM15.9347 21H15.5347V21.4H15.9347V21ZM15.9347 5.92V5.52H15.5347V5.92H15.9347ZM24.5147 5.92H24.9147V5.52H24.5147V5.92ZM24.5147 8.84H19.8547V9.64H24.5147V8.84ZM19.4547 9.24V11.76H20.2547V9.24H19.4547ZM19.8547 12.16H24.2547V11.36H19.8547V12.16ZM23.8547 11.76V15.08H24.6547V11.76H23.8547ZM24.2547 14.68H19.8547V15.48H24.2547V14.68ZM19.4547 15.08V17.68H20.2547V15.08H19.4547ZM19.8547 18.08H24.5147V17.28H19.8547V18.08ZM24.1147 17.68V21H24.9147V17.68H24.1147ZM24.5147 20.6H15.9347V21.4H24.5147V20.6ZM16.3347 21V5.92H15.5347V21H16.3347ZM15.9347 6.32H24.5147V5.52H15.9347V6.32ZM24.1147 5.92V9.24H24.9147V5.92H24.1147ZM32.0609 12.66H31.6609V13.06H32.0609V12.66ZM34.5809 12.18L34.8258 12.4963H34.8258L34.5809 12.18ZM34.5809 9.42L34.8258 9.10371H34.8258L34.5809 9.42ZM32.0609 8.94V8.54H31.6609V8.94H32.0609ZM40.6809 21V21.4H41.4918L40.9983 20.7566L40.6809 21ZM35.8009 21L35.4648 21.2168L35.5829 21.4H35.8009V21ZM32.0609 15.2L32.3971 14.9832L31.6609 13.8416V15.2H32.0609ZM32.0609 21V21.4H32.4609V21H32.0609ZM28.1409 21H27.7409V21.4H28.1409V21ZM28.1409 5.92V5.52H27.7409V5.92H28.1409ZM36.4409 6.3L36.291 6.67091L36.2979 6.67354L36.4409 6.3ZM37.9809 7.3L37.6891 7.57361L37.6936 7.57832L37.9809 7.3ZM38.9009 8.78L38.5242 8.91456L38.5271 8.9224L38.9009 8.78ZM38.3809 13.38L38.0652 13.1344L38.0646 13.1353L38.3809 13.38ZM35.9409 14.82L35.8496 14.4306L35.2466 14.572L35.6235 15.0634L35.9409 14.82ZM32.0609 13.06H32.8009V12.26H32.0609V13.06ZM32.8009 13.06C33.6222 13.06 34.3158 12.8911 34.8258 12.4963L34.3361 11.8637C34.0194 12.1089 33.5264 12.26 32.8009 12.26V13.06ZM34.8258 12.4963C35.3523 12.0887 35.6009 11.503 35.6009 10.8H34.8009C34.8009 11.297 34.6362 11.6313 34.3361 11.8637L34.8258 12.4963ZM35.6009 10.8C35.6009 10.097 35.3523 9.51131 34.8258 9.10371L34.3361 9.73629C34.6362 9.96869 34.8009 10.303 34.8009 10.8H35.6009ZM34.8258 9.10371C34.3158 8.70888 33.6222 8.54 32.8009 8.54V9.34C33.5264 9.34 34.0194 9.49111 34.3361 9.73629L34.8258 9.10371ZM32.8009 8.54H32.0609V9.34H32.8009V8.54ZM31.6609 8.94V12.66H32.4609V8.94H31.6609ZM40.6809 20.6H35.8009V21.4H40.6809V20.6ZM36.1371 20.7832L32.3971 14.9832L31.7248 15.4168L35.4648 21.2168L36.1371 20.7832ZM31.6609 15.2V21H32.4609V15.2H31.6609ZM32.0609 20.6H28.1409V21.4H32.0609V20.6ZM28.5409 21V5.92H27.7409V21H28.5409ZM28.1409 6.32H34.2409V5.52H28.1409V6.32ZM34.2409 6.32C35.0416 6.32 35.722 6.44082 36.291 6.67084L36.5909 5.92916C35.9065 5.65251 35.1203 5.52 34.2409 5.52V6.32ZM36.2979 6.67354C36.8764 6.89509 37.3362 7.19714 37.6891 7.57358L38.2728 7.02642C37.8257 6.54953 37.2588 6.1849 36.584 5.92646L36.2979 6.67354ZM37.6936 7.57832C38.0672 7.96394 38.3434 8.40824 38.5242 8.91453L39.2776 8.64547C39.0585 8.03176 38.7213 7.48939 38.2682 7.02168L37.6936 7.57832ZM38.5271 8.9224C38.722 9.43391 38.8209 9.98533 38.8209 10.58H39.6209C39.6209 9.89467 39.5065 9.24609 39.2747 8.6376L38.5271 8.9224ZM38.8209 10.58C38.8209 11.661 38.5578 12.501 38.0652 13.1344L38.6967 13.6256C39.324 12.819 39.6209 11.7923 39.6209 10.58H38.8209ZM38.0646 13.1353C37.5866 13.7531 36.8624 14.193 35.8496 14.4306L36.0323 15.2094C37.1795 14.9403 38.082 14.4202 38.6973 13.6247L38.0646 13.1353ZM35.6235 15.0634L40.3635 21.2434L40.9983 20.7566L36.2583 14.5766L35.6235 15.0634ZM51.7606 9.24V9.64H52.1606V9.24H51.7606ZM47.0406 9.24V8.84H46.6406V9.24H47.0406ZM47.0406 11.76H46.6406V12.16H47.0406V11.76ZM51.3406 11.76H51.7406V11.36H51.3406V11.76ZM51.3406 15.08V15.48H51.7406V15.08H51.3406ZM47.0406 15.08V14.68H46.6406V15.08H47.0406ZM47.0406 21V21.4H47.4406V21H47.0406ZM43.1206 21H42.7206V21.4H43.1206V21ZM43.1206 5.92V5.52H42.7206V5.92H43.1206ZM51.7606 5.92H52.1606V5.52H51.7606V5.92ZM51.7606 8.84H47.0406V9.64H51.7606V8.84ZM46.6406 9.24V11.76H47.4406V9.24H46.6406ZM47.0406 12.16H51.3406V11.36H47.0406V12.16ZM50.9406 11.76V15.08H51.7406V11.76H50.9406ZM51.3406 14.68H47.0406V15.48H51.3406V14.68ZM46.6406 15.08V21H47.4406V15.08H46.6406ZM47.0406 20.6H43.1206V21.4H47.0406V20.6ZM43.5206 21V5.92H42.7206V21H43.5206ZM43.1206 6.32H51.7606V5.52H43.1206V6.32ZM51.3606 5.92V9.24H52.1606V5.92H51.3606ZM63.4772 9.24V9.64H63.8772V9.24H63.4772ZM58.8172 9.24V8.84H58.4172V9.24H58.8172ZM58.8172 11.76H58.4172V12.16H58.8172V11.76ZM63.2172 11.76H63.6172V11.36H63.2172V11.76ZM63.2172 15.08V15.48H63.6172V15.08H63.2172ZM58.8172 15.08V14.68H58.4172V15.08H58.8172ZM58.8172 17.68H58.4172V18.08H58.8172V17.68ZM63.4772 17.68H63.8772V17.28H63.4772V17.68ZM63.4772 21V21.4H63.8772V21H63.4772ZM54.8972 21H54.4972V21.4H54.8972V21ZM54.8972 5.92V5.52H54.4972V5.92H54.8972ZM63.4772 5.92H63.8772V5.52H63.4772V5.92ZM63.4772 8.84H58.8172V9.64H63.4772V8.84ZM58.4172 9.24V11.76H59.2172V9.24H58.4172ZM58.8172 12.16H63.2172V11.36H58.8172V12.16ZM62.8172 11.76V15.08H63.6172V11.76H62.8172ZM63.2172 14.68H58.8172V15.48H63.2172V14.68ZM58.4172 15.08V17.68H59.2172V15.08H58.4172ZM58.8172 18.08H63.4772V17.28H58.8172V18.08ZM63.0772 17.68V21H63.8772V17.68H63.0772ZM63.4772 20.6H54.8972V21.4H63.4772V20.6ZM55.2972 21V5.92H54.4972V21H55.2972ZM54.8972 6.32H63.4772V5.52H54.8972V6.32ZM63.0772 5.92V9.24H63.8772V5.92H63.0772ZM77.9634 10.96L77.654 11.2135L78.3634 12.0794V10.96H77.9634ZM72.9634 9.62L72.8082 9.25133L72.8047 9.25286L72.9634 9.62ZM71.6834 10.5L71.9663 10.7829L71.9714 10.7777L71.6834 10.5ZM70.8234 11.8L70.4547 11.6447L70.4514 11.6531L70.8234 11.8ZM70.8234 15.1L70.4513 15.2469L70.4548 15.2552L70.8234 15.1ZM71.6834 16.42L71.3955 16.6977L71.4006 16.7028L71.6834 16.42ZM72.9834 17.3L72.8247 17.6671L72.9834 17.3ZM77.9634 16.02H78.3634V15.0085L77.6716 15.7464L77.9634 16.02ZM77.9634 20.66L78.0956 21.0375L78.3634 20.9438V20.66H77.9634ZM77.5634 20.8L77.4313 20.4225L77.4294 20.4231L77.5634 20.8ZM75.8834 21.26L75.8128 20.8662L75.8031 20.8682L75.8834 21.26ZM71.3434 20.84L71.1877 21.2085L71.194 21.211L71.3434 20.84ZM68.8234 19.18L68.5405 19.4629L68.5459 19.468L68.8234 19.18ZM67.0834 16.64L66.7181 16.8029L66.7189 16.8048L67.0834 16.64ZM67.0634 10.24L66.6989 10.0752L66.6979 10.0775L67.0634 10.24ZM68.8034 7.74L69.0809 8.02813L69.081 8.02803L68.8034 7.74ZM71.3434 6.1L71.4929 6.47106L71.4973 6.46923L71.3434 6.1ZM76.1234 5.7L76.0328 6.08974L76.0433 6.09189L76.1234 5.7ZM77.9634 6.28H78.3634V6.01333L78.1173 5.91077L77.9634 6.28ZM78.2729 10.7065C77.2966 9.51484 76.0663 8.9 74.6034 8.9V9.7C75.8072 9.7 76.817 10.1918 77.654 11.2135L78.2729 10.7065ZM74.6034 8.9C73.9671 8.9 73.3673 9.01596 72.8082 9.25135L73.1187 9.98865C73.573 9.79737 74.0665 9.7 74.6034 9.7V8.9ZM72.8047 9.25286C72.2646 9.48641 71.7936 9.80955 71.3955 10.2223L71.9714 10.7777C72.2933 10.4438 72.6756 10.1803 73.1222 9.98714L72.8047 9.25286ZM71.4006 10.2172C71.0012 10.6166 70.6866 11.0943 70.4548 11.6448L71.1921 11.9552C71.387 11.4924 71.6457 11.1034 71.9663 10.7828L71.4006 10.2172ZM70.4514 11.6531C70.2315 12.2101 70.1234 12.807 70.1234 13.44H70.9234C70.9234 12.8997 71.0153 12.4033 71.1955 11.9469L70.4514 11.6531ZM70.1234 13.44C70.1234 14.0852 70.2311 14.6889 70.4514 15.2469L71.1955 14.9531C71.0157 14.4978 70.9234 13.9948 70.9234 13.44H70.1234ZM70.4548 15.2552C70.6861 15.8046 70.9993 16.2867 71.3955 16.6977L71.9714 16.1423C71.6476 15.8066 71.3875 15.4088 71.1921 14.9448L70.4548 15.2552ZM71.4006 16.7028C71.8102 17.1125 72.2859 17.4342 72.8247 17.6671L73.1422 16.9329C72.6943 16.7392 72.3033 16.4742 71.9663 16.1372L71.4006 16.7028ZM72.8247 17.6671C73.3714 17.9036 73.9592 18.02 74.5834 18.02V17.22C74.061 17.22 73.5821 17.1231 73.1422 16.9329L72.8247 17.6671ZM74.5834 18.02C75.9659 18.02 77.1934 17.4262 78.2553 16.2936L77.6716 15.7464C76.7335 16.7471 75.7076 17.22 74.5834 17.22V18.02ZM77.5634 16.02V20.66H78.3634V16.02H77.5634ZM77.8313 20.2825L77.4313 20.4225L77.6956 21.1775L78.0956 21.0375L77.8313 20.2825ZM77.4294 20.4231C76.846 20.6306 76.3074 20.7775 75.8128 20.8663L75.9541 21.6537C76.4995 21.5558 77.0809 21.3961 77.6974 21.1769L77.4294 20.4231ZM75.8031 20.8682C75.3083 20.9697 74.8219 21.02 74.3434 21.02V21.82C74.8784 21.82 75.4186 21.7637 75.9638 21.6518L75.8031 20.8682ZM74.3434 21.02C73.3544 21.02 72.4051 20.8364 71.4929 20.469L71.194 21.211C72.2017 21.6169 73.2525 21.82 74.3434 21.82V21.02ZM71.4991 20.4715C70.5973 20.0905 69.7987 19.5643 69.101 18.892L68.5459 19.468C69.3149 20.2091 70.1963 20.7895 71.1878 21.2085L71.4991 20.4715ZM69.1063 18.8972C68.422 18.2129 67.869 17.4068 67.4479 16.4752L66.7189 16.8048C67.1778 17.8199 67.7848 18.7071 68.5406 19.4628L69.1063 18.8972ZM67.4488 16.4771C67.0333 15.5454 66.8234 14.5281 66.8234 13.42H66.0234C66.0234 14.6319 66.2536 15.7613 66.7181 16.8029L67.4488 16.4771ZM66.8234 13.42C66.8234 12.3101 67.0273 11.3062 67.429 10.4025L66.6979 10.0775C66.2462 11.0938 66.0234 12.2099 66.0234 13.42H66.8234ZM67.4279 10.4048C67.8485 9.4745 68.3999 8.68388 69.0809 8.02813L68.526 7.45187C67.767 8.18279 67.1584 9.05883 66.699 10.0752L67.4279 10.4048ZM69.081 8.02803C69.7767 7.35759 70.5797 6.83883 71.4929 6.47103L71.194 5.72896C70.1871 6.1345 69.2968 6.70908 68.5259 7.45197L69.081 8.02803ZM71.4973 6.46923C72.4079 6.08981 73.3622 5.9 74.3634 5.9V5.1C73.258 5.1 72.199 5.31019 71.1896 5.73077L71.4973 6.46923ZM74.3634 5.9C74.9335 5.9 75.4898 5.96331 76.0328 6.0896L76.214 5.3104C75.6104 5.17002 74.9933 5.1 74.3634 5.1V5.9ZM76.0433 6.09189C76.6011 6.20599 77.1897 6.39096 77.8096 6.64923L78.1173 5.91077C77.4571 5.63571 76.8191 5.43401 76.2036 5.30811L76.0433 6.09189ZM77.5634 6.28V10.96H78.3634V6.28H77.5634ZM87.5633 9.24V8.84H87.1633V9.24H87.5633ZM87.5633 21V21.4H87.9633V21H87.5633ZM83.6433 21H83.2433V21.4H83.6433V21ZM83.6433 9.24H84.0433V8.84H83.6433V9.24ZM80.4233 9.24H80.0233V9.64H80.4233V9.24ZM80.4233 5.92V5.52H80.0233V5.92H80.4233ZM90.7833 5.92H91.1833V5.52H90.7833V5.92ZM90.7833 9.24V9.64H91.1833V9.24H90.7833ZM87.1633 9.24V21H87.9633V9.24H87.1633ZM87.5633 20.6H83.6433V21.4H87.5633V20.6ZM84.0433 21V9.24H83.2433V21H84.0433ZM83.6433 8.84H80.4233V9.64H83.6433V8.84ZM80.8233 9.24V5.92H80.0233V9.24H80.8233ZM80.4233 6.32H90.7833V5.52H80.4233V6.32ZM90.3833 5.92V9.24H91.1833V5.92H90.3833ZM90.7833 8.84H87.5633V9.64H90.7833V8.84ZM97.6869 15.12L98.052 14.9567L97.6869 15.12ZM98.6069 16.44L98.8847 16.1522L98.6069 16.44ZM99.9469 17.32L99.7916 17.6888L99.8033 17.6933L99.9469 17.32ZM103.207 17.32L103.354 17.6921L103.359 17.6901L103.207 17.32ZM104.567 16.44L104.294 16.1475L104.289 16.1522L104.567 16.44ZM105.507 15.12L105.872 15.2833L105.507 15.12ZM105.507 11.8L105.872 11.6367V11.6367L105.507 11.8ZM104.567 10.48L104.289 10.7678L104.294 10.7724L104.567 10.48ZM103.207 9.62L103.052 9.98884L103.063 9.99334L103.207 9.62ZM99.9469 9.62L100.094 9.99209L100.099 9.99007L99.9469 9.62ZM98.6069 10.48L98.8847 10.7678L98.6069 10.48ZM97.6869 11.8L98.052 11.9633H98.052L97.6869 11.8ZM93.8669 10.34L94.2343 10.4982L94.2351 10.4963L93.8669 10.34ZM95.5869 7.8L95.3066 7.51457L95.5869 7.8ZM98.2069 6.12L98.3537 6.49207L98.3563 6.49106L98.2069 6.12ZM104.947 6.12L104.797 6.49108L104.802 6.49271L104.947 6.12ZM107.587 7.8L107.307 8.08544L107.309 8.08794L107.587 7.8ZM109.327 10.34L108.959 10.4964L108.959 10.4982L109.327 10.34ZM109.327 16.6L109.694 16.7582L109.695 16.7563L109.327 16.6ZM107.587 19.12L107.309 18.8321L107.307 18.8346L107.587 19.12ZM104.947 20.82L105.092 21.1927L105.096 21.1911L104.947 20.82ZM98.2069 20.82L98.0558 21.1904L98.0617 21.1927L98.2069 20.82ZM95.5869 19.12L95.3066 19.4054L95.5869 19.12ZM93.8669 16.6L93.4987 16.7564L93.4995 16.7582L93.8669 16.6ZM96.9469 13.46C96.9469 14.1117 97.0703 14.7212 97.3218 15.2833L98.052 14.9567C97.8501 14.5054 97.7469 14.0083 97.7469 13.46H96.9469ZM97.3218 15.2833C97.5686 15.8351 97.9044 16.3178 98.329 16.7278L98.8847 16.1522C98.536 15.8156 98.2585 15.4182 98.052 14.9567L97.3218 15.2833ZM98.329 16.7278C98.7521 17.1362 99.2405 17.4566 99.7917 17.6887L100.102 16.9513C99.6399 16.7567 99.235 16.4905 98.8847 16.1522L98.329 16.7278ZM99.8033 17.6933C100.37 17.9115 100.966 18.02 101.587 18.02V17.22C101.061 17.22 100.563 17.1285 100.09 16.9467L99.8033 17.6933ZM101.587 18.02C102.208 18.02 102.798 17.9115 103.354 17.6921L103.06 16.9479C102.603 17.1285 102.113 17.22 101.587 17.22V18.02ZM103.359 17.6901C103.923 17.4584 104.42 17.1379 104.845 16.7278L104.289 16.1522C103.94 16.4888 103.53 16.7549 103.055 16.9499L103.359 17.6901ZM104.84 16.7324C105.279 16.3221 105.624 15.838 105.872 15.2833L105.142 14.9567C104.937 15.4153 104.654 15.8112 104.294 16.1476L104.84 16.7324ZM105.872 15.2833C106.123 14.7212 106.247 14.1117 106.247 13.46H105.447C105.447 14.0083 105.344 14.5054 105.142 14.9567L105.872 15.2833ZM106.247 13.46C106.247 12.8083 106.123 12.1988 105.872 11.6367L105.142 11.9633C105.344 12.4146 105.447 12.9117 105.447 13.46H106.247ZM105.872 11.6367C105.624 11.082 105.279 10.5979 104.84 10.1876L104.294 10.7724C104.654 11.1088 104.937 11.5047 105.142 11.9633L105.872 11.6367ZM104.845 10.1922C104.418 9.78031 103.919 9.46519 103.35 9.24666L103.063 9.99334C103.535 10.1748 103.942 10.433 104.289 10.7678L104.845 10.1922ZM103.362 9.25135C102.804 9.01644 102.211 8.9 101.587 8.9V9.7C102.109 9.7 102.596 9.7969 103.052 9.98865L103.362 9.25135ZM101.587 8.9C100.963 8.9 100.364 9.01643 99.7951 9.24993L100.099 9.99007C100.57 9.7969 101.065 9.7 101.587 9.7V8.9ZM99.8 9.24794C99.2453 9.46692 98.7539 9.782 98.329 10.1922L98.8847 10.7678C99.2332 10.4313 99.6352 10.1731 100.094 9.99206L99.8 9.24794ZM98.329 10.1922C97.9044 10.6022 97.5686 11.0849 97.3218 11.6367L98.052 11.9633C98.2585 11.5018 98.536 11.1044 98.8847 10.7678L98.329 10.1922ZM97.3218 11.6367C97.0703 12.1988 96.9469 12.8083 96.9469 13.46H97.7469C97.7469 12.9117 97.8501 12.4146 98.052 11.9633L97.3218 11.6367ZM93.6469 13.46C93.6469 12.3905 93.844 11.4047 94.2343 10.4982L93.4995 10.1818C93.0631 11.1953 92.8469 12.2895 92.8469 13.46H93.6469ZM94.2351 10.4963C94.6284 9.56997 95.1724 8.76752 95.8671 8.08543L95.3066 7.51457C94.5347 8.27248 93.932 9.16336 93.4987 10.1836L94.2351 10.4963ZM95.8671 8.08543C96.56 7.40516 97.3872 6.8736 98.3537 6.49206L98.06 5.74794C96.9999 6.1664 96.0804 6.75484 95.3066 7.51457L95.8671 8.08543ZM98.3563 6.49106C99.3306 6.09881 100.406 5.9 101.587 5.9V5.1C100.315 5.1 99.1365 5.31452 98.0575 5.74894L98.3563 6.49106ZM101.587 5.9C102.754 5.9 103.823 6.09861 104.797 6.49106L105.096 5.74894C104.018 5.31473 102.846 5.1 101.587 5.1V5.9ZM104.802 6.49271C105.782 6.87449 106.615 7.40604 107.307 8.08543L107.867 7.51457C107.092 6.75396 106.166 6.16551 105.092 5.74729L104.802 6.49271ZM107.309 8.08794C108.016 8.76987 108.566 9.57153 108.959 10.4963L109.695 10.1836C109.261 9.1618 108.651 8.27013 107.865 7.51206L107.309 8.08794ZM108.959 10.4982C109.35 11.4047 109.547 12.3905 109.547 13.46H110.347C110.347 12.2895 110.131 11.1953 109.694 10.1818L108.959 10.4982ZM109.547 13.46C109.547 14.5295 109.35 15.5227 108.959 16.4436L109.695 16.7563C110.131 15.7307 110.347 14.6305 110.347 13.46H109.547ZM108.959 16.4418C108.567 17.3534 108.017 18.1492 107.309 18.8321L107.865 19.4079C108.65 18.6508 109.26 17.7666 109.694 16.7582L108.959 16.4418ZM107.307 18.8346C106.614 19.5149 105.779 20.0537 104.797 20.4489L105.096 21.1911C106.168 20.7596 107.093 20.1651 107.867 19.4054L107.307 18.8346ZM104.802 20.4473C103.826 20.8275 102.756 21.02 101.587 21.02V21.82C102.845 21.82 104.015 21.6125 105.092 21.1927L104.802 20.4473ZM101.587 21.02C100.404 21.02 99.3275 20.8273 98.3521 20.4473L98.0617 21.1927C99.1396 21.6127 100.316 21.82 101.587 21.82V21.02ZM98.3579 20.4496C97.3896 20.0546 96.561 19.5158 95.8671 18.8346L95.3066 19.4054C96.0795 20.1642 96.9975 20.7587 98.0558 21.1904L98.3579 20.4496ZM95.8671 18.8346C95.1715 18.1516 94.6274 17.355 94.2343 16.4418L93.4995 16.7582C93.933 17.765 94.5356 18.6484 95.3066 19.4054L95.8671 18.8346ZM94.2351 16.4437C93.8439 15.5227 93.6469 14.5295 93.6469 13.46H92.8469C92.8469 14.6305 93.0631 15.7307 93.4987 16.7563L94.2351 16.4437Z" fill="#150909"/>
</svg>
