<svg width="43" height="27" viewBox="0 0 43 27" fill="none" xmlns="http://www.w3.org/2000/svg">
<path d="M20.3218 24.4806C20.4257 24.5698 20.5368 24.659 20.6461 24.7463C18.4664 26.2201 15.9056 27.0044 13.2874 27C11.214 26.9999 9.16938 26.5069 7.31708 25.5604C5.46478 24.6139 3.8562 23.2401 2.62001 21.5489C1.38382 19.8577 0.554314 17.8961 0.197849 15.8209C-0.158616 13.7458 -0.0321498 11.6147 0.567132 9.59804C1.16641 7.58141 2.22188 5.73526 3.64911 4.20723C5.07634 2.6792 6.83572 1.51171 8.78653 0.798138C10.7373 0.0845639 12.8255 -0.155289 14.8838 0.0977623C16.9422 0.350814 18.9137 1.08975 20.6407 2.25546C20.5332 2.3483 20.4257 2.43386 20.3451 2.52852C18.793 3.88913 17.5477 5.57359 16.694 7.46718C15.8403 9.36078 15.3983 11.419 15.3981 13.5018C15.3985 15.583 15.8383 17.64 16.6876 19.5339C17.537 21.4278 18.7763 23.1146 20.3218 24.4806ZM29.7124 0.00182267C26.9889 0.00182267 24.4608 0.831919 22.3572 2.25546C22.4647 2.3483 22.5722 2.43386 22.6529 2.52852C24.205 3.88913 25.4503 5.57359 26.304 7.46718C27.1576 9.36078 27.5996 11.419 27.5999 13.5018C27.5987 15.5829 27.1587 17.6396 26.3094 19.5334C25.46 21.4272 24.2212 23.1141 22.6762 24.4806C22.5722 24.5698 22.4612 24.659 22.3519 24.7463C24.5313 26.2206 27.0922 27.0049 29.7106 27C31.4557 27.0007 33.1838 26.6521 34.7962 25.974C36.4087 25.296 37.8738 24.3018 39.1079 23.0483C40.3421 21.7948 41.321 20.3065 41.9888 18.6685C42.6566 17.0304 43.0002 15.2748 43 13.5018C42.9995 9.92154 41.5994 6.48804 39.1076 3.95641C36.6158 1.42478 33.2363 0.00230535 29.7124 0.00182267ZM21.499 2.89624C19.9161 4.15645 18.6367 5.76649 17.7578 7.60413C16.8789 9.44177 16.4236 11.4587 16.4265 13.5018C16.4231 15.5453 16.8781 17.5627 17.757 19.4007C18.636 21.2387 19.9157 22.849 21.499 24.1092C23.0819 22.8486 24.3613 21.2382 25.2402 19.4003C26.1191 17.5624 26.5744 15.5452 26.5714 13.5018C26.5744 11.4587 26.1191 9.44177 25.2402 7.60413C24.3613 5.76649 23.0818 4.15645 21.499 2.89624Z" fill="black"/>
</svg>
