<svg width="84" height="30" viewBox="0 0 84 30" fill="none" xmlns="http://www.w3.org/2000/svg">
<path d="M3.85 6.288H4.76C5.768 6.288 6.272 5.84933 6.272 4.972C6.272 4.09467 5.768 3.656 4.76 3.656H3.85V6.288ZM3.85 12H1.106V1.444H5.474C6.65933 1.444 7.56467 1.752 8.19 2.368C8.82467 2.984 9.142 3.852 9.142 4.972C9.142 6.092 8.82467 6.96 8.19 7.576C7.56467 8.192 6.65933 8.5 5.474 8.5H3.85V12ZM80.2921 10.656C80.2921 10.432 80.3341 10.222 80.4181 10.026C80.5021 9.82067 80.6187 9.64333 80.7681 9.494C80.9174 9.34467 81.0901 9.228 81.2861 9.144C81.4914 9.06 81.7061 9.018 81.9301 9.018C82.1541 9.018 82.3641 9.06 82.5601 9.144C82.7654 9.228 82.9427 9.34467 83.0921 9.494C83.2414 9.64333 83.3581 9.82067 83.4421 10.026C83.5261 10.222 83.5681 10.432 83.5681 10.656C83.5681 10.88 83.5261 11.0947 83.4421 11.3C83.3581 11.496 83.2414 11.6687 83.0921 11.818C82.9427 11.9673 82.7654 12.084 82.5601 12.168C82.3641 12.252 82.1541 12.294 81.9301 12.294C81.7061 12.294 81.4914 12.252 81.2861 12.168C81.0901 12.084 80.9174 11.9673 80.7681 11.818C80.6187 11.6687 80.5021 11.496 80.4181 11.3C80.3341 11.0947 80.2921 10.88 80.2921 10.656ZM6.902 21.146C6.60333 20.9033 6.30467 20.726 6.006 20.614C5.70733 20.4927 5.418 20.432 5.138 20.432C4.78333 20.432 4.494 20.516 4.27 20.684C4.046 20.852 3.934 21.0713 3.934 21.342C3.934 21.5287 3.99 21.6827 4.102 21.804C4.214 21.9253 4.35867 22.0327 4.536 22.126C4.72267 22.21 4.928 22.2847 5.152 22.35C5.38533 22.4153 5.614 22.4853 5.838 22.56C6.734 22.8587 7.38733 23.26 7.798 23.764C8.218 24.2587 8.428 24.9073 8.428 25.71C8.428 26.2513 8.33467 26.7413 8.148 27.18C7.97067 27.6187 7.70467 27.9967 7.35 28.314C7.00467 28.622 6.57533 28.86 6.062 29.028C5.558 29.2053 4.984 29.294 4.34 29.294C3.00533 29.294 1.76867 28.8973 0.63 28.104L1.806 25.892C2.21667 26.256 2.62267 26.5267 3.024 26.704C3.42533 26.8813 3.822 26.97 4.214 26.97C4.662 26.97 4.99333 26.8673 5.208 26.662C5.432 26.4567 5.544 26.2233 5.544 25.962C5.544 25.8033 5.516 25.668 5.46 25.556C5.404 25.4347 5.31067 25.3273 5.18 25.234C5.04933 25.1313 4.87667 25.038 4.662 24.954C4.45667 24.87 4.20467 24.7767 3.906 24.674C3.55133 24.562 3.20133 24.4407 2.856 24.31C2.52 24.17 2.21667 23.988 1.946 23.764C1.68467 23.54 1.47 23.26 1.302 22.924C1.14333 22.5787 1.064 22.1447 1.064 21.622C1.064 21.0993 1.148 20.628 1.316 20.208C1.49333 19.7787 1.736 19.4147 2.044 19.116C2.36133 18.808 2.744 18.57 3.192 18.402C3.64933 18.234 4.158 18.15 4.718 18.15C5.24067 18.15 5.78667 18.2247 6.356 18.374C6.92533 18.514 7.47133 18.724 7.994 19.004L6.902 21.146ZM12.9008 22.518H16.8628V18.444H19.6068V29H16.8628V24.646H12.9008V29H10.1568V18.444H12.9008V22.518ZM24.2129 23.722C24.2129 24.142 24.2922 24.5293 24.4509 24.884C24.6096 25.2387 24.8242 25.5467 25.0949 25.808C25.3656 26.0693 25.6782 26.2747 26.0329 26.424C26.3969 26.564 26.7796 26.634 27.1809 26.634C27.5822 26.634 27.9602 26.564 28.3149 26.424C28.6789 26.2747 28.9962 26.0693 29.2669 25.808C29.5469 25.5467 29.7662 25.2387 29.9249 24.884C30.0836 24.5293 30.1629 24.142 30.1629 23.722C30.1629 23.302 30.0836 22.9147 29.9249 22.56C29.7662 22.2053 29.5469 21.8973 29.2669 21.636C28.9962 21.3747 28.6789 21.174 28.3149 21.034C27.9602 20.8847 27.5822 20.81 27.1809 20.81C26.7796 20.81 26.3969 20.8847 26.0329 21.034C25.6782 21.174 25.3656 21.3747 25.0949 21.636C24.8242 21.8973 24.6096 22.2053 24.4509 22.56C24.2922 22.9147 24.2129 23.302 24.2129 23.722ZM21.3429 23.722C21.3429 22.938 21.4876 22.21 21.7769 21.538C22.0662 20.8567 22.4676 20.264 22.9809 19.76C23.4942 19.256 24.1056 18.864 24.8149 18.584C25.5336 18.2947 26.3222 18.15 27.1809 18.15C28.0302 18.15 28.8142 18.2947 29.5329 18.584C30.2516 18.864 30.8676 19.256 31.3809 19.76C31.9036 20.264 32.3096 20.8567 32.5989 21.538C32.8882 22.21 33.0329 22.938 33.0329 23.722C33.0329 24.506 32.8882 25.2387 32.5989 25.92C32.3096 26.592 31.9036 27.18 31.3809 27.684C30.8676 28.188 30.2516 28.5847 29.5329 28.874C28.8142 29.154 28.0302 29.294 27.1809 29.294C26.3222 29.294 25.5336 29.154 24.8149 28.874C24.1056 28.5847 23.4942 28.188 22.9809 27.684C22.4676 27.18 22.0662 26.592 21.7769 25.92C21.4876 25.2387 21.3429 24.506 21.3429 23.722ZM37.5102 23.288H38.4202C39.4282 23.288 39.9322 22.8493 39.9322 21.972C39.9322 21.0947 39.4282 20.656 38.4202 20.656H37.5102V23.288ZM37.5102 29H34.7662V18.444H39.1342C40.3195 18.444 41.2248 18.752 41.8502 19.368C42.4848 19.984 42.8022 20.852 42.8022 21.972C42.8022 23.092 42.4848 23.96 41.8502 24.576C41.2248 25.192 40.3195 25.5 39.1342 25.5H37.5102V29ZM46.9984 23.288H47.9084C48.9164 23.288 49.4204 22.8493 49.4204 21.972C49.4204 21.0947 48.9164 20.656 47.9084 20.656H46.9984V23.288ZM46.9984 29H44.2544V18.444H48.6224C49.8078 18.444 50.7131 18.752 51.3384 19.368C51.9731 19.984 52.2904 20.852 52.2904 21.972C52.2904 23.092 51.9731 23.96 51.3384 24.576C50.7131 25.192 49.8078 25.5 48.6224 25.5H46.9984V29ZM56.4867 18.444V29H53.7427V18.444H56.4867ZM58.6919 29V18.444H61.4359L66.5039 24.898V18.444H69.2339V29H66.5039L61.4359 22.546V29H58.6919ZM76.7772 23.092H82.2232C82.2232 23.652 82.1999 24.1607 82.1532 24.618C82.1065 25.0753 82.0132 25.5 81.8732 25.892C81.6772 26.4427 81.4112 26.9327 81.0752 27.362C80.7392 27.782 80.3425 28.1367 79.8852 28.426C79.4372 28.706 78.9425 28.9207 78.4012 29.07C77.8599 29.2193 77.2905 29.294 76.6932 29.294C75.8719 29.294 75.1205 29.1587 74.4392 28.888C73.7672 28.6173 73.1885 28.2393 72.7032 27.754C72.2179 27.2593 71.8399 26.6713 71.5692 25.99C71.2985 25.2993 71.1632 24.5387 71.1632 23.708C71.1632 22.8867 71.2939 22.1353 71.5552 21.454C71.8259 20.7633 72.2039 20.1753 72.6892 19.69C73.1839 19.2047 73.7765 18.8267 74.4672 18.556C75.1579 18.2853 75.9279 18.15 76.7772 18.15C77.8785 18.15 78.8445 18.388 79.6752 18.864C80.5059 19.34 81.1639 20.0773 81.6492 21.076L79.0452 22.154C78.8025 21.5753 78.4852 21.16 78.0932 20.908C77.7105 20.656 77.2719 20.53 76.7772 20.53C76.3665 20.53 75.9932 20.6093 75.6572 20.768C75.3212 20.9173 75.0319 21.1367 74.7892 21.426C74.5559 21.706 74.3692 22.0467 74.2292 22.448C74.0985 22.8493 74.0332 23.2973 74.0332 23.792C74.0332 24.24 74.0892 24.6553 74.2012 25.038C74.3225 25.4207 74.4999 25.752 74.7332 26.032C74.9665 26.312 75.2559 26.5313 75.6012 26.69C75.9465 26.8393 76.3479 26.914 76.8052 26.914C77.0759 26.914 77.3372 26.886 77.5892 26.83C77.8412 26.7647 78.0652 26.6667 78.2612 26.536C78.4665 26.396 78.6345 26.2187 78.7652 26.004C78.8959 25.7893 78.9845 25.528 79.0312 25.22H76.7772V23.092Z" fill="#FF0000"/>
<path d="M17.4403 3.768H14.1783V5.532H17.2583V7.856H14.1783V9.676H17.4403V12H11.4343V1.444H17.4403V3.768ZM37.0724 3.768H33.7684V5.532H36.7784V7.856H33.7684V12H31.0244V1.444H37.0724V3.768ZM55.9744 4.972C55.3397 4.19733 54.5557 3.81 53.6224 3.81C53.2117 3.81 52.8291 3.88467 52.4744 4.034C52.1291 4.18333 51.8304 4.38867 51.5784 4.65C51.3264 4.902 51.1257 5.20533 50.9764 5.56C50.8364 5.91467 50.7664 6.29733 50.7664 6.708C50.7664 7.128 50.8364 7.51533 50.9764 7.87C51.1257 8.22467 51.3264 8.53267 51.5784 8.794C51.8397 9.05533 52.1431 9.26067 52.4884 9.41C52.8337 9.55933 53.2071 9.634 53.6084 9.634C54.4857 9.634 55.2744 9.26067 55.9744 8.514V11.762L55.6944 11.86C55.2744 12.0093 54.8824 12.1167 54.5184 12.182C54.1544 12.2567 53.7951 12.294 53.4404 12.294C52.7124 12.294 52.0124 12.1587 51.3404 11.888C50.6777 11.608 50.0897 11.2207 49.5764 10.726C49.0724 10.222 48.6664 9.62933 48.3584 8.948C48.0504 8.25733 47.8964 7.506 47.8964 6.694C47.8964 5.882 48.0457 5.14 48.3444 4.468C48.6524 3.78667 49.0584 3.20333 49.5624 2.718C50.0757 2.22333 50.6684 1.84067 51.3404 1.57C52.0124 1.29 52.7171 1.15 53.4544 1.15C53.8744 1.15 54.2851 1.19667 54.6864 1.29C55.0971 1.374 55.5264 1.50933 55.9744 1.696V4.972Z" fill="white"/>
<path d="M23.0027 6.162H23.5207C24.062 6.162 24.4773 6.05 24.7667 5.826C25.056 5.602 25.2007 5.28 25.2007 4.86C25.2007 4.44 25.056 4.118 24.7667 3.894C24.4773 3.67 24.062 3.558 23.5207 3.558H23.0027V6.162ZM29.0367 12H25.6207L23.0027 7.94V12H20.2587V1.444H24.5287C25.1167 1.444 25.63 1.53267 26.0687 1.71C26.5073 1.878 26.8667 2.11133 27.1467 2.41C27.436 2.70867 27.6507 3.054 27.7907 3.446C27.94 3.838 28.0147 4.258 28.0147 4.706C28.0147 5.50867 27.8187 6.162 27.4267 6.666C27.044 7.16067 26.4747 7.49667 25.7187 7.674L29.0367 12Z" fill="#FFF600"/>
<path d="M45.554 3.768H42.292V5.532H45.372V7.856H42.292V9.676H45.554V12H39.548V1.444H45.554V3.768Z" fill="#00FF29"/>
<path d="M62.5543 3.768V12H59.8103V3.768H57.5563V1.444H64.8083V3.768H62.5543Z" fill="#009BFD"/>
<path d="M69.2628 6.722C69.2628 7.142 69.3421 7.52933 69.5008 7.884C69.6595 8.23867 69.8741 8.54667 70.1448 8.808C70.4155 9.06933 70.7281 9.27467 71.0828 9.424C71.4468 9.564 71.8295 9.634 72.2308 9.634C72.6321 9.634 73.0101 9.564 73.3648 9.424C73.7288 9.27467 74.0461 9.06933 74.3168 8.808C74.5968 8.54667 74.8161 8.23867 74.9748 7.884C75.1335 7.52933 75.2128 7.142 75.2128 6.722C75.2128 6.302 75.1335 5.91467 74.9748 5.56C74.8161 5.20533 74.5968 4.89733 74.3168 4.636C74.0461 4.37467 73.7288 4.174 73.3648 4.034C73.0101 3.88467 72.6321 3.81 72.2308 3.81C71.8295 3.81 71.4468 3.88467 71.0828 4.034C70.7281 4.174 70.4155 4.37467 70.1448 4.636C69.8741 4.89733 69.6595 5.20533 69.5008 5.56C69.3421 5.91467 69.2628 6.302 69.2628 6.722ZM66.3928 6.722C66.3928 5.938 66.5375 5.21 66.8268 4.538C67.1161 3.85667 67.5175 3.264 68.0308 2.76C68.5441 2.256 69.1555 1.864 69.8648 1.584C70.5835 1.29467 71.3721 1.15 72.2308 1.15C73.0801 1.15 73.8641 1.29467 74.5828 1.584C75.3015 1.864 75.9175 2.256 76.4308 2.76C76.9535 3.264 77.3595 3.85667 77.6488 4.538C77.9381 5.21 78.0828 5.938 78.0828 6.722C78.0828 7.506 77.9381 8.23867 77.6488 8.92C77.3595 9.592 76.9535 10.18 76.4308 10.684C75.9175 11.188 75.3015 11.5847 74.5828 11.874C73.8641 12.154 73.0801 12.294 72.2308 12.294C71.3721 12.294 70.5835 12.154 69.8648 11.874C69.1555 11.5847 68.5441 11.188 68.0308 10.684C67.5175 10.18 67.1161 9.592 66.8268 8.92C66.5375 8.23867 66.3928 7.506 66.3928 6.722Z" fill="#F000FF"/>
<path d="M3.85 6.288H3.45V6.688H3.85V6.288ZM3.85 3.656V3.256H3.45V3.656H3.85ZM3.85 12V12.4H4.25V12H3.85ZM1.106 12H0.706V12.4H1.106V12ZM1.106 1.444V1.044H0.706V1.444H1.106ZM8.19 2.368L7.90928 2.65297L7.91141 2.65503L8.19 2.368ZM8.19 7.576L7.9114 7.28896L7.90929 7.29104L8.19 7.576ZM3.85 8.5V8.1H3.45V8.5H3.85ZM3.85 6.688H4.76V5.888H3.85V6.688ZM4.76 6.688C5.31308 6.688 5.80259 6.56885 6.15661 6.26072C6.52124 5.94335 6.672 5.48789 6.672 4.972H5.872C5.872 5.33344 5.77076 5.53598 5.63139 5.65728C5.48141 5.78782 5.21492 5.888 4.76 5.888V6.688ZM6.672 4.972C6.672 4.4561 6.52124 4.00064 6.15661 3.68328C5.80259 3.37515 5.31308 3.256 4.76 3.256V4.056C5.21492 4.056 5.48141 4.15618 5.63139 4.28672C5.77076 4.40802 5.872 4.61056 5.872 4.972H6.672ZM4.76 3.256H3.85V4.056H4.76V3.256ZM3.45 3.656V6.288H4.25V3.656H3.45ZM3.85 11.6H1.106V12.4H3.85V11.6ZM1.506 12V1.444H0.706V12H1.506ZM1.106 1.844H5.474V1.044H1.106V1.844ZM5.474 1.844C6.59205 1.844 7.38197 2.13351 7.90929 2.65296L8.47071 2.08304C7.74737 1.37049 6.72661 1.044 5.474 1.044V1.844ZM7.91141 2.65503C8.44905 3.17686 8.742 3.92972 8.742 4.972H9.542C9.542 3.77428 9.20029 2.79114 8.46859 2.08097L7.91141 2.65503ZM8.742 4.972C8.742 6.01428 8.44905 6.76714 7.91141 7.28897L8.46859 7.86303C9.20029 7.15286 9.542 6.16972 9.542 4.972H8.742ZM7.90929 7.29104C7.38197 7.81049 6.59205 8.1 5.474 8.1V8.9C6.72661 8.9 7.74737 8.57351 8.47071 7.86096L7.90929 7.29104ZM5.474 8.1H3.85V8.9H5.474V8.1ZM3.45 8.5V12H4.25V8.5H3.45ZM17.4403 3.768V4.168H17.8403V3.768H17.4403ZM14.1783 3.768V3.368H13.7783V3.768H14.1783ZM14.1783 5.532H13.7783V5.932H14.1783V5.532ZM17.2583 5.532H17.6583V5.132H17.2583V5.532ZM17.2583 7.856V8.256H17.6583V7.856H17.2583ZM14.1783 7.856V7.456H13.7783V7.856H14.1783ZM14.1783 9.676H13.7783V10.076H14.1783V9.676ZM17.4403 9.676H17.8403V9.276H17.4403V9.676ZM17.4403 12V12.4H17.8403V12H17.4403ZM11.4343 12H11.0343V12.4H11.4343V12ZM11.4343 1.444V1.044H11.0343V1.444H11.4343ZM17.4403 1.444H17.8403V1.044H17.4403V1.444ZM17.4403 3.368H14.1783V4.168H17.4403V3.368ZM13.7783 3.768V5.532H14.5783V3.768H13.7783ZM14.1783 5.932H17.2583V5.132H14.1783V5.932ZM16.8583 5.532V7.856H17.6583V5.532H16.8583ZM17.2583 7.456H14.1783V8.256H17.2583V7.456ZM13.7783 7.856V9.676H14.5783V7.856H13.7783ZM14.1783 10.076H17.4403V9.276H14.1783V10.076ZM17.0403 9.676V12H17.8403V9.676H17.0403ZM17.4403 11.6H11.4343V12.4H17.4403V11.6ZM11.8343 12V1.444H11.0343V12H11.8343ZM11.4343 1.844H17.4403V1.044H11.4343V1.844ZM17.0403 1.444V3.768H17.8403V1.444H17.0403ZM23.0027 6.162H22.6027V6.562H23.0027V6.162ZM24.7667 5.826L25.0115 6.14229L24.7667 5.826ZM24.7667 3.894L25.0115 3.57771V3.57771L24.7667 3.894ZM23.0027 3.558V3.158H22.6027V3.558H23.0027ZM29.0367 12V12.4H29.8476L29.354 11.7566L29.0367 12ZM25.6207 12L25.2845 12.2168L25.4026 12.4H25.6207V12ZM23.0027 7.94L23.3388 7.72323L22.6027 6.58157V7.94H23.0027ZM23.0027 12V12.4H23.4027V12H23.0027ZM20.2587 12H19.8587V12.4H20.2587V12ZM20.2587 1.444V1.044H19.8587V1.444H20.2587ZM26.0687 1.71L25.9187 2.08091L25.9256 2.08354L26.0687 1.71ZM27.1467 2.41L26.8548 2.68361L26.8594 2.68832L27.1467 2.41ZM27.7907 3.446L27.4139 3.58056L27.4169 3.5884L27.7907 3.446ZM27.4267 6.666L27.1109 6.42042L27.1103 6.42125L27.4267 6.666ZM25.7187 7.674L25.6273 7.28457L25.0243 7.42601L25.4013 7.91744L25.7187 7.674ZM23.0027 6.562H23.5207V5.762H23.0027V6.562ZM23.5207 6.562C24.1099 6.562 24.6255 6.44111 25.0115 6.14229L24.5218 5.50971C24.3291 5.65888 24.0141 5.762 23.5207 5.762V6.562ZM25.0115 6.14229C25.414 5.83069 25.6007 5.38302 25.6007 4.86H24.8007C24.8007 5.17698 24.698 5.37331 24.5218 5.50971L25.0115 6.14229ZM25.6007 4.86C25.6007 4.33698 25.414 3.88931 25.0115 3.57771L24.5218 4.21029C24.698 4.34669 24.8007 4.54302 24.8007 4.86H25.6007ZM25.0115 3.57771C24.6255 3.27888 24.1099 3.158 23.5207 3.158V3.958C24.0141 3.958 24.3291 4.06111 24.5218 4.21029L25.0115 3.57771ZM23.5207 3.158H23.0027V3.958H23.5207V3.158ZM22.6027 3.558V6.162H23.4027V3.558H22.6027ZM29.0367 11.6H25.6207V12.4H29.0367V11.6ZM25.9568 11.7832L23.3388 7.72323L22.6665 8.15677L25.2845 12.2168L25.9568 11.7832ZM22.6027 7.94V12H23.4027V7.94H22.6027ZM23.0027 11.6H20.2587V12.4H23.0027V11.6ZM20.6587 12V1.444H19.8587V12H20.6587ZM20.2587 1.844H24.5287V1.044H20.2587V1.844ZM24.5287 1.844C25.0773 1.844 25.5377 1.92682 25.9187 2.08084L26.2186 1.33916C25.7222 1.13851 25.156 1.044 24.5287 1.044V1.844ZM25.9256 2.08354C26.3161 2.2331 26.6219 2.43514 26.8548 2.68358L27.4385 2.13642C27.1114 1.78753 26.6986 1.5229 26.2117 1.33646L25.9256 2.08354ZM26.8594 2.68832C27.1089 2.94594 27.2931 3.24224 27.414 3.58053L28.1674 3.31147C28.0082 2.86576 27.763 2.47139 27.434 2.13168L26.8594 2.68832ZM27.4169 3.5884C27.5477 3.93191 27.6147 4.30333 27.6147 4.706H28.4147C28.4147 4.21267 28.3323 3.74409 28.1645 3.3036L27.4169 3.5884ZM27.6147 4.706C27.6147 5.44299 27.4356 6.00303 27.1109 6.42042L27.7424 6.91158C28.2018 6.32097 28.4147 5.57434 28.4147 4.706H27.6147ZM27.1103 6.42125C26.7963 6.8271 26.3161 7.123 25.6273 7.28457L25.81 8.06343C26.6332 7.87033 27.2917 7.49423 27.743 6.91075L27.1103 6.42125ZM25.4013 7.91744L28.7193 12.2434L29.354 11.7566L26.036 7.43056L25.4013 7.91744ZM37.0724 3.768V4.168H37.4724V3.768H37.0724ZM33.7684 3.768V3.368H33.3684V3.768H33.7684ZM33.7684 5.532H33.3684V5.932H33.7684V5.532ZM36.7784 5.532H37.1784V5.132H36.7784V5.532ZM36.7784 7.856V8.256H37.1784V7.856H36.7784ZM33.7684 7.856V7.456H33.3684V7.856H33.7684ZM33.7684 12V12.4H34.1684V12H33.7684ZM31.0244 12H30.6244V12.4H31.0244V12ZM31.0244 1.444V1.044H30.6244V1.444H31.0244ZM37.0724 1.444H37.4724V1.044H37.0724V1.444ZM37.0724 3.368H33.7684V4.168H37.0724V3.368ZM33.3684 3.768V5.532H34.1684V3.768H33.3684ZM33.7684 5.932H36.7784V5.132H33.7684V5.932ZM36.3784 5.532V7.856H37.1784V5.532H36.3784ZM36.7784 7.456H33.7684V8.256H36.7784V7.456ZM33.3684 7.856V12H34.1684V7.856H33.3684ZM33.7684 11.6H31.0244V12.4H33.7684V11.6ZM31.4244 12V1.444H30.6244V12H31.4244ZM31.0244 1.844H37.0724V1.044H31.0244V1.844ZM36.6724 1.444V3.768H37.4724V1.444H36.6724ZM45.554 3.768V4.168H45.954V3.768H45.554ZM42.292 3.768V3.368H41.892V3.768H42.292ZM42.292 5.532H41.892V5.932H42.292V5.532ZM45.372 5.532H45.772V5.132H45.372V5.532ZM45.372 7.856V8.256H45.772V7.856H45.372ZM42.292 7.856V7.456H41.892V7.856H42.292ZM42.292 9.676H41.892V10.076H42.292V9.676ZM45.554 9.676H45.954V9.276H45.554V9.676ZM45.554 12V12.4H45.954V12H45.554ZM39.548 12H39.148V12.4H39.548V12ZM39.548 1.444V1.044H39.148V1.444H39.548ZM45.554 1.444H45.954V1.044H45.554V1.444ZM45.554 3.368H42.292V4.168H45.554V3.368ZM41.892 3.768V5.532H42.692V3.768H41.892ZM42.292 5.932H45.372V5.132H42.292V5.932ZM44.972 5.532V7.856H45.772V5.532H44.972ZM45.372 7.456H42.292V8.256H45.372V7.456ZM41.892 7.856V9.676H42.692V7.856H41.892ZM42.292 10.076H45.554V9.276H42.292V10.076ZM45.154 9.676V12H45.954V9.676H45.154ZM45.554 11.6H39.548V12.4H45.554V11.6ZM39.948 12V1.444H39.148V12H39.948ZM39.548 1.844H45.554V1.044H39.548V1.844ZM45.154 1.444V3.768H45.954V1.444H45.154ZM55.9744 4.972L55.665 5.2255L56.3744 6.0914V4.972H55.9744ZM52.4744 4.034L52.3192 3.66533L52.3156 3.66686L52.4744 4.034ZM51.5784 4.65L51.8613 4.93289L51.8663 4.92765L51.5784 4.65ZM50.9764 5.56L50.6077 5.40474L50.6043 5.41313L50.9764 5.56ZM50.9764 7.87L50.6043 8.0169L50.6078 8.02522L50.9764 7.87ZM51.5784 8.794L51.2904 9.0717L51.2956 9.07684L51.5784 8.794ZM52.4884 9.41L52.3296 9.77714L52.4884 9.41ZM55.9744 8.514H56.3744V7.50249L55.6826 8.24042L55.9744 8.514ZM55.9744 11.762L56.1065 12.1395L56.3744 12.0458V11.762H55.9744ZM55.6944 11.86L55.5623 11.4825L55.5604 11.4831L55.6944 11.86ZM54.5184 12.182L54.4477 11.7882L54.438 11.7902L54.5184 12.182ZM51.3404 11.888L51.1847 12.2565L51.191 12.259L51.3404 11.888ZM49.5764 10.726L49.2935 11.0089L49.2989 11.014L49.5764 10.726ZM48.3584 8.948L47.9931 9.11092L47.9939 9.11277L48.3584 8.948ZM48.3444 4.468L47.9799 4.30323L47.9789 4.30554L48.3444 4.468ZM49.5624 2.718L49.8399 3.00613L49.84 3.00603L49.5624 2.718ZM51.3404 1.57L51.4899 1.94106L51.4943 1.93923L51.3404 1.57ZM54.6864 1.29L54.5958 1.67974L54.6063 1.68189L54.6864 1.29ZM55.9744 1.696H56.3744V1.42933L56.1283 1.32677L55.9744 1.696ZM56.2838 4.7185C55.5795 3.85884 54.6853 3.41 53.6224 3.41V4.21C54.4262 4.21 55.1 4.53582 55.665 5.2255L56.2838 4.7185ZM53.6224 3.41C53.1621 3.41 52.7262 3.49396 52.3192 3.66535L52.6296 4.40265C52.9319 4.27537 53.2614 4.21 53.6224 4.21V3.41ZM52.3156 3.66686C51.9236 3.83641 51.5805 4.07155 51.2905 4.37235L51.8663 4.92765C52.0803 4.70579 52.3346 4.53026 52.6332 4.40114L52.3156 3.66686ZM51.2956 4.36716C51.0041 4.65858 50.7756 5.00626 50.6078 5.40478L51.3451 5.71522C51.4759 5.40441 51.6487 5.14542 51.8613 4.93284L51.2956 4.36716ZM50.6043 5.41313C50.4445 5.81806 50.3664 6.25096 50.3664 6.708H51.1664C51.1664 6.34371 51.2283 6.01127 51.3485 5.70687L50.6043 5.41313ZM50.3664 6.708C50.3664 7.17317 50.4441 7.61091 50.6043 8.01687L51.3485 7.72313C51.2287 7.41976 51.1664 7.08283 51.1664 6.708H50.3664ZM50.6078 8.02522C50.7751 8.42257 51.0022 8.77274 51.2905 9.07165L51.8663 8.51635C51.6506 8.29259 51.4764 8.02676 51.3451 7.71478L50.6078 8.02522ZM51.2956 9.07684C51.5932 9.3745 51.9389 9.60815 52.3296 9.77714L52.6472 9.04286C52.3473 8.91318 52.0863 8.73617 51.8613 8.51116L51.2956 9.07684ZM52.3296 9.77714C52.7284 9.94957 53.1562 10.034 53.6084 10.034V9.234C53.258 9.234 52.9391 9.1691 52.6472 9.04286L52.3296 9.77714ZM53.6084 10.034C54.6149 10.034 55.5043 9.60024 56.2662 8.78758L55.6826 8.24042C55.0445 8.92109 54.3566 9.234 53.6084 9.234V10.034ZM55.5744 8.514V11.762H56.3744V8.514H55.5744ZM55.8423 11.3845L55.5623 11.4825L55.8265 12.2375L56.1065 12.1395L55.8423 11.3845ZM55.5604 11.4831C55.157 11.6266 54.7864 11.7275 54.4477 11.7883L54.5891 12.5757C54.9785 12.5058 55.3918 12.3921 55.8284 12.2369L55.5604 11.4831ZM54.438 11.7902C54.0992 11.8597 53.7668 11.894 53.4404 11.894V12.694C53.8233 12.694 54.2096 12.6537 54.5988 12.5738L54.438 11.7902ZM53.4404 11.894C52.7634 11.894 52.1141 11.7684 51.4899 11.517L51.191 12.259C51.9107 12.5489 52.6615 12.694 53.4404 12.694V11.894ZM51.4961 11.5195C50.8782 11.2585 50.3316 10.8983 49.854 10.438L49.2989 11.014C49.8479 11.5431 50.4773 11.9575 51.1847 12.2565L51.4961 11.5195ZM49.8592 10.4432C49.391 9.97492 49.012 9.42279 48.7229 8.78323L47.9939 9.11277C48.3208 9.83588 48.7538 10.4691 49.2936 11.0088L49.8592 10.4432ZM48.7237 8.78509C48.4402 8.14939 48.2964 7.45406 48.2964 6.694H47.4964C47.4964 7.55793 47.6606 8.36527 47.9931 9.11091L48.7237 8.78509ZM48.2964 6.694C48.2964 5.9321 48.4363 5.24621 48.7099 4.63045L47.9789 4.30554C47.6552 5.03379 47.4964 5.8319 47.4964 6.694H48.2964ZM48.7089 4.63277C48.9974 3.9945 49.3749 3.45388 49.8399 3.00613L49.285 2.42987C48.7419 2.95279 48.3074 3.57883 47.9799 4.30323L48.7089 4.63277ZM49.84 3.00603C50.3157 2.54759 50.8647 2.19283 51.4899 1.94103L51.191 1.19897C50.4721 1.4885 49.8358 1.89908 49.2849 2.42997L49.84 3.00603ZM51.4943 1.93923C52.1169 1.67981 52.7692 1.55 53.4544 1.55V0.75C52.665 0.75 51.9079 0.900191 51.1866 1.20077L51.4943 1.93923ZM53.4544 1.55C53.8445 1.55 54.2247 1.59331 54.5958 1.6796L54.777 0.900396C54.3454 0.800022 53.9043 0.75 53.4544 0.75V1.55ZM54.6063 1.68189C54.9881 1.75999 55.3927 1.88696 55.8206 2.06523L56.1283 1.32677C55.6601 1.13171 55.206 0.988008 54.7666 0.898113L54.6063 1.68189ZM55.5744 1.696V4.972H56.3744V1.696H55.5744ZM62.5543 3.768V3.368H62.1543V3.768H62.5543ZM62.5543 12V12.4H62.9543V12H62.5543ZM59.8103 12H59.4103V12.4H59.8103V12ZM59.8103 3.768H60.2103V3.368H59.8103V3.768ZM57.5563 3.768H57.1563V4.168H57.5563V3.768ZM57.5563 1.444V1.044H57.1563V1.444H57.5563ZM64.8083 1.444H65.2083V1.044H64.8083V1.444ZM64.8083 3.768V4.168H65.2083V3.768H64.8083ZM62.1543 3.768V12H62.9543V3.768H62.1543ZM62.5543 11.6H59.8103V12.4H62.5543V11.6ZM60.2103 12V3.768H59.4103V12H60.2103ZM59.8103 3.368H57.5563V4.168H59.8103V3.368ZM57.9563 3.768V1.444H57.1563V3.768H57.9563ZM57.5563 1.844H64.8083V1.044H57.5563V1.844ZM64.4083 1.444V3.768H65.2083V1.444H64.4083ZM64.8083 3.368H62.5543V4.168H64.8083V3.368ZM69.5008 7.884L69.8659 7.72065L69.5008 7.884ZM70.1448 8.808L70.4226 8.52024L70.1448 8.808ZM71.0828 9.424L70.9275 9.79284L70.9392 9.79734L71.0828 9.424ZM73.3648 9.424L73.5117 9.79609L73.5166 9.79407L73.3648 9.424ZM74.3168 8.808L74.0438 8.51554L74.039 8.52024L74.3168 8.808ZM74.9748 7.884L75.3399 8.04735V8.04735L74.9748 7.884ZM74.9748 5.56L75.3399 5.39665V5.39665L74.9748 5.56ZM74.3168 4.636L74.0389 4.9238L74.0439 4.92842L74.3168 4.636ZM73.3648 4.034L73.2095 4.40284L73.2212 4.40734L73.3648 4.034ZM71.0828 4.034L71.2297 4.4061L71.2346 4.40407L71.0828 4.034ZM70.1448 4.636L70.4226 4.92376L70.1448 4.636ZM69.5008 5.56L69.8659 5.72335V5.72335L69.5008 5.56ZM66.8268 4.538L67.1942 4.69618L67.195 4.69435L66.8268 4.538ZM68.0308 2.76L67.7506 2.47457L68.0308 2.76ZM69.8648 1.584L70.0117 1.95607L70.0142 1.95506L69.8648 1.584ZM74.5828 1.584L74.4334 1.95508L74.4376 1.95671L74.5828 1.584ZM76.4308 2.76L76.1506 3.04544L76.1532 3.04794L76.4308 2.76ZM77.6488 4.538L77.2806 4.69435L77.2814 4.69618L77.6488 4.538ZM77.6488 8.92L78.0162 9.07819L78.017 9.07635L77.6488 8.92ZM76.4308 10.684L76.1531 10.3961L76.1506 10.3986L76.4308 10.684ZM74.5828 11.874L74.728 12.2467L74.7322 12.2451L74.5828 11.874ZM69.8648 11.874L69.7137 12.2444L69.7196 12.2467L69.8648 11.874ZM68.0308 10.684L67.7506 10.9694L68.0308 10.684ZM66.8268 8.92L66.4586 9.07635L66.4594 9.07818L66.8268 8.92ZM68.8628 6.722C68.8628 7.19368 68.9522 7.63724 69.1357 8.04735L69.8659 7.72065C69.7321 7.42143 69.6628 7.09032 69.6628 6.722H68.8628ZM69.1357 8.04735C69.3145 8.44713 69.5583 8.79775 69.867 9.09576L70.4226 8.52024C70.19 8.29558 70.0044 8.03021 69.8659 7.72065L69.1357 8.04735ZM69.867 9.09576C70.174 9.39219 70.5285 9.6246 70.9276 9.79265L71.238 9.05535C70.9278 8.92473 70.657 8.74648 70.4226 8.52024L69.867 9.09576ZM70.9392 9.79734C71.3504 9.95548 71.7818 10.034 72.2308 10.034V9.234C71.8771 9.234 71.5432 9.17252 71.2264 9.05066L70.9392 9.79734ZM72.2308 10.034C72.6797 10.034 73.1078 9.95548 73.5117 9.79606L73.2179 9.05194C72.9125 9.17252 72.5845 9.234 72.2308 9.234V10.034ZM73.5166 9.79407C73.9253 9.62641 74.2859 9.39385 74.5947 9.09576L74.039 8.52024C73.8064 8.74481 73.5323 8.92292 73.213 9.05393L73.5166 9.79407ZM74.5897 9.10042C74.9094 8.80211 75.1598 8.45004 75.3399 8.04735L74.6097 7.72065C74.4725 8.02729 74.2843 8.29122 74.0439 8.51558L74.5897 9.10042ZM75.3399 8.04735C75.5234 7.63724 75.6128 7.19368 75.6128 6.722H74.8128C74.8128 7.09032 74.7435 7.42143 74.6097 7.72065L75.3399 8.04735ZM75.6128 6.722C75.6128 6.25032 75.5234 5.80676 75.3399 5.39665L74.6097 5.72335C74.7435 6.02257 74.8128 6.35368 74.8128 6.722H75.6128ZM75.3399 5.39665C75.1598 4.99396 74.9094 4.64189 74.5897 4.34358L74.0439 4.92842C74.2843 5.15278 74.4725 5.41671 74.6097 5.72335L75.3399 5.39665ZM74.5947 4.34824C74.284 4.04831 73.9206 3.81919 73.5084 3.66066L73.2212 4.40734C73.5371 4.52881 73.8083 4.70103 74.039 4.92376L74.5947 4.34824ZM73.52 3.66535C73.1141 3.49444 72.6831 3.41 72.2308 3.41V4.21C72.5812 4.21 72.9062 4.27489 73.2096 4.40265L73.52 3.66535ZM72.2308 3.41C71.7785 3.41 71.3441 3.49443 70.931 3.66393L71.2346 4.40407C71.5495 4.2749 71.8805 4.21 72.2308 4.21V3.41ZM70.9359 3.66194C70.5332 3.82092 70.1759 4.05 69.867 4.34824L70.4226 4.92376C70.6551 4.69934 70.9231 4.52708 71.2297 4.40606L70.9359 3.66194ZM69.867 4.34824C69.5583 4.64625 69.3145 4.99687 69.1357 5.39665L69.8659 5.72335C70.0044 5.41379 70.19 5.14842 70.4226 4.92376L69.867 4.34824ZM69.1357 5.39665C68.9522 5.80676 68.8628 6.25032 68.8628 6.722H69.6628C69.6628 6.35368 69.7321 6.02257 69.8659 5.72335L69.1357 5.39665ZM66.7928 6.722C66.7928 5.98845 66.9279 5.31472 67.1942 4.69618L66.4594 4.37982C66.1471 5.10528 65.9928 5.88755 65.9928 6.722H66.7928ZM67.195 4.69435C67.4644 4.05997 67.8363 3.51152 68.311 3.04542L67.7506 2.47457C67.1986 3.01648 66.7679 3.65336 66.4586 4.38165L67.195 4.69435ZM68.311 3.04543C68.7839 2.58116 69.3491 2.2176 70.0117 1.95606L69.7179 1.21194C68.9618 1.5104 68.3044 1.93084 67.7506 2.47457L68.311 3.04543ZM70.0142 1.95506C70.6805 1.68681 71.4178 1.55 72.2308 1.55V0.75C71.3265 0.75 70.4865 0.902524 69.7154 1.21294L70.0142 1.95506ZM72.2308 1.55C73.0339 1.55 73.7666 1.68661 74.4334 1.95506L74.7322 1.21294C73.9617 0.902727 73.1264 0.75 72.2308 0.75V1.55ZM74.4376 1.95671C75.1095 2.21849 75.6786 2.58204 76.1506 3.04543L76.711 2.47457C76.1563 1.92996 75.4935 1.50951 74.728 1.21129L74.4376 1.95671ZM76.1532 3.04794C76.6363 3.51387 77.0119 4.06153 77.2806 4.69435L78.017 4.38165C77.7071 3.6518 77.2706 3.01413 76.7085 2.47206L76.1532 3.04794ZM77.2814 4.69618C77.5477 5.31472 77.6828 5.98845 77.6828 6.722H78.4828C78.4828 5.88755 78.3286 5.10528 78.0162 4.37982L77.2814 4.69618ZM77.6828 6.722C77.6828 7.4555 77.5477 8.13465 77.2806 8.76365L78.017 9.07635C78.3285 8.34268 78.4828 7.5565 78.4828 6.722H77.6828ZM77.2814 8.76182C77.0129 9.38542 76.6373 9.92922 76.1532 10.3961L76.7085 10.9719C77.2697 10.4308 77.706 9.79858 78.0162 9.07818L77.2814 8.76182ZM76.1506 10.3986C75.6776 10.8629 75.1071 11.2317 74.4334 11.5029L74.7322 12.2451C75.4959 11.9376 76.1573 11.5131 76.711 10.9694L76.1506 10.3986ZM74.4376 11.5013C73.7697 11.7615 73.0355 11.894 72.2308 11.894V12.694C73.1248 12.694 73.9586 12.5465 74.728 12.2467L74.4376 11.5013ZM72.2308 11.894C71.4162 11.894 70.6774 11.7613 70.01 11.5013L69.7196 12.2467C70.4895 12.5467 71.3281 12.694 72.2308 12.694V11.894ZM70.0159 11.5036C69.3516 11.2326 68.7849 10.8638 68.311 10.3986L67.7506 10.9694C68.3034 11.5122 68.9594 11.9367 69.7137 12.2444L70.0159 11.5036ZM68.311 10.3986C67.8354 9.93156 67.4634 9.38698 67.1942 8.76182L66.4594 9.07818C66.7689 9.79702 67.1996 10.4284 67.7506 10.9694L68.311 10.3986ZM67.195 8.76365C66.9279 8.13465 66.7928 7.4555 66.7928 6.722H65.9928C65.9928 7.5565 66.1471 8.34268 66.4586 9.07635L67.195 8.76365ZM80.4181 10.026L80.7858 10.1836L80.7883 10.1775L80.4181 10.026ZM81.2861 9.144L81.1346 8.77373L81.1285 8.77634L81.2861 9.144ZM82.5601 9.144L82.4025 9.51171L82.4086 9.51422L82.5601 9.144ZM83.4421 10.026L83.0718 10.1775L83.0744 10.1836L83.4421 10.026ZM83.4421 11.3L83.8098 11.4576L83.8123 11.4515L83.4421 11.3ZM83.0921 11.818L83.3749 12.1008L83.0921 11.818ZM82.5601 12.168L82.4086 11.7977L82.4025 11.8003L82.5601 12.168ZM81.2861 12.168L81.1285 12.5357L81.1346 12.5382L81.2861 12.168ZM80.7681 11.818L80.4852 12.1008L80.7681 11.818ZM80.4181 11.3L80.0478 11.4515L80.0504 11.4576L80.4181 11.3ZM80.6921 10.656C80.6921 10.4834 80.7241 10.3273 80.7857 10.1836L80.0504 9.86843C79.944 10.1167 79.8921 10.3806 79.8921 10.656H80.6921ZM80.7883 10.1775C80.8532 10.0188 80.941 9.88673 81.0509 9.77684L80.4852 9.21116C80.2965 9.39993 80.1509 9.62257 80.0479 9.87455L80.7883 10.1775ZM81.0509 9.77684C81.1639 9.66385 81.294 9.57581 81.4436 9.51166L81.1285 8.77634C80.8862 8.88019 80.6709 9.02548 80.4852 9.21116L81.0509 9.77684ZM81.4375 9.51422C81.5943 9.45008 81.7575 9.418 81.9301 9.418V8.618C81.6547 8.618 81.3885 8.66992 81.1346 8.77378L81.4375 9.51422ZM81.9301 9.418C82.1027 9.418 82.2588 9.45007 82.4025 9.51166L82.7176 8.77634C82.4694 8.66993 82.2055 8.618 81.9301 8.618V9.418ZM82.4086 9.51422C82.5673 9.57914 82.6993 9.66695 82.8092 9.77684L83.3749 9.21116C83.1861 9.02238 82.9635 8.87686 82.7115 8.77378L82.4086 9.51422ZM82.8092 9.77684C82.9191 9.88673 83.0069 10.0188 83.0719 10.1775L83.8123 9.87455C83.7092 9.62257 83.5637 9.39993 83.3749 9.21116L82.8092 9.77684ZM83.0744 10.1836C83.136 10.3273 83.1681 10.4834 83.1681 10.656H83.9681C83.9681 10.3806 83.9161 10.1167 83.8097 9.86843L83.0744 10.1836ZM83.1681 10.656C83.1681 10.8286 83.136 10.9918 83.0719 11.1485L83.8123 11.4515C83.9162 11.1976 83.9681 10.9314 83.9681 10.656H83.1681ZM83.0744 11.1424C83.0103 11.2921 82.9222 11.4222 82.8092 11.5352L83.3749 12.1008C83.5606 11.9152 83.7059 11.6999 83.8097 11.4576L83.0744 11.1424ZM82.8092 11.5352C82.6993 11.645 82.5673 11.7329 82.4086 11.7978L82.7115 12.5382C82.9635 12.4351 83.1861 12.2896 83.3749 12.1008L82.8092 11.5352ZM82.4025 11.8003C82.2588 11.8619 82.1027 11.894 81.9301 11.894V12.694C82.2055 12.694 82.4694 12.6421 82.7176 12.5357L82.4025 11.8003ZM81.9301 11.894C81.7575 11.894 81.5943 11.8619 81.4375 11.7978L81.1346 12.5382C81.3885 12.6421 81.6547 12.694 81.9301 12.694V11.894ZM81.4436 11.8003C81.294 11.7362 81.1639 11.6482 81.0509 11.5352L80.4852 12.1008C80.6709 12.2865 80.8862 12.4318 81.1285 12.5357L81.4436 11.8003ZM81.0509 11.5352C80.9379 11.4222 80.8499 11.2921 80.7857 11.1424L80.0504 11.4576C80.1543 11.6999 80.2996 11.9152 80.4852 12.1008L81.0509 11.5352ZM80.7883 11.1485C80.7242 10.9918 80.6921 10.8286 80.6921 10.656H79.8921C79.8921 10.9314 79.944 11.1976 80.0479 11.4515L80.7883 11.1485ZM6.902 21.146L6.64976 21.4564L7.03369 21.7684L7.25836 21.3277L6.902 21.146ZM6.006 20.614L5.85539 20.9847L5.86555 20.9885L6.006 20.614ZM4.27 20.684L4.03 20.364L4.03 20.364L4.27 20.684ZM4.102 21.804L3.80808 22.0753H3.80808L4.102 21.804ZM4.536 22.126L4.3497 22.48L4.36061 22.4857L4.37185 22.4908L4.536 22.126ZM5.152 22.35L5.03999 22.734L5.04415 22.7352L5.152 22.35ZM5.838 22.56L5.71151 22.9395L5.838 22.56ZM7.798 23.764L7.48784 24.0167L7.49308 24.0229L7.798 23.764ZM8.148 27.18L7.77988 27.0234L7.77716 27.0301L8.148 27.18ZM7.35 28.314L7.61625 28.6125L7.61672 28.6121L7.35 28.314ZM6.062 29.028L5.93755 28.6477L5.92924 28.6507L6.062 29.028ZM0.63 28.104L0.276812 27.9162L0.110302 28.2294L0.401338 28.4322L0.63 28.104ZM1.806 25.892L2.07132 25.5927L1.69124 25.2558L1.45281 25.7042L1.806 25.892ZM3.024 26.704L2.86233 27.0699L3.024 26.704ZM5.208 26.662L4.93765 26.3671L4.93151 26.3729L5.208 26.662ZM5.46 25.556L5.09664 25.7237L5.10223 25.7349L5.46 25.556ZM5.18 25.234L4.93287 25.5485L4.94006 25.5542L4.9475 25.5595L5.18 25.234ZM4.662 24.954L4.51053 25.3243L4.51624 25.3265L4.662 24.954ZM3.906 24.674L4.03607 24.2956L4.02645 24.2926L3.906 24.674ZM2.856 24.31L2.70207 24.6794L2.71444 24.6841L2.856 24.31ZM1.946 23.764L1.68564 24.0677L1.69097 24.0722L1.946 23.764ZM1.302 22.924L0.938332 23.0911L0.944229 23.1029L1.302 22.924ZM1.316 20.208L0.946272 20.0553L0.944609 20.0594L1.316 20.208ZM2.044 19.116L2.32246 19.4032L2.32259 19.403L2.044 19.116ZM3.192 18.402L3.05407 18.0265L3.05155 18.0275L3.192 18.402ZM6.356 18.374L6.2545 18.761L6.26048 18.7624L6.356 18.374ZM7.994 19.004L8.35036 19.1857L8.52838 18.8365L8.18289 18.6514L7.994 19.004ZM7.15424 20.8356C6.82872 20.5711 6.49296 20.3694 6.14645 20.2395L5.86555 20.9885C6.11637 21.0826 6.37795 21.2356 6.64976 21.4564L7.15424 20.8356ZM6.15655 20.2434C5.81723 20.1056 5.47682 20.032 5.138 20.032V20.832C5.35918 20.832 5.59744 20.8798 5.85545 20.9846L6.15655 20.2434ZM5.138 20.032C4.72011 20.032 4.33983 20.1316 4.03 20.364L4.51 21.004C4.64817 20.9004 4.84656 20.832 5.138 20.832V20.032ZM4.03 20.364C3.70935 20.6045 3.534 20.9404 3.534 21.342H4.334C4.334 21.2022 4.38265 21.0995 4.51 21.004L4.03 20.364ZM3.534 21.342C3.534 21.6151 3.61886 21.8703 3.80808 22.0753L4.39592 21.5327C4.36114 21.495 4.334 21.4422 4.334 21.342H3.534ZM3.80808 22.0753C3.95679 22.2364 4.14038 22.3698 4.3497 22.48L4.7223 21.772C4.57695 21.6955 4.47121 21.6143 4.39592 21.5327L3.80808 22.0753ZM4.37185 22.4908C4.57758 22.5833 4.80061 22.6642 5.04 22.734L5.264 21.966C5.05539 21.9052 4.86775 21.8367 4.70015 21.7612L4.37185 22.4908ZM5.04415 22.7352C5.27139 22.7988 5.49383 22.8669 5.71151 22.9395L5.96449 22.1805C5.73417 22.1038 5.49928 22.0319 5.25985 21.9648L5.04415 22.7352ZM5.71151 22.9395C6.56633 23.2244 7.14222 23.5924 7.48791 24.0167L8.10809 23.5113C7.63244 22.9276 6.90167 22.4929 5.96449 22.1805L5.71151 22.9395ZM7.49308 24.0229C7.83816 24.4293 8.028 24.9789 8.028 25.71H8.828C8.828 24.8357 8.59784 24.088 8.10292 23.5051L7.49308 24.0229ZM8.028 25.71C8.028 26.2048 7.94286 26.6405 7.77994 27.0234L8.51606 27.3366C8.72647 26.8422 8.828 26.2979 8.828 25.71H8.028ZM7.77716 27.0301C7.62288 27.4117 7.39264 27.7391 7.08328 28.0159L7.61672 28.6121C8.01669 28.2542 8.31845 27.8256 8.51884 27.3299L7.77716 27.0301ZM7.08375 28.0155C6.78587 28.2812 6.40719 28.4942 5.93758 28.6478L6.18642 29.4082C6.74347 29.2258 7.22346 28.9628 7.61625 28.6125L7.08375 28.0155ZM5.92924 28.6507C5.47563 28.8103 4.94779 28.894 4.34 28.894V29.694C5.02021 29.694 5.64037 29.6004 6.19476 29.4053L5.92924 28.6507ZM4.34 28.894C3.09049 28.894 1.93308 28.5244 0.858662 27.7758L0.401338 28.4322C1.60426 29.2703 2.92017 29.694 4.34 29.694V28.894ZM0.983188 28.2918L2.15919 26.0798L1.45281 25.7042L0.276812 27.9162L0.983188 28.2918ZM1.54068 26.1913C1.97485 26.5762 2.41513 26.8723 2.86233 27.0699L3.18567 26.3381C2.8302 26.1811 2.45848 25.9358 2.07132 25.5927L1.54068 26.1913ZM2.86233 27.0699C3.3085 27.267 3.76003 27.37 4.214 27.37V26.57C3.88397 26.57 3.54216 26.4956 3.18567 26.3381L2.86233 27.0699ZM4.214 27.37C4.71374 27.37 5.16514 27.2565 5.48449 26.9511L4.93151 26.3729C4.82153 26.4781 4.61026 26.57 4.214 26.57V27.37ZM5.47829 26.9569C5.7702 26.6893 5.944 26.354 5.944 25.962H5.144C5.144 26.0927 5.09381 26.2241 4.93771 26.3671L5.47829 26.9569ZM5.944 25.962C5.944 25.7574 5.90795 25.5575 5.81777 25.3771L5.10223 25.7349C5.12405 25.7785 5.144 25.8493 5.144 25.962H5.944ZM5.82318 25.3884C5.73272 25.1924 5.5883 25.0341 5.4125 24.9085L4.9475 25.5595C5.03303 25.6206 5.07528 25.677 5.09682 25.7236L5.82318 25.3884ZM5.42713 24.9195C5.25637 24.7853 5.04589 24.6747 4.80776 24.5815L4.51624 25.3265C4.70745 25.4013 4.8423 25.4774 4.93287 25.5485L5.42713 24.9195ZM4.81345 24.5838C4.5988 24.496 4.33917 24.3999 4.03603 24.2957L3.77597 25.0523C4.07016 25.1534 4.31453 25.244 4.51055 25.3242L4.81345 24.5838ZM4.02645 24.2926C3.67884 24.1828 3.33587 24.0639 2.99756 23.9359L2.71444 24.6841C3.06679 24.8174 3.42383 24.9412 3.78555 25.0554L4.02645 24.2926ZM3.00985 23.9408C2.70908 23.8155 2.44009 23.6537 2.20103 23.4558L1.69097 24.0722C1.99325 24.3223 2.33092 24.5245 2.70215 24.6792L3.00985 23.9408ZM2.20632 23.4603C1.98903 23.274 1.80612 23.0378 1.65977 22.7451L0.944229 23.1029C1.13388 23.4822 1.38031 23.806 1.68568 24.0677L2.20632 23.4603ZM1.66547 22.757C1.53812 22.4798 1.464 22.1074 1.464 21.622H0.664C0.664 22.182 0.748543 22.6775 0.938529 23.091L1.66547 22.757ZM1.464 21.622C1.464 21.1424 1.54099 20.7226 1.68739 20.3566L0.944609 20.0594C0.75501 20.5334 0.664 21.0563 0.664 21.622H1.464ZM1.6857 20.3607C1.84389 19.9777 2.05691 19.6607 2.32246 19.4032L1.76554 18.8288C1.41509 19.1687 1.14278 19.5796 0.946295 20.0553L1.6857 20.3607ZM2.32259 19.403C2.59724 19.1365 2.93176 18.9268 3.33245 18.7765L3.05155 18.0275C2.55624 18.2132 2.12542 18.4795 1.76541 18.829L2.32259 19.403ZM3.32993 18.7775C3.73702 18.6279 4.19813 18.55 4.718 18.55V17.75C4.11787 17.75 3.56165 17.8401 3.05407 18.0265L3.32993 18.7775ZM4.718 18.55C5.20243 18.55 5.71421 18.6192 6.25452 18.7609L6.45749 17.9871C5.85912 17.8301 5.27891 17.75 4.718 17.75V18.55ZM6.26048 18.7624C6.79695 18.8943 7.31161 19.0922 7.80511 19.3566L8.18289 18.6514C7.63106 18.3558 7.05372 18.1337 6.45152 17.9856L6.26048 18.7624ZM7.63764 18.8223L6.54564 20.9643L7.25836 21.3277L8.35036 19.1857L7.63764 18.8223ZM12.9008 22.518H12.5008V22.918H12.9008V22.518ZM16.8628 22.518V22.918H17.2628V22.518H16.8628ZM16.8628 18.444V18.044H16.4628V18.444H16.8628ZM19.6068 18.444H20.0068V18.044H19.6068V18.444ZM19.6068 29V29.4H20.0068V29H19.6068ZM16.8628 29H16.4628V29.4H16.8628V29ZM16.8628 24.646H17.2628V24.246H16.8628V24.646ZM12.9008 24.646V24.246H12.5008V24.646H12.9008ZM12.9008 29V29.4H13.3008V29H12.9008ZM10.1568 29H9.75678V29.4H10.1568V29ZM10.1568 18.444V18.044H9.75678V18.444H10.1568ZM12.9008 18.444H13.3008V18.044H12.9008V18.444ZM12.9008 22.918H16.8628V22.118H12.9008V22.918ZM17.2628 22.518V18.444H16.4628V22.518H17.2628ZM16.8628 18.844H19.6068V18.044H16.8628V18.844ZM19.2068 18.444V29H20.0068V18.444H19.2068ZM19.6068 28.6H16.8628V29.4H19.6068V28.6ZM17.2628 29V24.646H16.4628V29H17.2628ZM16.8628 24.246H12.9008V25.046H16.8628V24.246ZM12.5008 24.646V29H13.3008V24.646H12.5008ZM12.9008 28.6H10.1568V29.4H12.9008V28.6ZM10.5568 29V18.444H9.75678V29H10.5568ZM10.1568 18.844H12.9008V18.044H10.1568V18.844ZM12.5008 18.444V22.518H13.3008V18.444H12.5008ZM24.4509 24.884L24.816 24.7207L24.4509 24.884ZM25.0949 25.808L25.3727 25.5202L25.0949 25.808ZM26.0329 26.424L25.8776 26.7928L25.8893 26.7973L26.0329 26.424ZM28.3149 26.424L28.4618 26.7961L28.4667 26.7941L28.3149 26.424ZM29.2669 25.808L28.9939 25.5155L28.9891 25.5202L29.2669 25.808ZM29.9249 24.884L30.29 25.0473L29.9249 24.884ZM29.9249 22.56L30.29 22.3967L29.9249 22.56ZM29.2669 21.636L28.989 21.9238L28.994 21.9284L29.2669 21.636ZM28.3149 21.034L28.1596 21.4028L28.1713 21.4073L28.3149 21.034ZM26.0329 21.034L26.1798 21.4061L26.1847 21.4041L26.0329 21.034ZM25.0949 21.636L25.3727 21.9238L25.0949 21.636ZM24.4509 22.56L24.816 22.7233L24.4509 22.56ZM21.7769 21.538L22.1443 21.6962L22.1451 21.6943L21.7769 21.538ZM22.9809 19.76L22.7007 19.4746V19.4746L22.9809 19.76ZM24.8149 18.584L24.9618 18.9561L24.9643 18.9551L24.8149 18.584ZM29.5329 18.584L29.3835 18.9551L29.3877 18.9567L29.5329 18.584ZM31.3809 19.76L31.1006 20.0454L31.1032 20.0479L31.3809 19.76ZM32.5989 21.538L32.2307 21.6944L32.2315 21.6962L32.5989 21.538ZM32.5989 25.92L32.9663 26.0782L32.9671 26.0763L32.5989 25.92ZM31.3809 27.684L31.1032 27.3961L31.1007 27.3986L31.3809 27.684ZM29.5329 28.874L29.6781 29.2467L29.6823 29.2451L29.5329 28.874ZM24.8149 28.874L24.6638 29.2444L24.6697 29.2467L24.8149 28.874ZM22.9809 27.684L22.7007 27.9694L22.9809 27.684ZM21.7769 25.92L21.4087 26.0764L21.4095 26.0782L21.7769 25.92ZM23.8129 23.722C23.8129 24.1937 23.9023 24.6372 24.0858 25.0473L24.816 24.7207C24.6822 24.4214 24.6129 24.0903 24.6129 23.722H23.8129ZM24.0858 25.0473C24.2646 25.4471 24.5084 25.7978 24.8171 26.0958L25.3727 25.5202C25.14 25.2956 24.9545 25.0302 24.816 24.7207L24.0858 25.0473ZM24.8171 26.0958C25.1241 26.3922 25.4785 26.6246 25.8777 26.7927L26.1881 26.0553C25.8779 25.9247 25.607 25.7465 25.3727 25.5202L24.8171 26.0958ZM25.8893 26.7973C26.3005 26.9555 26.7319 27.034 27.1809 27.034V26.234C26.8272 26.234 26.4933 26.1725 26.1765 26.0507L25.8893 26.7973ZM27.1809 27.034C27.6298 27.034 28.0579 26.9555 28.4618 26.7961L28.168 26.0519C27.8626 26.1725 27.5346 26.234 27.1809 26.234V27.034ZM28.4667 26.7941C28.8754 26.6264 29.236 26.3939 29.5447 26.0958L28.9891 25.5202C28.7565 25.7448 28.4824 25.9229 28.1631 26.0539L28.4667 26.7941ZM29.5398 26.1004C29.8594 25.8021 30.1099 25.45 30.29 25.0473L29.5598 24.7207C29.4226 25.0273 29.2343 25.2912 28.994 25.5156L29.5398 26.1004ZM30.29 25.0473C30.4735 24.6372 30.5629 24.1937 30.5629 23.722H29.7629C29.7629 24.0903 29.6936 24.4214 29.5598 24.7207L30.29 25.0473ZM30.5629 23.722C30.5629 23.2503 30.4735 22.8068 30.29 22.3967L29.5598 22.7233C29.6936 23.0226 29.7629 23.3537 29.7629 23.722H30.5629ZM30.29 22.3967C30.1099 21.994 29.8594 21.6419 29.5398 21.3436L28.994 21.9284C29.2343 22.1528 29.4226 22.4167 29.5598 22.7233L30.29 22.3967ZM29.5447 21.3482C29.2341 21.0483 28.8706 20.8192 28.4585 20.6607L28.1713 21.4073C28.4871 21.5288 28.7584 21.701 28.9891 21.9238L29.5447 21.3482ZM28.4701 20.6653C28.0642 20.4944 27.6332 20.41 27.1809 20.41V21.21C27.5312 21.21 27.8562 21.2749 28.1597 21.4027L28.4701 20.6653ZM27.1809 20.41C26.7286 20.41 26.2942 20.4944 25.8811 20.6639L26.1847 21.4041C26.4996 21.2749 26.8306 21.21 27.1809 21.21V20.41ZM25.886 20.6619C25.4833 20.8209 25.1259 21.05 24.8171 21.3482L25.3727 21.9238C25.6052 21.6993 25.8732 21.5271 26.1798 21.4061L25.886 20.6619ZM24.8171 21.3482C24.5084 21.6462 24.2646 21.9969 24.0858 22.3967L24.816 22.7233C24.9545 22.4138 25.14 22.1484 25.3727 21.9238L24.8171 21.3482ZM24.0858 22.3967C23.9023 22.8068 23.8129 23.2503 23.8129 23.722H24.6129C24.6129 23.3537 24.6822 23.0226 24.816 22.7233L24.0858 22.3967ZM21.7429 23.722C21.7429 22.9885 21.878 22.3147 22.1443 21.6962L21.4095 21.3798C21.0971 22.1053 20.9429 22.8875 20.9429 23.722H21.7429ZM22.1451 21.6943C22.4145 21.06 22.7864 20.5115 23.2611 20.0454L22.7007 19.4746C22.1487 20.0165 21.718 20.6534 21.4087 21.3816L22.1451 21.6943ZM23.2611 20.0454C23.734 19.5812 24.2992 19.2176 24.9618 18.9561L24.668 18.2119C23.9119 18.5104 23.2545 18.9308 22.7007 19.4746L23.2611 20.0454ZM24.9643 18.9551C25.6306 18.6868 26.3679 18.55 27.1809 18.55V17.75C26.2766 17.75 25.4365 17.9025 24.6655 18.2129L24.9643 18.9551ZM27.1809 18.55C27.984 18.55 28.7167 18.6866 29.3835 18.9551L29.6823 18.2129C28.9117 17.9027 28.0765 17.75 27.1809 17.75V18.55ZM29.3877 18.9567C30.0596 19.2185 30.6287 19.582 31.1007 20.0454L31.6611 19.4746C31.1064 18.93 30.4435 18.5095 29.6781 18.2113L29.3877 18.9567ZM31.1032 20.0479C31.5864 20.5139 31.962 21.0615 32.2307 21.6943L32.9671 21.3816C32.6571 20.6518 32.2207 20.0141 31.6585 19.4721L31.1032 20.0479ZM32.2315 21.6962C32.4978 22.3147 32.6329 22.9885 32.6329 23.722H33.4329C33.4329 22.8875 33.2786 22.1053 32.9663 21.3798L32.2315 21.6962ZM32.6329 23.722C32.6329 24.4555 32.4978 25.1347 32.2307 25.7637L32.9671 26.0763C33.2786 25.3427 33.4329 24.5565 33.4329 23.722H32.6329ZM32.2315 25.7618C31.963 26.3854 31.5874 26.9292 31.1032 27.3961L31.6585 27.9719C32.2197 27.4308 32.6561 26.7986 32.9663 26.0782L32.2315 25.7618ZM31.1007 27.3986C30.6277 27.8629 30.0571 28.2317 29.3835 28.5029L29.6823 29.2451C30.446 28.9376 31.1074 28.5131 31.6611 27.9694L31.1007 27.3986ZM29.3877 28.5013C28.7198 28.7615 27.9856 28.894 27.1809 28.894V29.694C28.0749 29.694 28.9087 29.5465 29.6781 29.2467L29.3877 28.5013ZM27.1809 28.894C26.3663 28.894 25.6275 28.7613 24.9601 28.5013L24.6697 29.2467C25.4396 29.5467 26.2782 29.694 27.1809 29.694V28.894ZM24.966 28.5036C24.3016 28.2327 23.735 27.8638 23.2611 27.3986L22.7007 27.9694C23.2535 28.5122 23.9095 28.9367 24.6638 29.2444L24.966 28.5036ZM23.2611 27.3986C22.7855 26.9316 22.4135 26.387 22.1443 25.7618L21.4095 26.0782C21.719 26.797 22.1496 27.4284 22.7007 27.9694L23.2611 27.3986ZM22.1451 25.7637C21.878 25.1347 21.7429 24.4555 21.7429 23.722H20.9429C20.9429 24.5565 21.0972 25.3427 21.4087 26.0763L22.1451 25.7637ZM37.5102 23.288H37.1102V23.688H37.5102V23.288ZM37.5102 20.656V20.256H37.1102V20.656H37.5102ZM37.5102 29V29.4H37.9102V29H37.5102ZM34.7662 29H34.3662V29.4H34.7662V29ZM34.7662 18.444V18.044H34.3662V18.444H34.7662ZM41.8502 19.368L41.5694 19.653L41.5716 19.655L41.8502 19.368ZM41.8502 24.576L41.5716 24.289L41.5695 24.291L41.8502 24.576ZM37.5102 25.5V25.1H37.1102V25.5H37.5102ZM37.5102 23.688H38.4202V22.888H37.5102V23.688ZM38.4202 23.688C38.9732 23.688 39.4627 23.5688 39.8168 23.2607C40.1814 22.9434 40.3322 22.4879 40.3322 21.972H39.5322C39.5322 22.3334 39.4309 22.536 39.2915 22.6573C39.1416 22.7878 38.8751 22.888 38.4202 22.888V23.688ZM40.3322 21.972C40.3322 21.4561 40.1814 21.0006 39.8168 20.6833C39.4627 20.3752 38.9732 20.256 38.4202 20.256V21.056C38.8751 21.056 39.1416 21.1562 39.2915 21.2867C39.4309 21.408 39.5322 21.6106 39.5322 21.972H40.3322ZM38.4202 20.256H37.5102V21.056H38.4202V20.256ZM37.1102 20.656V23.288H37.9102V20.656H37.1102ZM37.5102 28.6H34.7662V29.4H37.5102V28.6ZM35.1662 29V18.444H34.3662V29H35.1662ZM34.7662 18.844H39.1342V18.044H34.7662V18.844ZM39.1342 18.844C40.2522 18.844 41.0421 19.1335 41.5695 19.653L42.1309 19.083C41.4075 18.3705 40.3868 18.044 39.1342 18.044V18.844ZM41.5716 19.655C42.1092 20.1769 42.4022 20.9297 42.4022 21.972H43.2022C43.2022 20.7743 42.8604 19.7911 42.1287 19.081L41.5716 19.655ZM42.4022 21.972C42.4022 23.0143 42.1092 23.7671 41.5716 24.289L42.1287 24.863C42.8604 24.1529 43.2022 23.1697 43.2022 21.972H42.4022ZM41.5695 24.291C41.0421 24.8105 40.2522 25.1 39.1342 25.1V25.9C40.3868 25.9 41.4075 25.5735 42.1309 24.861L41.5695 24.291ZM39.1342 25.1H37.5102V25.9H39.1342V25.1ZM37.1102 25.5V29H37.9102V25.5H37.1102ZM46.9984 23.288H46.5984V23.688H46.9984V23.288ZM46.9984 20.656V20.256H46.5984V20.656H46.9984ZM46.9984 29V29.4H47.3984V29H46.9984ZM44.2544 29H43.8544V29.4H44.2544V29ZM44.2544 18.444V18.044H43.8544V18.444H44.2544ZM51.3384 19.368L51.0577 19.653L51.0598 19.655L51.3384 19.368ZM51.3384 24.576L51.0598 24.289L51.0577 24.291L51.3384 24.576ZM46.9984 25.5V25.1H46.5984V25.5H46.9984ZM46.9984 23.688H47.9084V22.888H46.9984V23.688ZM47.9084 23.688C48.4615 23.688 48.951 23.5688 49.305 23.2607C49.6697 22.9434 49.8204 22.4879 49.8204 21.972H49.0204C49.0204 22.3334 48.9192 22.536 48.7798 22.6573C48.6298 22.7878 48.3634 22.888 47.9084 22.888V23.688ZM49.8204 21.972C49.8204 21.4561 49.6697 21.0006 49.305 20.6833C48.951 20.3752 48.4615 20.256 47.9084 20.256V21.056C48.3634 21.056 48.6298 21.1562 48.7798 21.2867C48.9192 21.408 49.0204 21.6106 49.0204 21.972H49.8204ZM47.9084 20.256H46.9984V21.056H47.9084V20.256ZM46.5984 20.656V23.288H47.3984V20.656H46.5984ZM46.9984 28.6H44.2544V29.4H46.9984V28.6ZM44.6544 29V18.444H43.8544V29H44.6544ZM44.2544 18.844H48.6224V18.044H44.2544V18.844ZM48.6224 18.844C49.7405 18.844 50.5304 19.1335 51.0577 19.653L51.6191 19.083C50.8958 18.3705 49.8751 18.044 48.6224 18.044V18.844ZM51.0598 19.655C51.5975 20.1769 51.8904 20.9297 51.8904 21.972H52.6904C52.6904 20.7743 52.3487 19.7911 51.617 19.081L51.0598 19.655ZM51.8904 21.972C51.8904 23.0143 51.5975 23.7671 51.0598 24.289L51.617 24.863C52.3487 24.1529 52.6904 23.1697 52.6904 21.972H51.8904ZM51.0577 24.291C50.5304 24.8105 49.7405 25.1 48.6224 25.1V25.9C49.8751 25.9 50.8958 25.5735 51.6191 24.861L51.0577 24.291ZM48.6224 25.1H46.9984V25.9H48.6224V25.1ZM46.5984 25.5V29H47.3984V25.5H46.5984ZM56.4867 18.444H56.8867V18.044H56.4867V18.444ZM56.4867 29V29.4H56.8867V29H56.4867ZM53.7427 29H53.3427V29.4H53.7427V29ZM53.7427 18.444V18.044H53.3427V18.444H53.7427ZM56.0867 18.444V29H56.8867V18.444H56.0867ZM56.4867 28.6H53.7427V29.4H56.4867V28.6ZM54.1427 29V18.444H53.3427V29H54.1427ZM53.7427 18.844H56.4867V18.044H53.7427V18.844ZM58.6919 29H58.2919V29.4H58.6919V29ZM58.6919 18.444V18.044H58.2919V18.444H58.6919ZM61.4359 18.444L61.7505 18.197L61.6304 18.044H61.4359V18.444ZM66.5039 24.898L66.1893 25.145L66.9039 26.0551V24.898H66.5039ZM66.5039 18.444V18.044H66.1039V18.444H66.5039ZM69.2339 18.444H69.6339V18.044H69.2339V18.444ZM69.2339 29V29.4H69.6339V29H69.2339ZM66.5039 29L66.1893 29.247L66.3095 29.4H66.5039V29ZM61.4359 22.546L61.7505 22.299L61.0359 21.3889V22.546H61.4359ZM61.4359 29V29.4H61.8359V29H61.4359ZM59.0919 29V18.444H58.2919V29H59.0919ZM58.6919 18.844H61.4359V18.044H58.6919V18.844ZM61.1213 18.691L66.1893 25.145L66.8185 24.651L61.7505 18.197L61.1213 18.691ZM66.9039 24.898V18.444H66.1039V24.898H66.9039ZM66.5039 18.844H69.2339V18.044H66.5039V18.844ZM68.8339 18.444V29H69.6339V18.444H68.8339ZM69.2339 28.6H66.5039V29.4H69.2339V28.6ZM66.8185 28.753L61.7505 22.299L61.1213 22.793L66.1893 29.247L66.8185 28.753ZM61.0359 22.546V29H61.8359V22.546H61.0359ZM61.4359 28.6H58.6919V29.4H61.4359V28.6ZM76.7772 23.092V22.692H76.3772V23.092H76.7772ZM82.2232 23.092H82.6232V22.692H82.2232V23.092ZM82.1532 24.618L81.7553 24.5774L82.1532 24.618ZM81.8732 25.892L81.4965 25.7575L81.4964 25.7579L81.8732 25.892ZM81.0752 27.362L81.3876 27.6119L81.3902 27.6085L81.0752 27.362ZM79.8852 28.426L80.0972 28.7652L80.0991 28.764L79.8852 28.426ZM78.4012 29.07L78.5076 29.4556L78.4012 29.07ZM74.4392 28.888L74.2898 29.259L74.2915 29.2597L74.4392 28.888ZM72.7032 27.754L72.4177 28.0341L72.4204 28.0368L72.7032 27.754ZM71.5692 25.99L71.1968 26.136L71.1975 26.1377L71.5692 25.99ZM71.5552 21.454L71.1828 21.308L71.1817 21.3108L71.5552 21.454ZM72.6892 19.69L72.4091 19.4045L72.4064 19.4072L72.6892 19.69ZM74.4672 18.556L74.3213 18.1836L74.4672 18.556ZM79.6752 18.864L79.8741 18.5169L79.6752 18.864ZM81.6492 21.076L81.8022 21.4456L82.1946 21.2831L82.009 20.9012L81.6492 21.076ZM79.0452 22.154L78.6763 22.3087L78.8303 22.6759L79.1982 22.5236L79.0452 22.154ZM78.0932 20.908L77.8732 21.2421L77.8769 21.2445L78.0932 20.908ZM75.6572 20.768L75.8197 21.1336L75.828 21.1297L75.6572 20.768ZM74.7892 21.426L74.4827 21.169L74.4819 21.1699L74.7892 21.426ZM74.2292 22.448L73.8514 22.3162L73.8489 22.3242L74.2292 22.448ZM74.2012 25.038L73.8172 25.1504L73.8199 25.1589L74.2012 25.038ZM74.7332 26.032L75.0405 25.7759L74.7332 26.032ZM75.6012 26.69L75.4342 27.0536L75.4424 27.0571L75.6012 26.69ZM77.5892 26.83L77.676 27.2207L77.6896 27.2172L77.5892 26.83ZM78.2612 26.536L78.4831 26.8688L78.4865 26.8665L78.2612 26.536ZM78.7652 26.004L78.4235 25.796L78.7652 26.004ZM79.0312 25.22L79.4267 25.2799L79.4964 24.82H79.0312V25.22ZM76.7772 25.22H76.3772V25.62H76.7772V25.22ZM76.7772 23.492H82.2232V22.692H76.7772V23.492ZM81.8232 23.092C81.8232 23.6412 81.8003 24.1361 81.7553 24.5774L82.5511 24.6586C82.5994 24.1853 82.6232 23.6628 82.6232 23.092H81.8232ZM81.7553 24.5774C81.7115 25.006 81.6246 25.3988 81.4965 25.7575L82.2499 26.0265C82.4018 25.6012 82.5015 25.1447 82.5511 24.6586L81.7553 24.5774ZM81.4964 25.7579C81.3138 26.2709 81.0678 26.7224 80.7602 27.1155L81.3902 27.6085C81.7546 27.1429 82.0407 26.6144 82.25 26.0261L81.4964 25.7579ZM80.7629 27.1121C80.4547 27.4973 80.0914 27.8222 79.6713 28.088L80.0991 28.764C80.5937 28.4511 81.0237 28.0667 81.3876 27.6119L80.7629 27.1121ZM79.6732 28.0868C79.26 28.3451 78.8012 28.5447 78.2948 28.6844L78.5076 29.4556C79.0838 29.2966 79.6144 29.0669 80.0972 28.7652L79.6732 28.0868ZM78.2948 28.6844C77.7903 28.8236 77.2569 28.894 76.6932 28.894V29.694C77.3242 29.694 77.9295 29.6151 78.5076 29.4556L78.2948 28.6844ZM76.6932 28.894C75.9164 28.894 75.2159 28.7661 74.5869 28.5163L74.2915 29.2597C75.0252 29.5512 75.8274 29.694 76.6932 29.694V28.894ZM74.5886 28.517C73.9638 28.2653 73.4312 27.9163 72.986 27.4712L72.4204 28.0368C72.9459 28.5623 73.5706 28.9694 74.2898 29.259L74.5886 28.517ZM72.9887 27.4739C72.5428 27.0193 72.1931 26.4771 71.9409 25.8423L71.1975 26.1377C71.4866 26.8656 71.893 27.4993 72.4177 28.0341L72.9887 27.4739ZM71.9416 25.8441C71.6912 25.2051 71.5632 24.4947 71.5632 23.708H70.7632C70.7632 24.5827 70.9058 25.3935 71.1968 26.136L71.9416 25.8441ZM71.5632 23.708C71.5632 22.9295 71.6869 22.2275 71.9287 21.5972L71.1817 21.3108C70.9008 22.0432 70.7632 22.8438 70.7632 23.708H71.5632ZM71.9276 21.5999C72.1798 20.9564 72.5287 20.4161 72.972 19.9728L72.4064 19.4072C71.879 19.9345 71.4719 20.5703 71.1828 21.3081L71.9276 21.5999ZM72.9693 19.9755C73.4229 19.5305 73.969 19.1808 74.6132 18.9284L74.3213 18.1836C73.584 18.4725 72.9448 18.8788 72.4091 19.4045L72.9693 19.9755ZM74.6132 18.9284C75.2511 18.6784 75.9706 18.55 76.7772 18.55V17.75C75.8851 17.75 75.0647 17.8922 74.3213 18.1836L74.6132 18.9284ZM76.7772 18.55C77.8194 18.55 78.7148 18.7747 79.4763 19.2111L79.8741 18.5169C78.9743 18.0013 77.9377 17.75 76.7772 17.75V18.55ZM79.4763 19.2111C80.2267 19.641 80.8335 20.3126 81.2894 21.2508L82.009 20.9012C81.4943 19.8421 80.7851 19.039 79.8741 18.5169L79.4763 19.2111ZM81.4962 20.7064L78.8922 21.7844L79.1982 22.5236L81.8022 21.4456L81.4962 20.7064ZM79.4141 21.9993C79.1507 21.3714 78.7895 20.8801 78.3095 20.5715L77.8769 21.2445C78.1809 21.4399 78.4543 21.7793 78.6763 22.3087L79.4141 21.9993ZM78.3132 20.5739C77.86 20.2755 77.3436 20.13 76.7772 20.13V20.93C77.2002 20.93 77.5611 21.0365 77.8732 21.2421L78.3132 20.5739ZM76.7772 20.13C76.3138 20.13 75.8812 20.2199 75.4864 20.4063L75.828 21.1297C76.1052 20.9988 76.4193 20.93 76.7772 20.93V20.13ZM75.4948 20.4025C75.1016 20.5772 74.7634 20.8343 74.4827 21.169L75.0957 21.683C75.3003 21.4391 75.5408 21.2574 75.8197 21.1335L75.4948 20.4025ZM74.4819 21.1699C74.2132 21.4924 74.0048 21.877 73.8515 22.3162L74.6069 22.5797C74.7337 22.2163 74.8985 21.9196 75.0965 21.6821L74.4819 21.1699ZM73.8489 22.3242C73.7031 22.7717 73.6332 23.2623 73.6332 23.792H74.4332C74.4332 23.3323 74.4939 22.927 74.6096 22.5718L73.8489 22.3242ZM73.6332 23.792C73.6332 24.2734 73.6934 24.727 73.8173 25.1504L74.5851 24.9256C74.485 24.5837 74.4332 24.2066 74.4332 23.792H73.6332ZM73.8199 25.1589C73.9553 25.586 74.1562 25.9644 74.4259 26.2881L75.0405 25.7759C74.8436 25.5396 74.6898 25.2554 74.5825 24.9171L73.8199 25.1589ZM74.4259 26.2881C74.6991 26.6158 75.0371 26.871 75.4342 27.0535L75.7682 26.3265C75.4747 26.1917 75.234 26.0082 75.0405 25.7759L74.4259 26.2881ZM75.4424 27.0571C75.8475 27.2323 76.3048 27.314 76.8052 27.314V26.514C76.391 26.514 76.0456 26.4464 75.76 26.3229L75.4424 27.0571ZM76.8052 27.314C77.1036 27.314 77.3941 27.2831 77.676 27.2205L77.5024 26.4395C77.2803 26.4889 77.0481 26.514 76.8052 26.514V27.314ZM77.6896 27.2172C77.9803 27.1418 78.2462 27.0267 78.4831 26.8688L78.0393 26.2032C77.8842 26.3066 77.7021 26.3875 77.4888 26.4428L77.6896 27.2172ZM78.4865 26.8665C78.7395 26.694 78.9469 26.4747 79.1069 26.212L78.4235 25.796C78.3221 25.9626 78.1936 26.098 78.0359 26.2055L78.4865 26.8665ZM79.1069 26.212C79.2709 25.9426 79.3739 25.6282 79.4267 25.2799L78.6357 25.1601C78.5952 25.4278 78.5209 25.6361 78.4235 25.796L79.1069 26.212ZM79.0312 24.82H76.7772V25.62H79.0312V24.82ZM77.1772 25.22V23.092H76.3772V25.22H77.1772Z" fill="black"/>
</svg>
