<svg width="32" height="32" viewBox="0 0 32 32" fill="none" xmlns="http://www.w3.org/2000/svg">
<path d="M26.9993 16.7599V15.9999V15.2299L28.9193 13.5499C29.2732 13.238 29.5055 12.8109 29.575 12.3443C29.6445 11.8777 29.5469 11.4015 29.2993 10.9999L26.9393 6.99992C26.7639 6.69618 26.5118 6.4439 26.2081 6.26838C25.9045 6.09286 25.56 6.00028 25.2093 5.99992C24.9919 5.99825 24.7758 6.03203 24.5693 6.09992L22.1393 6.91992C21.7197 6.64113 21.2821 6.39057 20.8293 6.16992L20.3193 3.64992C20.2278 3.18952 19.9774 2.77596 19.6117 2.48162C19.2461 2.18728 18.7886 2.03092 18.3193 2.03992H13.6393C13.17 2.03092 12.7125 2.18728 12.3468 2.48162C11.9812 2.77596 11.7307 3.18952 11.6393 3.64992L11.1293 6.16992C10.6732 6.39052 10.2322 6.64107 9.80928 6.91992L7.42928 6.05992C7.22057 6.00554 7.00445 5.98528 6.78928 5.99992C6.43855 6.00028 6.09409 6.09286 5.79044 6.26838C5.48679 6.4439 5.23464 6.69618 5.05928 6.99992L2.69928 10.9999C2.46586 11.4009 2.37913 11.8706 2.45393 12.3285C2.52872 12.7864 2.7604 13.204 3.10928 13.5099L4.99928 15.2399V16.7699L3.10928 18.4499C2.75054 18.7579 2.51253 19.183 2.43747 19.6499C2.36242 20.1167 2.45517 20.595 2.69928 20.9999L5.05928 24.9999C5.23464 25.3037 5.48679 25.5559 5.79044 25.7315C6.09409 25.907 6.43855 25.9996 6.78928 25.9999C7.00663 26.0016 7.22279 25.9678 7.42928 25.8999L9.85928 25.0799C10.2788 25.3587 10.7165 25.6093 11.1693 25.8299L11.6793 28.3499C11.7707 28.8103 12.0212 29.2239 12.3868 29.5182C12.7525 29.8126 13.21 29.9689 13.6793 29.9599H18.3993C18.8686 29.9689 19.3261 29.8126 19.6917 29.5182C20.0574 29.2239 20.3078 28.8103 20.3993 28.3499L20.9093 25.8299C21.3653 25.6093 21.8063 25.3588 22.2293 25.0799L24.6493 25.8999C24.8558 25.9678 25.0719 26.0016 25.2893 25.9999C25.64 25.9996 25.9845 25.907 26.2881 25.7315C26.5918 25.5559 26.8439 25.3037 27.0193 24.9999L29.2993 20.9999C29.5327 20.5989 29.6194 20.1293 29.5446 19.6714C29.4698 19.2134 29.2382 18.7958 28.8893 18.4899L26.9993 16.7599ZM25.2093 23.9999L21.7793 22.8399C20.9763 23.52 20.0587 24.0517 19.0693 24.4099L18.3593 27.9999H13.6393L12.9293 24.4499C11.9477 24.0815 11.035 23.5508 10.2293 22.8799L6.78928 23.9999L4.42928 19.9999L7.14928 17.5999C6.96437 16.5648 6.96437 15.5051 7.14928 14.4699L4.42928 11.9999L6.78928 7.99992L10.2193 9.15992C11.0222 8.47981 11.9399 7.94817 12.9293 7.58992L13.6393 3.99992H18.3593L19.0693 7.54992C20.0509 7.91834 20.9636 8.44906 21.7693 9.11992L25.2093 7.99992L27.5693 11.9999L24.8493 14.3999C25.0342 15.4351 25.0342 16.4948 24.8493 17.5299L27.5693 19.9999L25.2093 23.9999Z" fill="#7C7C7C"/>
<path d="M16 22C14.8133 22 13.6533 21.6481 12.6666 20.9888C11.6799 20.3295 10.9109 19.3925 10.4567 18.2961C10.0026 17.1997 9.88378 15.9933 10.1153 14.8295C10.3468 13.6656 10.9182 12.5965 11.7574 11.7574C12.5965 10.9182 13.6656 10.3468 14.8295 10.1153C15.9933 9.88378 17.1997 10.0026 18.2961 10.4567C19.3925 10.9109 20.3295 11.6799 20.9888 12.6666C21.6481 13.6533 22 14.8133 22 16C22.008 16.7902 21.8583 17.574 21.5596 18.3056C21.2609 19.0371 20.8193 19.7018 20.2605 20.2605C19.7018 20.8193 19.0371 21.2609 18.3056 21.5596C17.574 21.8583 16.7902 22.008 16 22ZM16 12C15.4713 11.9877 14.9457 12.0827 14.4548 12.2794C13.9639 12.4761 13.5181 12.7702 13.1442 13.1442C12.7702 13.5181 12.4761 13.9639 12.2794 14.4548C12.0827 14.9457 11.9877 15.4713 12 16C11.9877 16.5287 12.0827 17.0543 12.2794 17.5452C12.4761 18.0361 12.7702 18.4819 13.1442 18.8559C13.5181 19.2298 13.9639 19.524 14.4548 19.7206C14.9457 19.9173 15.4713 20.0123 16 20C16.5287 20.0123 17.0543 19.9173 17.5452 19.7206C18.0361 19.524 18.4819 19.2298 18.8559 18.8559C19.2298 18.4819 19.524 18.0361 19.7206 17.5452C19.9173 17.0543 20.0123 16.5287 20 16C20.0123 15.4713 19.9173 14.9457 19.7206 14.4548C19.524 13.9639 19.2298 13.5181 18.8559 13.1442C18.4819 12.7702 18.0361 12.4761 17.5452 12.2794C17.0543 12.0827 16.5287 11.9877 16 12Z" fill="#7C7C7C"/>
</svg>
