<svg width="39" height="32" viewBox="0 0 39 32" fill="none" xmlns="http://www.w3.org/2000/svg">
<path d="M4.13101 31C1.53948 4.57853 38.2946 4.08926 34.7603 31" stroke="#150909" stroke-width="2" stroke-linecap="round"/>
<circle cx="20" cy="10" r="9" fill="white" stroke="#150909" stroke-width="2"/>
<rect x="0.5" y="19" width="38" height="13" fill="#150909"/>
<path d="M11.4814 21.8271V22.6816H9.06445V29H8.07812V22.6816H5.66113V21.8271H11.4814ZM12.4678 21.8271H17.6973V22.7061H13.415V24.8838H17.375V25.7139H13.415V28.1455H17.7705V29H12.4678V21.8271ZM22.7266 26.0605L21.6377 22.8916L20.4805 26.0605H22.7266ZM21.1299 21.8271H22.2285L24.8311 29H23.7666L23.0391 26.8516H20.2021L19.4258 29H18.4297L21.1299 21.8271ZM25.6904 21.8271H27.082L29.1426 27.8916L31.1885 21.8271H32.5654V29H31.6426V24.7666C31.6426 24.6201 31.6458 24.3776 31.6523 24.0391C31.6589 23.7005 31.6621 23.3376 31.6621 22.9502L29.6162 29H28.6543L26.5938 22.9502V23.1699C26.5938 23.3457 26.597 23.6143 26.6035 23.9756C26.6133 24.3337 26.6182 24.5973 26.6182 24.7666V29H25.6904V21.8271Z" fill="white"/>
</svg>
