<svg width="162" height="16" viewBox="0 0 162 16" fill="none" xmlns="http://www.w3.org/2000/svg">
<path d="M3.95 7.656H5.12C6.416 7.656 7.064 7.092 7.064 5.964C7.064 4.836 6.416 4.272 5.12 4.272H3.95V7.656ZM3.95 15H0.422V1.428H6.038C7.562 1.428 8.726 1.824 9.53 2.616C10.346 3.408 10.754 4.524 10.754 5.964C10.754 7.404 10.346 8.52 9.53 9.312C8.726 10.104 7.562 10.5 6.038 10.5H3.95V15ZM100.433 13.272C100.433 12.984 100.487 12.714 100.595 12.462C100.703 12.198 100.853 11.97 101.045 11.778C101.237 11.586 101.459 11.436 101.711 11.328C101.975 11.22 102.251 11.166 102.539 11.166C102.827 11.166 103.097 11.22 103.349 11.328C103.613 11.436 103.841 11.586 104.033 11.778C104.225 11.97 104.375 12.198 104.483 12.462C104.591 12.714 104.645 12.984 104.645 13.272C104.645 13.56 104.591 13.836 104.483 14.1C104.375 14.352 104.225 14.574 104.033 14.766C103.841 14.958 103.613 15.108 103.349 15.216C103.097 15.324 102.827 15.378 102.539 15.378C102.251 15.378 101.975 15.324 101.711 15.216C101.459 15.108 101.237 14.958 101.045 14.766C100.853 14.574 100.703 14.352 100.595 14.1C100.487 13.836 100.433 13.56 100.433 13.272ZM112.886 4.416V15H109.358V4.416H106.46V1.428H115.784V4.416H112.886ZM125.795 4.416H121.601V6.684H125.561V9.672H121.601V12.012H125.795V15H118.073V1.428H125.795V4.416ZM136.439 9.96L134.855 5.442L133.271 9.96H136.439ZM137.375 12.642H132.335L131.525 15H127.763L132.929 1.428H136.781L141.947 15H138.185L137.375 12.642ZM143.598 15L145.902 1.428H149.394L152.112 8.664L154.812 1.428H158.304L160.608 15H157.098L155.928 7.188L152.724 15H151.32L148.278 7.188L147.108 15H143.598Z" fill="#FF0000"/>
<path d="M21.0632 4.416H16.8692V6.684H20.8292V9.672H16.8692V12.012H21.0632V15H13.3412V1.428H21.0632V4.416ZM45.5846 4.416H41.3366V6.684H45.2066V9.672H41.3366V15H37.8086V1.428H45.5846V4.416ZM69.1671 5.964C68.3511 4.968 67.3431 4.47 66.1431 4.47C65.6151 4.47 65.1231 4.566 64.6671 4.758C64.2231 4.95 63.8391 5.214 63.5151 5.55C63.1911 5.874 62.9331 6.264 62.7411 6.72C62.5611 7.176 62.4711 7.668 62.4711 8.196C62.4711 8.736 62.5611 9.234 62.7411 9.69C62.9331 10.146 63.1911 10.542 63.5151 10.878C63.8511 11.214 64.2411 11.478 64.6851 11.67C65.1291 11.862 65.6091 11.958 66.1251 11.958C67.2531 11.958 68.2671 11.478 69.1671 10.518V14.694L68.8071 14.82C68.2671 15.012 67.7631 15.15 67.2951 15.234C66.8271 15.33 66.3651 15.378 65.9091 15.378C64.9731 15.378 64.0731 15.204 63.2091 14.856C62.3571 14.496 61.6011 13.998 60.9411 13.362C60.2931 12.714 59.7711 11.952 59.3751 11.076C58.9791 10.188 58.7811 9.222 58.7811 8.178C58.7811 7.134 58.9731 6.18 59.3571 5.316C59.7531 4.44 60.2751 3.69 60.9231 3.066C61.5831 2.43 62.3451 1.938 63.2091 1.59C64.0731 1.23 64.9791 1.05 65.9271 1.05C66.4671 1.05 66.9951 1.11 67.5111 1.23C68.0391 1.338 68.5911 1.512 69.1671 1.752V5.964Z" fill="white"/>
<path d="M27.8548 7.494H28.5208C29.2168 7.494 29.7508 7.35 30.1228 7.062C30.4948 6.774 30.6808 6.36 30.6808 5.82C30.6808 5.28 30.4948 4.866 30.1228 4.578C29.7508 4.29 29.2168 4.146 28.5208 4.146H27.8548V7.494ZM35.6128 15H31.2208L27.8548 9.78V15H24.3268V1.428H29.8168C30.5728 1.428 31.2328 1.542 31.7968 1.77C32.3608 1.986 32.8228 2.286 33.1828 2.67C33.5548 3.054 33.8308 3.498 34.0108 4.002C34.2028 4.506 34.2988 5.046 34.2988 5.622C34.2988 6.654 34.0468 7.494 33.5428 8.142C33.0508 8.778 32.3188 9.21 31.3468 9.438L35.6128 15Z" fill="#FFF600"/>
<path d="M56.1295 4.416H51.9355V6.684H55.8955V9.672H51.9355V12.012H56.1295V15H48.4075V1.428H56.1295V4.416Z" fill="#00FF29"/>
<path d="M77.807 4.416V15H74.279V4.416H71.381V1.428H80.705V4.416H77.807Z" fill="#009BFD"/>
<path d="M86.6122 8.214C86.6122 8.754 86.7142 9.252 86.9182 9.708C87.1222 10.164 87.3982 10.56 87.7462 10.896C88.0942 11.232 88.4962 11.496 88.9522 11.688C89.4202 11.868 89.9122 11.958 90.4282 11.958C90.9442 11.958 91.4302 11.868 91.8862 11.688C92.3542 11.496 92.7622 11.232 93.1102 10.896C93.4702 10.56 93.7522 10.164 93.9562 9.708C94.1602 9.252 94.2622 8.754 94.2622 8.214C94.2622 7.674 94.1602 7.176 93.9562 6.72C93.7522 6.264 93.4702 5.868 93.1102 5.532C92.7622 5.196 92.3542 4.938 91.8862 4.758C91.4302 4.566 90.9442 4.47 90.4282 4.47C89.9122 4.47 89.4202 4.566 88.9522 4.758C88.4962 4.938 88.0942 5.196 87.7462 5.532C87.3982 5.868 87.1222 6.264 86.9182 6.72C86.7142 7.176 86.6122 7.674 86.6122 8.214ZM82.9222 8.214C82.9222 7.206 83.1082 6.27 83.4802 5.406C83.8522 4.53 84.3682 3.768 85.0282 3.12C85.6882 2.472 86.4742 1.968 87.3862 1.608C88.3102 1.236 89.3242 1.05 90.4282 1.05C91.5202 1.05 92.5282 1.236 93.4522 1.608C94.3762 1.968 95.1682 2.472 95.8282 3.12C96.5002 3.768 97.0222 4.53 97.3942 5.406C97.7662 6.27 97.9522 7.206 97.9522 8.214C97.9522 9.222 97.7662 10.164 97.3942 11.04C97.0222 11.904 96.5002 12.66 95.8282 13.308C95.1682 13.956 94.3762 14.466 93.4522 14.838C92.5282 15.198 91.5202 15.378 90.4282 15.378C89.3242 15.378 88.3102 15.198 87.3862 14.838C86.4742 14.466 85.6882 13.956 85.0282 13.308C84.3682 12.66 83.8522 11.904 83.4802 11.04C83.1082 10.164 82.9222 9.222 82.9222 8.214Z" fill="#F000FF"/>
<path d="M3.95 7.656H3.55V8.056H3.95V7.656ZM3.95 4.272V3.872H3.55V4.272H3.95ZM3.95 15V15.4H4.35V15H3.95ZM0.422 15H0.0220001V15.4H0.422V15ZM0.422 1.428V1.028H0.0220001V1.428H0.422ZM9.53 2.616L9.24928 2.90097L9.25141 2.90303L9.53 2.616ZM9.53 9.312L9.2514 9.02496L9.24929 9.02704L9.53 9.312ZM3.95 10.5V10.1H3.55V10.5H3.95ZM3.95 8.056H5.12V7.256H3.95V8.056ZM5.12 8.056C5.81708 8.056 6.41459 7.90552 6.84061 7.53472C7.27724 7.15469 7.464 6.60523 7.464 5.964H6.664C6.664 6.45077 6.52676 6.74731 6.31539 6.93128C6.09341 7.12448 5.71892 7.256 5.12 7.256V8.056ZM7.464 5.964C7.464 5.32277 7.27724 4.77331 6.84061 4.39328C6.41459 4.02248 5.81708 3.872 5.12 3.872V4.672C5.71892 4.672 6.09341 4.80352 6.31539 4.99672C6.52676 5.18069 6.664 5.47723 6.664 5.964H7.464ZM5.12 3.872H3.95V4.672H5.12V3.872ZM3.55 4.272V7.656H4.35V4.272H3.55ZM3.95 14.6H0.422V15.4H3.95V14.6ZM0.822 15V1.428H0.0220001V15H0.822ZM0.422 1.828H6.038V1.028H0.422V1.828ZM6.038 1.828C7.49472 1.828 8.5433 2.20551 9.24929 2.90096L9.81071 2.33104C8.9087 1.44249 7.62928 1.028 6.038 1.028V1.828ZM9.25141 2.90303C9.97038 3.60086 10.354 4.60172 10.354 5.964H11.154C11.154 4.44628 10.7216 3.21514 9.80859 2.32897L9.25141 2.90303ZM10.354 5.964C10.354 7.32628 9.97038 8.32714 9.25141 9.02497L9.80859 9.59903C10.7216 8.71286 11.154 7.48172 11.154 5.964H10.354ZM9.24929 9.02704C8.5433 9.72249 7.49472 10.1 6.038 10.1V10.9C7.62928 10.9 8.9087 10.4855 9.81071 9.59696L9.24929 9.02704ZM6.038 10.1H3.95V10.9H6.038V10.1ZM3.55 10.5V15H4.35V10.5H3.55ZM21.0632 4.416V4.816H21.4632V4.416H21.0632ZM16.8692 4.416V4.016H16.4692V4.416H16.8692ZM16.8692 6.684H16.4692V7.084H16.8692V6.684ZM20.8292 6.684H21.2292V6.284H20.8292V6.684ZM20.8292 9.672V10.072H21.2292V9.672H20.8292ZM16.8692 9.672V9.272H16.4692V9.672H16.8692ZM16.8692 12.012H16.4692V12.412H16.8692V12.012ZM21.0632 12.012H21.4632V11.612H21.0632V12.012ZM21.0632 15V15.4H21.4632V15H21.0632ZM13.3412 15H12.9412V15.4H13.3412V15ZM13.3412 1.428V1.028H12.9412V1.428H13.3412ZM21.0632 1.428H21.4632V1.028H21.0632V1.428ZM21.0632 4.016H16.8692V4.816H21.0632V4.016ZM16.4692 4.416V6.684H17.2692V4.416H16.4692ZM16.8692 7.084H20.8292V6.284H16.8692V7.084ZM20.4292 6.684V9.672H21.2292V6.684H20.4292ZM20.8292 9.272H16.8692V10.072H20.8292V9.272ZM16.4692 9.672V12.012H17.2692V9.672H16.4692ZM16.8692 12.412H21.0632V11.612H16.8692V12.412ZM20.6632 12.012V15H21.4632V12.012H20.6632ZM21.0632 14.6H13.3412V15.4H21.0632V14.6ZM13.7412 15V1.428H12.9412V15H13.7412ZM13.3412 1.828H21.0632V1.028H13.3412V1.828ZM20.6632 1.428V4.416H21.4632V1.428H20.6632ZM27.8548 7.494H27.4548V7.894H27.8548V7.494ZM30.1228 7.062L30.3677 7.37829L30.1228 7.062ZM30.1228 4.578L30.3677 4.26171V4.26171L30.1228 4.578ZM27.8548 4.146V3.746H27.4548V4.146H27.8548ZM35.6128 15V15.4H36.4237L35.9302 14.7566L35.6128 15ZM31.2208 15L30.8847 15.2168L31.0028 15.4H31.2208V15ZM27.8548 9.78L28.191 9.56323L27.4548 8.42157V9.78H27.8548ZM27.8548 15V15.4H28.2548V15H27.8548ZM24.3268 15H23.9268V15.4H24.3268V15ZM24.3268 1.428V1.028H23.9268V1.428H24.3268ZM31.7968 1.77L31.6469 2.14091L31.6538 2.14354L31.7968 1.77ZM33.1828 2.67L32.891 2.94361L32.8955 2.94832L33.1828 2.67ZM34.0108 4.002L33.6341 4.13656L33.6371 4.1444L34.0108 4.002ZM33.5428 8.142L33.2271 7.89642L33.2265 7.89725L33.5428 8.142ZM31.3468 9.438L31.2555 9.04857L30.6525 9.19001L31.0295 9.68144L31.3468 9.438ZM27.8548 7.894H28.5208V7.094H27.8548V7.894ZM28.5208 7.894C29.2647 7.894 29.8991 7.74111 30.3677 7.37829L29.878 6.74571C29.6026 6.95888 29.169 7.094 28.5208 7.094V7.894ZM30.3677 7.37829C30.8529 7.00269 31.0808 6.46302 31.0808 5.82H30.2808C30.2808 6.25698 30.1368 6.54531 29.878 6.74571L30.3677 7.37829ZM31.0808 5.82C31.0808 5.17698 30.8529 4.63731 30.3677 4.26171L29.878 4.89429C30.1368 5.09469 30.2808 5.38302 30.2808 5.82H31.0808ZM30.3677 4.26171C29.8991 3.89888 29.2647 3.746 28.5208 3.746V4.546C29.169 4.546 29.6026 4.68111 29.878 4.89429L30.3677 4.26171ZM28.5208 3.746H27.8548V4.546H28.5208V3.746ZM27.4548 4.146V7.494H28.2548V4.146H27.4548ZM35.6128 14.6H31.2208V15.4H35.6128V14.6ZM31.557 14.7832L28.191 9.56323L27.5187 9.99677L30.8847 15.2168L31.557 14.7832ZM27.4548 9.78V15H28.2548V9.78H27.4548ZM27.8548 14.6H24.3268V15.4H27.8548V14.6ZM24.7268 15V1.428H23.9268V15H24.7268ZM24.3268 1.828H29.8168V1.028H24.3268V1.828ZM29.8168 1.828C30.5335 1.828 31.1406 1.93615 31.6469 2.14084L31.9468 1.39916C31.3251 1.14785 30.6122 1.028 29.8168 1.028V1.828ZM31.6538 2.14354C32.1696 2.34109 32.5781 2.6098 32.891 2.94358L33.4747 2.39642C33.0676 1.9622 32.5521 1.6309 31.9399 1.39646L31.6538 2.14354ZM32.8955 2.94832C33.2278 3.29127 33.4733 3.68624 33.6341 4.13653L34.3875 3.86747C34.1884 3.30976 33.8819 2.81672 33.4701 2.39168L32.8955 2.94832ZM33.6371 4.1444C33.8106 4.59991 33.8988 5.09133 33.8988 5.622H34.6988C34.6988 5.00067 34.5951 4.41209 34.3846 3.8596L33.6371 4.1444ZM33.8988 5.622C33.8988 6.58832 33.6637 7.33503 33.2271 7.89642L33.8586 8.38758C34.4299 7.65297 34.6988 6.71968 34.6988 5.622H33.8988ZM33.2265 7.89725C32.8032 8.44444 32.1603 8.83633 31.2555 9.04857L31.4382 9.82743C32.4774 9.58367 33.2985 9.11156 33.8592 8.38675L33.2265 7.89725ZM31.0295 9.68144L35.2955 15.2434L35.9302 14.7566L31.6642 9.19456L31.0295 9.68144ZM45.5846 4.416V4.816H45.9846V4.416H45.5846ZM41.3366 4.416V4.016H40.9366V4.416H41.3366ZM41.3366 6.684H40.9366V7.084H41.3366V6.684ZM45.2066 6.684H45.6066V6.284H45.2066V6.684ZM45.2066 9.672V10.072H45.6066V9.672H45.2066ZM41.3366 9.672V9.272H40.9366V9.672H41.3366ZM41.3366 15V15.4H41.7366V15H41.3366ZM37.8086 15H37.4086V15.4H37.8086V15ZM37.8086 1.428V1.028H37.4086V1.428H37.8086ZM45.5846 1.428H45.9846V1.028H45.5846V1.428ZM45.5846 4.016H41.3366V4.816H45.5846V4.016ZM40.9366 4.416V6.684H41.7366V4.416H40.9366ZM41.3366 7.084H45.2066V6.284H41.3366V7.084ZM44.8066 6.684V9.672H45.6066V6.684H44.8066ZM45.2066 9.272H41.3366V10.072H45.2066V9.272ZM40.9366 9.672V15H41.7366V9.672H40.9366ZM41.3366 14.6H37.8086V15.4H41.3366V14.6ZM38.2086 15V1.428H37.4086V15H38.2086ZM37.8086 1.828H45.5846V1.028H37.8086V1.828ZM45.1846 1.428V4.416H45.9846V1.428H45.1846ZM56.1295 4.416V4.816H56.5295V4.416H56.1295ZM51.9355 4.416V4.016H51.5355V4.416H51.9355ZM51.9355 6.684H51.5355V7.084H51.9355V6.684ZM55.8955 6.684H56.2955V6.284H55.8955V6.684ZM55.8955 9.672V10.072H56.2955V9.672H55.8955ZM51.9355 9.672V9.272H51.5355V9.672H51.9355ZM51.9355 12.012H51.5355V12.412H51.9355V12.012ZM56.1295 12.012H56.5295V11.612H56.1295V12.012ZM56.1295 15V15.4H56.5295V15H56.1295ZM48.4075 15H48.0075V15.4H48.4075V15ZM48.4075 1.428V1.028H48.0075V1.428H48.4075ZM56.1295 1.428H56.5295V1.028H56.1295V1.428ZM56.1295 4.016H51.9355V4.816H56.1295V4.016ZM51.5355 4.416V6.684H52.3355V4.416H51.5355ZM51.9355 7.084H55.8955V6.284H51.9355V7.084ZM55.4955 6.684V9.672H56.2955V6.684H55.4955ZM55.8955 9.272H51.9355V10.072H55.8955V9.272ZM51.5355 9.672V12.012H52.3355V9.672H51.5355ZM51.9355 12.412H56.1295V11.612H51.9355V12.412ZM55.7295 12.012V15H56.5295V12.012H55.7295ZM56.1295 14.6H48.4075V15.4H56.1295V14.6ZM48.8075 15V1.428H48.0075V15H48.8075ZM48.4075 1.828H56.1295V1.028H48.4075V1.828ZM55.7295 1.428V4.416H56.5295V1.428H55.7295ZM69.1671 5.964L68.8577 6.2175L69.5671 7.0834V5.964H69.1671ZM64.6671 4.758L64.5119 4.38933L64.5083 4.39086L64.6671 4.758ZM63.5151 5.55L63.798 5.83289L63.803 5.82765L63.5151 5.55ZM62.7411 6.72L62.3723 6.56474L62.369 6.57313L62.7411 6.72ZM62.7411 9.69L62.3689 9.8369L62.3724 9.84522L62.7411 9.69ZM63.5151 10.878L63.2271 11.1557L63.2322 11.1608L63.5151 10.878ZM64.6851 11.67L64.5263 12.0371L64.6851 11.67ZM69.1671 10.518H69.5671V9.50649L68.8753 10.2444L69.1671 10.518ZM69.1671 14.694L69.2992 15.0715L69.5671 14.9778V14.694H69.1671ZM68.8071 14.82L68.6749 14.4425L68.6731 14.4431L68.8071 14.82ZM67.2951 15.234L67.2244 14.8402L67.2147 14.8422L67.2951 15.234ZM63.2091 14.856L63.0534 15.2245L63.0596 15.227L63.2091 14.856ZM60.9411 13.362L60.6582 13.6449L60.6635 13.65L60.9411 13.362ZM59.3751 11.076L59.0098 11.2389L59.0106 11.2408L59.3751 11.076ZM59.3571 5.316L58.9926 5.15123L58.9916 5.15354L59.3571 5.316ZM60.9231 3.066L61.2006 3.35413L61.2006 3.35403L60.9231 3.066ZM63.2091 1.59L63.3586 1.96106L63.3629 1.95923L63.2091 1.59ZM67.5111 1.23L67.4205 1.61974L67.4309 1.62189L67.5111 1.23ZM69.1671 1.752H69.5671V1.48533L69.3209 1.38277L69.1671 1.752ZM69.4765 5.7105C68.5909 4.62951 67.4726 4.07 66.1431 4.07V4.87C67.2135 4.87 68.1113 5.30649 68.8577 6.2175L69.4765 5.7105ZM66.1431 4.07C65.5654 4.07 65.0202 4.17529 64.5119 4.38935L64.8223 5.12665C65.2259 4.95671 65.6648 4.87 66.1431 4.87V4.07ZM64.5083 4.39086C64.0176 4.60307 63.5892 4.89688 63.2272 5.27235L63.803 5.82765C64.089 5.53112 64.4286 5.29693 64.8259 5.12514L64.5083 4.39086ZM63.2322 5.26716C62.8688 5.63058 62.5829 6.06492 62.3724 6.56478L63.1097 6.87522C63.2833 6.46308 63.5134 6.11742 63.7979 5.83284L63.2322 5.26716ZM62.369 6.57313C62.1692 7.07939 62.0711 7.62162 62.0711 8.196H62.8711C62.8711 7.71438 62.953 7.27261 63.1132 6.86687L62.369 6.57313ZM62.0711 8.196C62.0711 8.78117 62.1688 9.32957 62.369 9.83687L63.1132 9.54313C62.9534 9.13842 62.8711 8.69083 62.8711 8.196H62.0711ZM62.3724 9.84522C62.5824 10.3439 62.8669 10.7821 63.2272 11.1557L63.803 10.6003C63.5153 10.3019 63.2838 9.9481 63.1097 9.53478L62.3724 9.84522ZM63.2322 11.1608C63.6046 11.5332 64.0369 11.8255 64.5263 12.0371L64.8439 11.3029C64.4453 11.1305 64.0976 10.8948 63.7979 10.5952L63.2322 11.1608ZM64.5263 12.0371C65.0237 12.2522 65.5582 12.358 66.1251 12.358V11.558C65.66 11.558 65.2345 11.4718 64.8439 11.3029L64.5263 12.0371ZM66.1251 12.358C67.3823 12.358 68.497 11.8176 69.4589 10.7916L68.8753 10.2444C68.0372 11.1384 67.1239 11.558 66.1251 11.558V12.358ZM68.7671 10.518V14.694H69.5671V10.518H68.7671ZM69.035 14.3165L68.6749 14.4425L68.9392 15.1975L69.2992 15.0715L69.035 14.3165ZM68.6731 14.4431C68.1497 14.6292 67.667 14.7608 67.2244 14.8403L67.3658 15.6277C67.8591 15.5392 68.3845 15.3948 68.9411 15.1969L68.6731 14.4431ZM67.2147 14.8422C66.7719 14.933 66.3368 14.978 65.9091 14.978V15.778C66.3933 15.778 66.8823 15.727 67.3755 15.6258L67.2147 14.8422ZM65.9091 14.978C65.024 14.978 64.1748 14.8137 63.3585 14.485L63.0596 15.227C63.9714 15.5943 64.9221 15.778 65.9091 15.778V14.978ZM63.3648 14.4875C62.5576 14.1465 61.843 13.6756 61.2187 13.074L60.6635 13.65C61.3592 14.3204 62.1566 14.8455 63.0534 15.2245L63.3648 14.4875ZM61.2239 13.0792C60.6117 12.4669 60.1167 11.7455 59.7396 10.9112L59.0106 11.2408C59.4255 12.1585 59.9745 12.9611 60.6582 13.6448L61.2239 13.0792ZM59.7404 10.9131C59.3689 10.0801 59.1811 9.17006 59.1811 8.178H58.3811C58.3811 9.27393 58.5893 10.2959 59.0098 11.2389L59.7404 10.9131ZM59.1811 8.178C59.1811 7.1841 59.3636 6.28621 59.7226 5.47845L58.9916 5.15354C58.5826 6.07379 58.3811 7.0839 58.3811 8.178H59.1811ZM59.7216 5.48077C60.0981 4.64783 60.5916 3.94054 61.2006 3.35413L60.6456 2.77787C59.9586 3.43946 59.4081 4.23217 58.9926 5.15123L59.7216 5.48077ZM61.2006 3.35403C61.8231 2.75425 62.5414 2.29017 63.3585 1.96103L63.0596 1.21896C62.1488 1.58583 61.3431 2.10575 60.6455 2.77797L61.2006 3.35403ZM63.3629 1.95923C64.1776 1.61981 65.0312 1.45 65.9271 1.45V0.649999C64.927 0.649999 63.9686 0.840191 63.0552 1.22077L63.3629 1.95923ZM65.9271 1.45C66.4372 1.45 66.9348 1.50664 67.4205 1.6196L67.6017 0.840396C67.0554 0.713355 66.497 0.649999 65.9271 0.649999V1.45ZM67.4309 1.62189C67.9301 1.72399 68.4574 1.88962 69.0132 2.12123L69.3209 1.38277C68.7248 1.13437 68.1481 0.952007 67.5912 0.838113L67.4309 1.62189ZM68.7671 1.752V5.964H69.5671V1.752H68.7671ZM77.807 4.416V4.016H77.407V4.416H77.807ZM77.807 15V15.4H78.207V15H77.807ZM74.279 15H73.879V15.4H74.279V15ZM74.279 4.416H74.679V4.016H74.279V4.416ZM71.381 4.416H70.981V4.816H71.381V4.416ZM71.381 1.428V1.028H70.981V1.428H71.381ZM80.705 1.428H81.105V1.028H80.705V1.428ZM80.705 4.416V4.816H81.105V4.416H80.705ZM77.407 4.416V15H78.207V4.416H77.407ZM77.807 14.6H74.279V15.4H77.807V14.6ZM74.679 15V4.416H73.879V15H74.679ZM74.279 4.016H71.381V4.816H74.279V4.016ZM71.781 4.416V1.428H70.981V4.416H71.781ZM71.381 1.828H80.705V1.028H71.381V1.828ZM80.305 1.428V4.416H81.105V1.428H80.305ZM80.705 4.016H77.807V4.816H80.705V4.016ZM86.9182 9.708L87.2833 9.54465L86.9182 9.708ZM87.7462 10.896L88.024 10.6082L87.7462 10.896ZM88.9522 11.688L88.7969 12.0568L88.8086 12.0613L88.9522 11.688ZM91.8862 11.688L92.0331 12.0601L92.038 12.0581L91.8862 11.688ZM93.1102 10.896L92.8372 10.6035L92.8324 10.6082L93.1102 10.896ZM93.9562 9.708L94.3213 9.87135L93.9562 9.708ZM93.9562 6.72L94.3213 6.55665V6.55665L93.9562 6.72ZM93.1102 5.532L92.8323 5.8198L92.8373 5.82442L93.1102 5.532ZM91.8862 4.758L91.7309 5.12683L91.7426 5.13134L91.8862 4.758ZM88.9522 4.758L89.0991 5.1301L89.104 5.12807L88.9522 4.758ZM87.7462 5.532L88.024 5.81976L87.7462 5.532ZM86.9182 6.72L87.2833 6.88335L86.9182 6.72ZM83.4802 5.406L83.8476 5.56418L83.8484 5.56235L83.4802 5.406ZM85.0282 3.12L84.748 2.83457V2.83457L85.0282 3.12ZM87.3862 1.608L87.5331 1.98007L87.5356 1.97906L87.3862 1.608ZM93.4522 1.608L93.3028 1.97908L93.307 1.98071L93.4522 1.608ZM95.8282 3.12L95.5479 3.40544L95.5505 3.40794L95.8282 3.12ZM97.3942 5.406L97.026 5.56235L97.0268 5.56418L97.3942 5.406ZM97.3942 11.04L97.7616 11.1982L97.7624 11.1963L97.3942 11.04ZM95.8282 13.308L95.5505 13.0201L95.548 13.0226L95.8282 13.308ZM93.4522 14.838L93.5974 15.2107L93.6016 15.2091L93.4522 14.838ZM87.3862 14.838L87.2351 15.2084L87.241 15.2107L87.3862 14.838ZM85.0282 13.308L84.748 13.5934L85.0282 13.308ZM83.4802 11.04L83.112 11.1964L83.1128 11.1982L83.4802 11.04ZM86.2122 8.214C86.2122 8.80568 86.3243 9.3599 86.5531 9.87135L87.2833 9.54465C87.1041 9.1441 87.0122 8.70232 87.0122 8.214H86.2122ZM86.5531 9.87135C86.7772 10.3725 87.0824 10.8111 87.4684 11.1838L88.024 10.6082C87.714 10.3089 87.4671 9.95554 87.2833 9.54465L86.5531 9.87135ZM87.4684 11.1838C87.8527 11.5549 88.2965 11.8459 88.797 12.0567L89.1074 11.3193C88.6959 11.1461 88.3357 10.9091 88.024 10.6082L87.4684 11.1838ZM88.8086 12.0613C89.3238 12.2595 89.8645 12.358 90.4282 12.358V11.558C89.9598 11.558 89.5166 11.4765 89.0958 11.3147L88.8086 12.0613ZM90.4282 12.358C90.9918 12.358 91.5279 12.2595 92.0331 12.0601L91.7393 11.3159C91.3325 11.4765 90.8966 11.558 90.4282 11.558V12.358ZM92.038 12.0581C92.5507 11.8477 93.002 11.5565 93.388 11.1838L92.8324 10.6082C92.5224 10.9075 92.1577 11.1443 91.7344 11.3179L92.038 12.0581ZM93.3831 11.1884C93.7827 10.8154 94.0958 10.3754 94.3213 9.87135L93.5911 9.54465C93.4085 9.95263 93.1576 10.3046 92.8373 10.6036L93.3831 11.1884ZM94.3213 9.87135C94.5501 9.3599 94.6622 8.80568 94.6622 8.214H93.8622C93.8622 8.70232 93.7703 9.1441 93.5911 9.54465L94.3213 9.87135ZM94.6622 8.214C94.6622 7.62232 94.5501 7.0681 94.3213 6.55665L93.5911 6.88335C93.7703 7.2839 93.8622 7.72568 93.8622 8.214H94.6622ZM94.3213 6.55665C94.0958 6.05263 93.7827 5.61255 93.3831 5.23958L92.8373 5.82442C93.1576 6.12345 93.4085 6.47537 93.5911 6.88335L94.3213 6.55665ZM93.388 5.24424C93.0001 4.86964 92.5459 4.58319 92.0298 4.38466L91.7426 5.13134C92.1624 5.29281 92.5243 5.52236 92.8324 5.81976L93.388 5.24424ZM92.0414 4.38935C91.5342 4.17577 90.9952 4.07 90.4282 4.07V4.87C90.8932 4.87 91.3262 4.95623 91.731 5.12665L92.0414 4.38935ZM90.4282 4.07C89.8612 4.07 89.3175 4.17577 88.8004 4.38793L89.104 5.12807C89.5229 4.95623 89.9632 4.87 90.4282 4.87V4.07ZM88.8053 4.38594C88.3012 4.58492 87.8546 4.87133 87.4684 5.24424L88.024 5.81976C88.3338 5.52067 88.6911 5.29108 89.0991 5.13006L88.8053 4.38594ZM87.4684 5.24424C87.0824 5.61692 86.7772 6.05554 86.5531 6.55665L87.2833 6.88335C87.4671 6.47246 87.714 6.11908 88.024 5.81976L87.4684 5.24424ZM86.5531 6.55665C86.3243 7.0681 86.2122 7.62232 86.2122 8.214H87.0122C87.0122 7.72568 87.1041 7.2839 87.2833 6.88335L86.5531 6.55665ZM83.3222 8.214C83.3222 7.25645 83.4986 6.37472 83.8476 5.56418L83.1128 5.24782C82.7178 6.16528 82.5222 7.15555 82.5222 8.214H83.3222ZM83.8484 5.56235C84.2004 4.7333 84.687 4.01552 85.3084 3.40543L84.748 2.83457C84.0493 3.52048 83.504 4.3267 83.112 5.24965L83.8484 5.56235ZM85.3084 3.40543C85.928 2.79716 86.6678 2.3216 87.5331 1.98006L87.2393 1.23594C86.2806 1.6144 85.4484 2.14684 84.748 2.83457L85.3084 3.40543ZM87.5356 1.97906C88.4072 1.62814 89.3698 1.45 90.4282 1.45V0.649999C89.2785 0.649999 88.2132 0.843857 87.2368 1.23694L87.5356 1.97906ZM90.4282 1.45C91.4739 1.45 92.4307 1.62794 93.3028 1.97906L93.6016 1.23694C92.6257 0.84406 91.5664 0.649999 90.4282 0.649999V1.45ZM93.307 1.98071C94.1842 2.32249 94.9293 2.79804 95.548 3.40543L96.1084 2.83457C95.4071 2.14596 94.5682 1.61351 93.5974 1.23529L93.307 1.98071ZM95.5505 3.40794C96.1831 4.01787 96.6746 4.73486 97.026 5.56235L97.7624 5.24965C97.3698 4.32514 96.8173 3.51813 96.1058 2.83206L95.5505 3.40794ZM97.0268 5.56418C97.3758 6.37472 97.5522 7.25645 97.5522 8.214H98.3522C98.3522 7.15555 98.1566 6.16528 97.7616 5.24782L97.0268 5.56418ZM97.5522 8.214C97.5522 9.1715 97.3758 10.06 97.026 10.8836L97.7624 11.1963C98.1566 10.268 98.3522 9.2725 98.3522 8.214H97.5522ZM97.0268 10.8818C96.6756 11.6974 96.184 12.4092 95.5505 13.0201L96.1058 13.5959C96.8164 12.9108 97.3687 12.1106 97.7616 11.1982L97.0268 10.8818ZM95.548 13.0226C94.9283 13.6309 94.1818 14.1131 93.3028 14.4669L93.6016 15.2091C94.5706 14.8189 95.4081 14.2811 96.1084 13.5934L95.548 13.0226ZM93.307 14.4653C92.4337 14.8055 91.4755 14.978 90.4282 14.978V15.778C91.5648 15.778 92.6227 15.5905 93.5974 15.2107L93.307 14.4653ZM90.4282 14.978C89.3683 14.978 88.4042 14.8053 87.5314 14.4653L87.241 15.2107C88.2162 15.5907 89.2801 15.778 90.4282 15.778V14.978ZM87.5373 14.4676C86.6703 14.114 85.9289 13.6318 85.3084 13.0226L84.748 13.5934C85.4474 14.2802 86.2781 14.818 87.2351 15.2084L87.5373 14.4676ZM85.3084 13.0226C84.6861 12.4116 84.1994 11.699 83.8476 10.8818L83.1128 11.1982C83.505 12.109 84.0503 12.9084 84.748 13.5934L85.3084 13.0226ZM83.8484 10.8836C83.4986 10.06 83.3222 9.1715 83.3222 8.214H82.5222C82.5222 9.2725 82.7178 10.268 83.112 11.1963L83.8484 10.8836ZM100.595 12.462L100.962 12.6196L100.965 12.6135L100.595 12.462ZM101.711 11.328L101.559 10.9577L101.553 10.9603L101.711 11.328ZM103.349 11.328L103.191 11.6957L103.197 11.6982L103.349 11.328ZM104.483 12.462L104.112 12.6135L104.115 12.6196L104.483 12.462ZM104.483 14.1L104.85 14.2576L104.853 14.2515L104.483 14.1ZM104.033 14.766L104.316 15.0488L104.033 14.766ZM103.349 15.216L103.197 14.8457L103.191 14.8483L103.349 15.216ZM101.711 15.216L101.553 15.5837L101.559 15.5862L101.711 15.216ZM101.045 14.766L100.762 15.0488L101.045 14.766ZM100.595 14.1L100.224 14.2515L100.227 14.2576L100.595 14.1ZM100.833 13.272C100.833 13.0354 100.877 12.8193 100.962 12.6196L100.227 12.3044C100.097 12.6087 100.033 12.9326 100.033 13.272H100.833ZM100.965 12.6135C101.054 12.3961 101.175 12.2134 101.328 12.0608L100.762 11.4952C100.53 11.7266 100.352 11.9999 100.224 12.3105L100.965 12.6135ZM101.328 12.0608C101.483 11.9052 101.663 11.7838 101.868 11.6957L101.553 10.9603C101.255 11.0882 100.99 11.2668 100.762 11.4952L101.328 12.0608ZM101.862 11.6982C102.078 11.6101 102.302 11.566 102.539 11.566V10.766C102.199 10.766 101.872 10.8299 101.559 10.9578L101.862 11.6982ZM102.539 11.566C102.775 11.566 102.991 11.6101 103.191 11.6957L103.506 10.9603C103.202 10.8299 102.878 10.766 102.539 10.766V11.566ZM103.197 11.6982C103.415 11.7871 103.597 11.9083 103.75 12.0608L104.316 11.4952C104.084 11.2637 103.811 11.0849 103.5 10.9578L103.197 11.6982ZM103.75 12.0608C103.902 12.2134 104.024 12.3961 104.112 12.6135L104.853 12.3105C104.726 11.9999 104.547 11.7266 104.316 11.4952L103.75 12.0608ZM104.115 12.6196C104.201 12.8193 104.245 13.0354 104.245 13.272H105.045C105.045 12.9326 104.981 12.6087 104.85 12.3044L104.115 12.6196ZM104.245 13.272C104.245 13.5086 104.201 13.7331 104.112 13.9485L104.853 14.2515C104.981 13.9389 105.045 13.6114 105.045 13.272H104.245ZM104.115 13.9424C104.027 14.1481 103.905 14.3275 103.75 14.4832L104.316 15.0488C104.544 14.8205 104.722 14.5559 104.85 14.2576L104.115 13.9424ZM103.75 14.4832C103.597 14.6357 103.415 14.7569 103.197 14.8458L103.5 15.5862C103.811 15.4591 104.084 15.2803 104.316 15.0488L103.75 14.4832ZM103.191 14.8483C102.991 14.9339 102.775 14.978 102.539 14.978V15.778C102.878 15.778 103.202 15.7141 103.506 15.5837L103.191 14.8483ZM102.539 14.978C102.302 14.978 102.078 14.9339 101.862 14.8458L101.559 15.5862C101.872 15.7141 102.199 15.778 102.539 15.778V14.978ZM101.868 14.8483C101.663 14.7602 101.483 14.6388 101.328 14.4832L100.762 15.0488C100.99 15.2772 101.255 15.4558 101.553 15.5837L101.868 14.8483ZM101.328 14.4832C101.172 14.3275 101.05 14.1481 100.962 13.9424L100.227 14.2576C100.355 14.5559 100.533 14.8205 100.762 15.0488L101.328 14.4832ZM100.965 13.9485C100.877 13.7331 100.833 13.5086 100.833 13.272H100.033C100.033 13.6114 100.097 13.9389 100.224 14.2515L100.965 13.9485ZM112.886 4.416V4.016H112.486V4.416H112.886ZM112.886 15V15.4H113.286V15H112.886ZM109.358 15H108.958V15.4H109.358V15ZM109.358 4.416H109.758V4.016H109.358V4.416ZM106.46 4.416H106.06V4.816H106.46V4.416ZM106.46 1.428V1.028H106.06V1.428H106.46ZM115.784 1.428H116.184V1.028H115.784V1.428ZM115.784 4.416V4.816H116.184V4.416H115.784ZM112.486 4.416V15H113.286V4.416H112.486ZM112.886 14.6H109.358V15.4H112.886V14.6ZM109.758 15V4.416H108.958V15H109.758ZM109.358 4.016H106.46V4.816H109.358V4.016ZM106.86 4.416V1.428H106.06V4.416H106.86ZM106.46 1.828H115.784V1.028H106.46V1.828ZM115.384 1.428V4.416H116.184V1.428H115.384ZM115.784 4.016H112.886V4.816H115.784V4.016ZM125.795 4.416V4.816H126.195V4.416H125.795ZM121.601 4.416V4.016H121.201V4.416H121.601ZM121.601 6.684H121.201V7.084H121.601V6.684ZM125.561 6.684H125.961V6.284H125.561V6.684ZM125.561 9.672V10.072H125.961V9.672H125.561ZM121.601 9.672V9.272H121.201V9.672H121.601ZM121.601 12.012H121.201V12.412H121.601V12.012ZM125.795 12.012H126.195V11.612H125.795V12.012ZM125.795 15V15.4H126.195V15H125.795ZM118.073 15H117.673V15.4H118.073V15ZM118.073 1.428V1.028H117.673V1.428H118.073ZM125.795 1.428H126.195V1.028H125.795V1.428ZM125.795 4.016H121.601V4.816H125.795V4.016ZM121.201 4.416V6.684H122.001V4.416H121.201ZM121.601 7.084H125.561V6.284H121.601V7.084ZM125.161 6.684V9.672H125.961V6.684H125.161ZM125.561 9.272H121.601V10.072H125.561V9.272ZM121.201 9.672V12.012H122.001V9.672H121.201ZM121.601 12.412H125.795V11.612H121.601V12.412ZM125.395 12.012V15H126.195V12.012H125.395ZM125.795 14.6H118.073V15.4H125.795V14.6ZM118.473 15V1.428H117.673V15H118.473ZM118.073 1.828H125.795V1.028H118.073V1.828ZM125.395 1.428V4.416H126.195V1.428H125.395ZM136.439 9.96V10.36H137.003L136.816 9.82766L136.439 9.96ZM134.855 5.442L135.232 5.30966L134.855 4.233L134.477 5.30966L134.855 5.442ZM133.271 9.96L132.893 9.82766L132.707 10.36H133.271V9.96ZM137.375 12.642L137.753 12.512L137.66 12.242H137.375V12.642ZM132.335 12.642V12.242H132.049L131.956 12.512L132.335 12.642ZM131.525 15V15.4H131.81L131.903 15.13L131.525 15ZM127.763 15L127.389 14.8577L127.182 15.4H127.763V15ZM132.929 1.428V1.028H132.653L132.555 1.2857L132.929 1.428ZM136.781 1.428L137.155 1.2857L137.056 1.028H136.781V1.428ZM141.947 15V15.4H142.527L142.321 14.8577L141.947 15ZM138.185 15L137.806 15.13L137.899 15.4H138.185V15ZM136.816 9.82766L135.232 5.30966L134.477 5.57434L136.061 10.0923L136.816 9.82766ZM134.477 5.30966L132.893 9.82766L133.648 10.0923L135.232 5.57434L134.477 5.30966ZM133.271 10.36H136.439V9.56H133.271V10.36ZM137.375 12.242H132.335V13.042H137.375V12.242ZM131.956 12.512L131.146 14.87L131.903 15.13L132.713 12.772L131.956 12.512ZM131.525 14.6H127.763V15.4H131.525V14.6ZM128.137 15.1423L133.303 1.57029L132.555 1.2857L127.389 14.8577L128.137 15.1423ZM132.929 1.828H136.781V1.028H132.929V1.828ZM136.407 1.57029L141.573 15.1423L142.321 14.8577L137.155 1.2857L136.407 1.57029ZM141.947 14.6H138.185V15.4H141.947V14.6ZM138.563 14.87L137.753 12.512L136.996 12.772L137.806 15.13L138.563 14.87ZM143.598 15L143.204 14.9331L143.125 15.4H143.598V15ZM145.902 1.428V1.028H145.565L145.508 1.36105L145.902 1.428ZM149.394 1.428L149.769 1.28735L149.671 1.028H149.394V1.428ZM152.112 8.664L151.738 8.80465L152.114 9.80486L152.487 8.80384L152.112 8.664ZM154.812 1.428V1.028H154.535L154.438 1.28816L154.812 1.428ZM158.304 1.428L158.699 1.36105L158.642 1.028H158.304V1.428ZM160.608 15V15.4H161.082L161.003 14.9331L160.608 15ZM157.098 15L156.703 15.0592L156.754 15.4H157.098V15ZM155.928 7.188L156.324 7.12875L156.109 5.69347L155.558 7.03621L155.928 7.188ZM152.724 15V15.4H152.993L153.094 15.1518L152.724 15ZM151.32 15L150.948 15.1451L151.047 15.4H151.32V15ZM148.278 7.188L148.651 7.04286L148.105 5.6417L147.883 7.12875L148.278 7.188ZM147.108 15V15.4H147.453L147.504 15.0592L147.108 15ZM143.993 15.0669L146.297 1.49495L145.508 1.36105L143.204 14.9331L143.993 15.0669ZM145.902 1.828H149.394V1.028H145.902V1.828ZM149.02 1.56865L151.738 8.80465L152.487 8.52335L149.769 1.28735L149.02 1.56865ZM152.487 8.80384L155.187 1.56784L154.438 1.28816L151.738 8.52416L152.487 8.80384ZM154.812 1.828H158.304V1.028H154.812V1.828ZM157.91 1.49495L160.214 15.0669L161.003 14.9331L158.699 1.36105L157.91 1.49495ZM160.608 14.6H157.098V15.4H160.608V14.6ZM157.494 14.9408L156.324 7.12875L155.533 7.24725L156.703 15.0592L157.494 14.9408ZM155.558 7.03621L152.354 14.8482L153.094 15.1518L156.298 7.33978L155.558 7.03621ZM152.724 14.6H151.32V15.4H152.724V14.6ZM151.693 14.8549L148.651 7.04286L147.906 7.33314L150.948 15.1451L151.693 14.8549ZM147.883 7.12875L146.713 14.9408L147.504 15.0592L148.674 7.24725L147.883 7.12875ZM147.108 14.6H143.598V15.4H147.108V14.6Z" fill="#150909"/>
</svg>
