<svg width="216" height="72" viewBox="0 0 216 72" fill="none" xmlns="http://www.w3.org/2000/svg">
<g clip-path="url(#clip0)">
<path d="M101.335 25.8691C99.6625 25.2603 97.8948 24.9545 96.115 24.9661C90.355 24.9661 86.29 27.8701 86.26 32.0311C86.224 35.0911 89.152 36.8131 91.363 37.8391C93.634 38.8891 94.393 39.5491 94.387 40.4941C94.372 41.9251 92.572 42.5731 90.901 42.5731C88.603 42.5731 87.343 42.2521 85.408 41.4481L84.691 41.1151L83.878 45.9091C85.276 46.4941 87.796 46.9951 90.403 47.0341C96.526 47.0341 100.528 44.1511 100.576 39.7171C100.624 37.2781 99.046 35.4271 95.713 33.9031C93.691 32.9131 92.431 32.2501 92.431 31.2451C92.431 30.3571 93.508 29.4091 95.758 29.4091C97.2543 29.3733 98.7415 29.6523 100.123 30.2281L100.663 30.4711L101.476 25.8391L101.335 25.8691ZM116.284 25.3591H111.784C110.383 25.3591 109.336 25.7401 108.721 27.1321L100.066 46.7341H106.189L107.413 43.5241L114.883 43.5301C115.066 44.2801 115.603 46.7341 115.603 46.7341H121L116.284 25.3591ZM77.98 25.1791H83.809L80.164 46.5661H74.332L77.98 25.1731V25.1791ZM63.163 36.9661L63.769 39.9361L69.472 25.3591H75.649L66.466 46.7041H60.304L55.264 28.6261C55.1827 28.3282 54.9892 28.0734 54.724 27.9151C52.9113 26.9736 50.9886 26.2611 49 25.7941L49.075 25.3441H58.468C59.74 25.3921 60.766 25.7941 61.117 27.1561L63.163 36.9751V36.9661ZM109.087 39.1471L111.412 33.1651C111.382 33.2251 111.892 31.9291 112.186 31.1251L112.585 32.9701L113.932 39.1411H109.087V39.1471Z" fill="#E5E5E5"/>
</g>
<path d="M18.4325 46.3003C18.5267 46.3799 18.6275 46.4595 18.7266 46.5375C16.7498 47.8531 14.4273 48.5532 12.0527 48.5493C10.1723 48.5492 8.31797 48.1091 6.63806 47.2642C4.95815 46.4193 3.49927 45.1929 2.37813 43.6833C1.25698 42.1736 0.504679 40.4225 0.181389 38.5701C-0.141901 36.7177 -0.0272046 34.8153 0.516304 33.0151C1.05981 31.2149 2.01705 29.5669 3.31145 28.2029C4.60585 26.8389 6.2015 25.7967 7.97076 25.1597C9.74002 24.5228 11.6338 24.3086 13.5006 24.5345C15.3674 24.7604 17.1555 25.42 18.7217 26.4606C18.6242 26.5435 18.5267 26.6199 18.4536 26.7044C17.0459 27.919 15.9166 29.4226 15.1423 31.113C14.3681 32.8033 13.9672 34.6407 13.967 36.4999C13.9674 38.3577 14.3662 40.1939 15.1365 41.8845C15.9069 43.5751 17.0308 45.0809 18.4325 46.3003ZM26.9491 24.4489C24.4791 24.4489 22.1862 25.1899 20.2785 26.4606C20.376 26.5435 20.4735 26.6199 20.5466 26.7044C21.9543 27.919 23.0837 29.4226 23.8579 31.113C24.6321 32.8033 25.033 34.6407 25.0332 36.4999C25.0322 38.3576 24.6331 40.1936 23.8628 41.8841C23.0925 43.5746 21.9689 45.0805 20.5677 46.3003C20.4735 46.3799 20.3727 46.4595 20.2736 46.5375C22.2502 47.8536 24.5728 48.5537 26.9475 48.5493C28.5302 48.5499 30.0975 48.2387 31.5598 47.6334C33.0222 47.0282 34.351 46.1407 35.4703 45.0217C36.5895 43.9027 37.4774 42.5742 38.083 41.112C38.6887 39.6498 39.0003 38.0826 39.0001 36.4999C38.9997 33.3039 37.7299 30.2389 35.47 27.979C33.2101 25.7191 30.1451 24.4493 26.9491 24.4489ZM19.5001 27.0326C18.0646 28.1576 16.9042 29.5948 16.1071 31.2352C15.31 32.8756 14.8971 34.6761 14.8997 36.4999C14.8966 38.324 15.3092 40.1249 16.1064 41.7656C16.9035 43.4064 18.0642 44.8438 19.5001 45.9688C20.9357 44.8435 22.0961 43.406 22.8932 41.7653C23.6903 40.1246 24.1032 38.3239 24.1005 36.4999C24.1032 34.6761 23.6903 32.8756 22.8932 31.2352C22.096 29.5948 20.9357 28.1576 19.5001 27.0326Z" fill="#E5E5E5"/>
<g clip-path="url(#clip1)">
<path fill-rule="evenodd" clip-rule="evenodd" d="M158.078 25V25.0096C158.069 25.0096 155.023 25 154.211 27.8917C153.466 30.5432 151.368 37.8638 151.31 38.0655H150.73C150.73 38.0655 148.583 30.5817 147.829 27.8821C147.017 24.9904 143.962 25 143.962 25H137V47H143.962V33.9345H144.252H144.542L148.603 47H153.437L157.498 33.9441H158.078V47H165.04V25H158.078Z" fill="#E5E5E5"/>
<path fill-rule="evenodd" clip-rule="evenodd" d="M183.508 25C183.508 25 181.467 25.1825 180.51 27.3057L175.579 38.0655H174.999V25H168.037V47H174.612C174.612 47 176.749 46.8079 177.706 44.6943L182.541 33.9345H183.121V47H190.082V25H183.508Z" fill="#E5E5E5"/>
<path fill-rule="evenodd" clip-rule="evenodd" d="M193.177 34.9912V46.9999H200.138V39.9868H207.68C210.968 39.9868 213.752 37.9021 214.787 34.9912H193.177Z" fill="#E5E5E5"/>
<path fill-rule="evenodd" clip-rule="evenodd" d="M207.68 25H192.2C192.974 29.1886 196.135 32.5511 200.225 33.6463C201.154 33.8961 202.13 34.0306 203.136 34.0306H215.067C215.174 33.531 215.222 33.0218 215.222 32.4934C215.222 28.3528 211.848 25 207.68 25Z" fill="url(#paint0_linear)"/>
</g>
<defs>
<linearGradient id="paint0_linear" x1="192.202" y1="29.5153" x2="215.222" y2="29.5153" gradientUnits="userSpaceOnUse">
<stop offset="0.3" stop-color="#E9E9E9"/>
<stop offset="1" stop-color="#E5E5E5"/>
</linearGradient>
<clipPath id="clip0">
<rect width="72" height="72" fill="white" transform="translate(49)"/>
</clipPath>
<clipPath id="clip1">
<rect width="78.2222" height="22" fill="white" transform="translate(137 25)"/>
</clipPath>
</defs>
</svg>
